<?xml version="1.0" standalone="no"?>
<!DOCTYPE svg PUBLIC "-//W3C//DTD SVG 1.1//EN" "http://www.w3.org/Graphics/SVG/1.1/DTD/svg11.dtd" >
<svg xmlns="http://www.w3.org/2000/svg" xmlns:xlink="http://www.w3.org/1999/xlink" version="1.1">
<metadata>
Created by FontForge 20170731 at Sun Mar 14 16:10:03 2021
 By Aleksey,,,
Copyright (c) 2020 Typotheque.com All rights reserved.
</metadata>
<defs>
<font id="IDFVoyageur-Bold" horiz-adv-x="1441" >
  <font-face 
    font-family="IDF Voyageur Bold"
    font-weight="600"
    font-stretch="condensed"
    units-per-em="2048"
    panose-1="0 0 0 0 0 0 0 0 0 0"
    ascent="1593"
    descent="-455"
    x-height="1114"
    cap-height="1546"
    bbox="-406 -476.294 2337 2138"
    underline-thickness="143"
    underline-position="240"
    unicode-range="U+0020-FB02"
  />
<missing-glyph horiz-adv-x="1220" 
d="M653 1382v56h49v-56h-49zM518 1382v56h49v-56h-49zM383 1382v56h49v-56h-49zM248 1382v56h49v-56h-49zM113 1382v56h49v-56h-49zM1059 1382v56h49v-56h-49zM924 1382v56h49v-56h-49zM788 1382v56h50v-56h-50zM113 1229v55h49v-55h-49zM1059 1229v55h49v-55h-49zM653 1075
v55h49v-55h-49zM113 1075v55h49v-55h-49zM788 1075v55h50v-55h-50zM1059 1075v55h49v-55h-49zM383 1075v55h49v-55h-49zM518 1075v55h49v-55h-49zM1059 922v55h49v-55h-49zM788 922v55h50v-55h-50zM113 922v55h49v-55h-49zM788 768v55h50v-55h-50zM518 768v55h49v-55h-49z
M1059 768v55h49v-55h-49zM653 768v55h49v-55h-49zM113 768v55h49v-55h-49zM1059 614v56h49v-56h-49zM518 614v56h49v-56h-49zM113 614v56h49v-56h-49zM113 461v55h49v-55h-49zM1059 461v55h49v-55h-49zM518 307v55h49v-55h-49zM113 307v55h49v-55h-49zM1059 307v55h49v-55
h-49zM113 154v55h49v-55h-49zM1059 154v55h49v-55h-49zM1059 0v55h49v-55h-49zM924 0v55h49v-55h-49zM788 0v55h50v-55h-50zM653 0v55h49v-55h-49zM518 0v55h49v-55h-49zM383 0v55h49v-55h-49zM248 0v55h49v-55h-49zM113 0v55h49v-55h-49z" />
    <glyph glyph-name=".notdef" horiz-adv-x="1220" 
d="M653 1382v56h49v-56h-49zM518 1382v56h49v-56h-49zM383 1382v56h49v-56h-49zM248 1382v56h49v-56h-49zM113 1382v56h49v-56h-49zM1059 1382v56h49v-56h-49zM924 1382v56h49v-56h-49zM788 1382v56h50v-56h-50zM113 1229v55h49v-55h-49zM1059 1229v55h49v-55h-49zM653 1075
v55h49v-55h-49zM113 1075v55h49v-55h-49zM788 1075v55h50v-55h-50zM1059 1075v55h49v-55h-49zM383 1075v55h49v-55h-49zM518 1075v55h49v-55h-49zM1059 922v55h49v-55h-49zM788 922v55h50v-55h-50zM113 922v55h49v-55h-49zM788 768v55h50v-55h-50zM518 768v55h49v-55h-49z
M1059 768v55h49v-55h-49zM653 768v55h49v-55h-49zM113 768v55h49v-55h-49zM1059 614v56h49v-56h-49zM518 614v56h49v-56h-49zM113 614v56h49v-56h-49zM113 461v55h49v-55h-49zM1059 461v55h49v-55h-49zM518 307v55h49v-55h-49zM113 307v55h49v-55h-49zM1059 307v55h49v-55
h-49zM113 154v55h49v-55h-49zM1059 154v55h49v-55h-49zM1059 0v55h49v-55h-49zM924 0v55h49v-55h-49zM788 0v55h50v-55h-50zM653 0v55h49v-55h-49zM518 0v55h49v-55h-49zM383 0v55h49v-55h-49zM248 0v55h49v-55h-49zM113 0v55h49v-55h-49z" />
    <glyph glyph-name=".null" horiz-adv-x="0" 
 />
    <glyph glyph-name="nonmarkingreturn" horiz-adv-x="682" 
 />
    <glyph glyph-name="space" unicode=" " horiz-adv-x="532" 
 />
    <glyph glyph-name="exclam" unicode="!" horiz-adv-x="534" 
d="M125 1180v366h285v-362l-35 -676h-219zM127 0v332h289v-332h-289z" />
    <glyph glyph-name="quotedbl" unicode="&#x22;" horiz-adv-x="782" 
d="M444 1061v532h252l-30 -532h-222zM100 1061v532h252l-30 -532h-222z" />
    <glyph glyph-name="numbersign" unicode="#" horiz-adv-x="1329" 
d="M170 0l66 356h-175l33 238h187l65 346h-192l32 236h203l70 370h231l-69 -370h223l69 370h232l-70 -370h195l-31 -236h-209l-63 -346h209l-31 -238h-223l-68 -356h-229l65 356h-223l-66 -356h-231zM512 594h223l66 346h-223z" />
    <glyph glyph-name="dollar" unicode="$" horiz-adv-x="1146" 
d="M92 68v299q71 -42 181.5 -75t209.5 -42v385q-200 60 -300.5 169.5t-100.5 285.5q0 180 110 304.5t291 161.5v283h205v-272q98 -7 191 -33.5t155 -63.5v-288q-58 41 -154.5 72t-191.5 40v-385q201 -65 300 -172.5t99 -283.5q0 -186 -106 -305.5t-293 -155.5v-326h-205v311
q-200 9 -391 91zM393 1133q0 -85 90 -140v277q-90 -46 -90 -137zM780 426q0 44 -22 75t-70 58v-283q92 44 92 150z" />
    <glyph glyph-name="percent" unicode="%" horiz-adv-x="1515" 
d="M57 1159q0 186 87 298t225 112q134 0 214.5 -107t80.5 -286q0 -185 -86.5 -299.5t-223.5 -114.5q-134 0 -215.5 108.5t-81.5 288.5zM238 0l809 1546h233l-809 -1546h-233zM354 1389q-96 0 -96 -222q0 -221 98 -221q51 0 77 58t26 161q0 105 -26.5 164.5t-78.5 59.5z
M850 373q0 184 87.5 295.5t225.5 111.5q134 0 214.5 -107t80.5 -286q0 -185 -86.5 -299.5t-222.5 -114.5q-135 0 -217 109.5t-82 290.5zM1149 600q-98 0 -98 -221t100 -221q51 0 76.5 58t25.5 161q0 105 -26 164t-78 59z" />
    <glyph glyph-name="ampersand" unicode="&#x26;" horiz-adv-x="1329" 
d="M1012 1040l-295 -2q31 102 31 142q0 63 -33.5 102t-91.5 39t-93.5 -42t-35.5 -110q0 -85 67.5 -193.5t231.5 -305.5l92 -111q41 131 55 277h307q-41 -317 -160 -521l265 -315h-385l-78 92q-154 -112 -367 -112q-218 0 -339.5 116t-121.5 310q0 130 63 219t200 159
q-134 209 -134 377q0 178 121 295t332 117q194 0 302 -99t108 -260q0 -90 -41 -174zM381 459q0 -97 51.5 -161.5t136.5 -64.5q78 0 152 58l-244 289q-8 9 -21 25t-18 22q-57 -66 -57 -168z" />
    <glyph glyph-name="quotesingle" unicode="'" horiz-adv-x="434" 
d="M100 1061v532h252l-30 -532h-222z" />
    <glyph glyph-name="parenleft" unicode="(" horiz-adv-x="600" 
d="M569 -334h-231q-28 47 -41 69t-46.5 87t-52.5 115t-46.5 135.5t-43 166t-27 189t-11.5 221.5q0 150 19.5 289.5t45.5 235t66 191t66 144t59 105.5l4.5 7.5t3.5 6t4 6.5h231q-32 -60 -53.5 -104t-60.5 -145.5t-63 -198t-43 -241t-19 -296.5q0 -151 19 -295t43 -240.5
t63 -197.5t60.5 -145.5t53.5 -104.5z" />
    <glyph glyph-name="parenright" unicode=")" horiz-adv-x="600" 
d="M31 1634h231q28 -47 41 -69t46.5 -87t52.5 -115t46.5 -135.5t43 -166t27 -189t11.5 -221.5q0 -150 -19.5 -289.5t-45.5 -235t-66 -191t-66 -144t-59 -105.5l-4.5 -7.5t-3.5 -6t-4 -6.5h-231q32 60 53.5 104t60.5 145.5t63 198t43 241t19 296.5q0 151 -19 295t-43 240.5
t-63 197.5t-60.5 145.5t-53.5 104.5z" />
    <glyph glyph-name="asterisk" unicode="*" horiz-adv-x="890" 
d="M510 1604l22 -285l9 -4l243 47l45 -127l-219 -133l-2 -8l127 -258l-102 -95l-182 224h-11l-186 -217l-104 94l133 252l-2 8l-220 125l45 131l244 -43l6 6l23 283h131z" />
    <glyph glyph-name="plus" unicode="+" horiz-adv-x="974" 
d="M63 651v250h310v363h229v-363h309v-250h-309v-370h-229v370h-310z" />
    <glyph glyph-name="comma" unicode="," horiz-adv-x="468" 
d="M225 -367h-198q79 168 79 453v268h261v-161q0 -358 -142 -560z" />
    <glyph glyph-name="hyphen" unicode="-" horiz-adv-x="815" 
d="M102 475v291h611v-291h-611z" />
    <glyph glyph-name="hyphen" unicode="&#xad;" horiz-adv-x="815" 
d="M102 475v291h611v-291h-611z" />
    <glyph glyph-name="period" unicode="." horiz-adv-x="528" 
d="M102 0v350h324v-350h-324z" />
    <glyph glyph-name="slash" unicode="/" horiz-adv-x="843" 
d="M37 -334l538 1968h230l-537 -1968h-231z" />
    <glyph glyph-name="zero" unicode="0" horiz-adv-x="1226" 
d="M596 -23q-263 0 -388.5 189.5t-125.5 583.5q0 825 536 825q121 0 212.5 -37t151 -102t96.5 -165t52 -215.5t15 -262.5q0 -399 -137.5 -607.5t-411.5 -208.5zM616 209q69 0 116 41t73 121t36.5 179.5t10.5 235.5q0 557 -244 557q-67 0 -114.5 -42t-74 -121.5t-38.5 -179
t-12 -228.5q0 -282 56 -422.5t191 -140.5z" />
    <glyph glyph-name="one" unicode="1" horiz-adv-x="790" 
d="M635 0h-307v1190l-295 -129v250l428 233h174v-1544z" />
    <glyph glyph-name="two" unicode="2" horiz-adv-x="1107" 
d="M70 0v213l372 389q140 150 194 241t54 189q0 124 -66.5 190t-187.5 66q-87 0 -166 -34t-180 -115v276q181 154 420 154q215 0 347 -128.5t132 -342.5q0 -158 -85 -303t-281 -336l-195 -191h627l-39 -268h-946z" />
    <glyph glyph-name="three" unicode="3" horiz-adv-x="1081" 
d="M444 -23q-100 0 -198.5 22t-161.5 56v252q73 -46 159 -70t165 -24q133 0 217 65.5t84 170.5q0 99 -73 153.5t-210 54.5h-121v222h123q105 0 169.5 62.5t64.5 164.5q0 97 -59.5 152t-164.5 55q-82 0 -180.5 -32t-169.5 -87v240q69 61 183.5 98t234.5 37q205 0 330 -105
t125 -286q0 -121 -55.5 -214t-151.5 -149q252 -89 252 -360q0 -144 -75.5 -254t-202.5 -167t-284 -57z" />
    <glyph glyph-name="four" unicode="4" horiz-adv-x="1128" 
d="M653 0v369h-616v209l395 966h289l-383 -917h315v307l275 131v-438h176l-35 -258h-141v-369h-275z" />
    <glyph glyph-name="five" unicode="5" horiz-adv-x="1077" 
d="M418 213q127 0 202.5 73.5t75.5 198.5q0 117 -68 182.5t-186 65.5q-90 0 -174 -37l-168 47l78 801h815l-35 -266h-550l-37 -332q72 10 133 10q231 0 364 -120.5t133 -335.5q0 -121 -44.5 -220t-122 -164t-183 -100.5t-227.5 -35.5q-184 0 -342 73v256q181 -96 336 -96z
" />
    <glyph glyph-name="six" unicode="6" horiz-adv-x="1216" 
d="M1071 1235q-71 43 -157.5 65.5t-163.5 22.5q-162 0 -252 -105.5t-113 -328.5q162 102 332 102q91 0 169 -28.5t138 -83.5t94.5 -143t34.5 -199q0 -244 -151 -402t-386 -158q-254 0 -397 192t-143 531q0 251 77.5 446.5t227.5 309t352 113.5q86 0 182 -20.5t156 -53.5
v-260zM621 762q-112 0 -242 -74q10 -475 250 -475q109 0 166 86t57 217q0 126 -62.5 186t-168.5 60z" />
    <glyph glyph-name="seven" unicode="7" horiz-adv-x="1003" 
d="M420 0h-289l-8 16l555 1262h-653l51 266h880l33 -166z" />
    <glyph glyph-name="eight" unicode="8" horiz-adv-x="1224" 
d="M1145 442q0 -205 -156.5 -337t-404.5 -132q-229 0 -367.5 112t-138.5 296q0 127 69 218.5t197 141.5q-238 128 -238 365q0 202 147 332.5t378 130.5q216 0 352.5 -109t136.5 -293q0 -128 -68.5 -214t-213.5 -140q156 -68 231.5 -155.5t75.5 -215.5zM662 879l8 -2
q82 50 124 117t42 141q0 93 -59 149.5t-156 56.5q-93 0 -148 -54.5t-55 -149.5q0 -93 60.5 -155t183.5 -103zM375 416q0 -106 63 -163.5t168 -57.5q103 0 165.5 54.5t62.5 151.5q0 95 -69.5 153.5t-229.5 109.5q-6 2 -19.5 6t-19.5 6q-58 -47 -89.5 -115.5t-31.5 -144.5z
" />
    <glyph glyph-name="nine" unicode="9" horiz-adv-x="1216" 
d="M145 311q69 -41 156.5 -65.5t165.5 -24.5q159 0 249 105.5t113 322.5q-162 -100 -327 -100q-200 0 -319.5 122.5t-119.5 334.5q0 243 151.5 399t387.5 156q256 0 396.5 -191t140.5 -536q0 -257 -79.5 -451.5t-228 -301t-346.5 -106.5q-89 0 -184.5 21t-155.5 53v262z
M367 1040q0 -124 60.5 -193t168.5 -69q107 0 242 74q-12 459 -254 459q-100 0 -158.5 -72.5t-58.5 -198.5z" />
    <glyph glyph-name="colon" unicode=":" horiz-adv-x="524" 
d="M102 764v350h322v-350h-322zM102 0v350h322v-350h-322z" />
    <glyph glyph-name="semicolon" unicode=";" horiz-adv-x="546" 
d="M113 764v350h319v-350h-319zM264 -367h-198q77 164 77 453v268h263v-161q0 -358 -142 -560z" />
    <glyph glyph-name="less" unicode="&#x3c;" horiz-adv-x="1032" 
d="M903 186l-846 480v190l846 479v-268l-557 -303l557 -301v-277z" />
    <glyph glyph-name="equal" unicode="=" horiz-adv-x="1069" 
d="M111 893v252h847v-252h-847zM111 403v252h847v-252h-847z" />
    <glyph glyph-name="greater" unicode="&#x3e;" horiz-adv-x="1032" 
d="M975 668l-846 -480v277l557 301l-557 301v270l846 -479v-190z" />
    <glyph glyph-name="question" unicode="?" horiz-adv-x="911" 
d="M217 508v72q0 75 36 143t87 120t102 102t87 111t36 126q0 66 -39 97.5t-133 31.5q-88 0 -163.5 -28.5t-163.5 -94.5v258q67 58 170.5 92.5t209.5 34.5q184 0 296 -100t112 -273q0 -94 -37.5 -178t-90.5 -143.5t-106 -112t-90.5 -106.5t-37.5 -105v-47h-275zM227 0v332
h291v-332h-291z" />
    <glyph glyph-name="at" unicode="@" horiz-adv-x="1765" 
d="M1534 -219q-296 -182 -612 -182q-396 0 -624 246.5t-228 678.5q0 300 108.5 536.5t307.5 370.5t454 134q226 0 399.5 -105.5t267 -294t93.5 -430.5q0 -182 -51.5 -329.5t-147.5 -233.5t-219 -86q-92 0 -156.5 48.5t-93.5 139.5q-90 -170 -262 -170q-143 0 -224 109
t-81 309q0 159 50 290t143.5 208.5t211.5 77.5q73 0 130 -30t90 -83l14 96h213l-80 -581q-17 -114 -3 -160.5t64 -46.5q83 0 130 103.5t47 283.5q0 318 -145 493t-388 175q-187 0 -331 -101.5t-222 -284t-78 -417.5q0 -349 172 -538t463 -189q271 0 590 188zM1022 561
l35 223q-69 93 -156 93q-95 0 -145.5 -89.5t-50.5 -250.5q0 -112 28.5 -158.5t97.5 -46.5q57 0 97.5 30.5t83.5 104.5q0 39 10 94z" />
    <glyph glyph-name="A" unicode="A" horiz-adv-x="1337" 
d="M2 0l485 1544h379l467 -1544h-346l-94 342h-481l-101 -342h-309zM492 612h325l-158 570z" />
    <glyph glyph-name="B" unicode="B" horiz-adv-x="1282" 
d="M141 0v1544h525q242 0 364.5 -100.5t122.5 -294.5q0 -248 -205 -326q130 -36 199.5 -132t69.5 -247q0 -213 -137.5 -328.5t-391.5 -115.5h-547zM594 1274h-137v-379h137q235 0 235 197q0 96 -57 139t-178 43zM625 655h-168v-385h176q133 0 195.5 50t62.5 159
q0 99 -57.5 137.5t-208.5 38.5z" />
    <glyph glyph-name="C" unicode="C" horiz-adv-x="1292" 
d="M803 -25q-342 0 -537.5 201t-195.5 565q0 248 89.5 434.5t261 290t404.5 103.5q107 0 211.5 -22t177.5 -60v-307q-74 51 -174.5 77.5t-201.5 26.5q-209 0 -322 -132.5t-113 -377.5q0 -252 116.5 -384t328.5 -132q186 0 366 102v-288q-69 -43 -179 -70t-232 -27z" />
    <glyph glyph-name="D" unicode="D" horiz-adv-x="1425" 
d="M141 0v1544h477q134 -1 242.5 -23.5t202 -76t156.5 -137t99 -210.5t36 -292q0 -391 -185.5 -595t-527.5 -210h-500zM590 1272h-133v-1000h149q414 0 414 500q0 267 -98 383.5t-332 116.5z" />
    <glyph glyph-name="E" unicode="E" horiz-adv-x="1142" 
d="M141 0v1544h910v-272h-594v-357h487v-268h-487v-375h610v-272h-926z" />
    <glyph glyph-name="F" unicode="F" horiz-adv-x="1097" 
d="M141 0v1544h910v-272h-594v-424h487v-264h-487v-584h-316z" />
    <glyph glyph-name="G" unicode="G" horiz-adv-x="1415" 
d="M793 -25q-345 0 -534 201t-189 567q0 384 205.5 605t564.5 221q254 0 434 -94v-312q-93 63 -206 96t-222 33q-202 0 -323.5 -134.5t-121.5 -381.5q0 -243 113 -386.5t320 -143.5q91 0 170 16v356h-220v263h533v-789q-101 -55 -238 -86t-286 -31z" />
    <glyph glyph-name="H" unicode="H" horiz-adv-x="1531" 
d="M457 1544v-626h618v626h316v-1544h-316v639h-618v-639h-316v1544h316z" />
    <glyph glyph-name="I" unicode="I" horiz-adv-x="598" 
d="M141 0v1546h316v-1546h-316z" />
    <glyph glyph-name="J" unicode="J" horiz-adv-x="921" 
d="M33 18v277q96 -47 217 -47q131 0 178 74t47 262v960h316v-1050q0 -258 -129.5 -390.5t-387.5 -132.5q-134 0 -241 47z" />
    <glyph glyph-name="K" unicode="K" horiz-adv-x="1310" 
d="M141 0v1544h316v-616h153l369 616h330l-455 -733l442 -811h-358l-342 657h-139v-657h-316z" />
    <glyph glyph-name="L" unicode="L" horiz-adv-x="1036" 
d="M141 0v1544h316v-1272h561v-272h-877z" />
    <glyph glyph-name="M" unicode="M" horiz-adv-x="1855" 
d="M72 0l159 1544h396l303 -1016l334 1016h368l146 -1544h-320l-82 979l-340 -979h-248l-311 1034l-94 -1034h-311z" />
    <glyph glyph-name="N" unicode="N" horiz-adv-x="1562" 
d="M141 0v1544h269l710 -952v952h301v-1544h-270l-707 973v-973h-303z" />
    <glyph glyph-name="O" unicode="O" horiz-adv-x="1540" 
d="M745 -25q-315 0 -495 209.5t-180 567.5q0 372 194 594.5t524 222.5q212 0 367 -95t235 -268.5t80 -406.5q0 -239 -85.5 -424.5t-251 -292.5t-388.5 -107zM772 248q170 0 261 137t91 387q0 251 -92 386.5t-262 135.5q-172 0 -264 -134.5t-92 -383.5q0 -251 93 -389.5
t265 -138.5z" />
    <glyph glyph-name="P" unicode="P" horiz-adv-x="1204" 
d="M141 0v1544h451q276 0 425.5 -132t149.5 -384q0 -249 -163.5 -399t-434.5 -150h-112v-479h-316zM532 1272h-75v-520h78q149 0 229 69t80 203q0 126 -77.5 187t-234.5 61z" />
    <glyph glyph-name="Q" unicode="Q" horiz-adv-x="1540" 
d="M745 -25q-315 0 -495 209.5t-180 567.5q0 372 194 594.5t524 222.5q212 0 367 -95t235 -268.5t80 -406.5q0 -220 -74 -397.5t-212 -284.5l172 -291h-287l-104 180q-105 -31 -220 -31zM772 248q33 0 47 2l-176 301h283l102 -172q96 134 96 393q0 251 -92 386.5t-262 135.5
q-172 0 -264 -134.5t-92 -383.5q0 -251 93 -389.5t265 -138.5z" />
    <glyph glyph-name="R" unicode="R" horiz-adv-x="1288" 
d="M141 0v1544h451q278 0 425.5 -129t147.5 -375q0 -152 -60 -268t-171 -184l309 -588h-352l-248 500q-20 -2 -63 -2h-123v-498h-316zM547 1272h-90v-502h92q150 0 222.5 64.5t72.5 197.5q0 128 -70.5 184t-226.5 56z" />
    <glyph glyph-name="S" unicode="S" horiz-adv-x="1157" 
d="M94 68v299q85 -52 212.5 -85.5t234.5 -33.5q118 0 179.5 46.5t61.5 131.5q0 74 -65 116.5t-234 92.5q-198 59 -299.5 168t-101.5 284q0 217 151.5 349.5t391.5 132.5q111 0 223 -27t186 -72v-286q-67 49 -182 80.5t-219 31.5q-115 0 -177.5 -42t-62.5 -119t67.5 -126.5
t221.5 -97.5q205 -66 306.5 -173t101.5 -285q0 -224 -152 -350t-408 -126q-227 0 -436 91z" />
    <glyph glyph-name="T" unicode="T" horiz-adv-x="1257" 
d="M467 0v1272h-451v272h1223v-272h-459v-1272h-313z" />
    <glyph glyph-name="U" unicode="U" 
d="M715 -23q-275 0 -431.5 150t-156.5 434v983h313v-946q0 -187 70 -268.5t221 -81.5q150 0 211.5 86t61.5 284v926h313v-921q0 -307 -158.5 -476.5t-443.5 -169.5z" />
    <glyph glyph-name="V" unicode="V" horiz-adv-x="1343" 
d="M1341 1544l-487 -1544h-373l-473 1544h348l324 -1165l334 1165h327z" />
    <glyph glyph-name="W" unicode="W" horiz-adv-x="1947" 
d="M1929 1544l-348 -1544h-393l-219 1042l-252 -1042h-369l-317 1544h327l201 -1159l254 1159h328l248 -1202l223 1202h317z" />
    <glyph glyph-name="X" unicode="X" horiz-adv-x="1290" 
d="M-18 0l503 766l-448 778h358l267 -487l292 487h326l-465 -760l471 -784h-375l-272 496l-303 -496h-354z" />
    <glyph glyph-name="Y" unicode="Y" horiz-adv-x="1300" 
d="M492 0v602l-486 942h356l302 -626l313 626h330l-500 -938v-606h-315z" />
    <glyph glyph-name="Z" unicode="Z" horiz-adv-x="1214" 
d="M1141 0h-1090v203l715 1069h-674v272h1047v-237l-695 -1035h697v-272z" />
    <glyph glyph-name="bracketleft" unicode="[" horiz-adv-x="626" 
d="M131 -334v2063h449v-211h-193v-1641h193v-211h-449z" />
    <glyph glyph-name="backslash" unicode="\" horiz-adv-x="843" 
d="M268 1634l539 -1968h-232l-536 1968h229z" />
    <glyph glyph-name="bracketright" unicode="]" horiz-adv-x="626" 
d="M496 1729v-2063h-451v211h195v1641h-195v211h451z" />
    <glyph glyph-name="asciicircum" unicode="^" horiz-adv-x="921" 
d="M580 1546l276 -598h-246l-151 342l-156 -342h-237l282 598h232z" />
    <glyph glyph-name="underscore" unicode="_" horiz-adv-x="786" 
d="M786 -195v-260h-786v260h786z" />
    <glyph glyph-name="grave" unicode="`" horiz-adv-x="1456" 
d="M885 1260h-219l-213 374h262z" />
    <glyph glyph-name="a" unicode="a" horiz-adv-x="1056" 
d="M678 0l-10 121q-47 -75 -115 -110.5t-166 -35.5q-155 0 -243.5 84.5t-88.5 233.5q0 164 112.5 259t309.5 95q99 0 180 -20v32q0 113 -44.5 158t-159.5 45q-163 0 -332 -78v271q79 40 182 62t205 22q224 0 332 -105t108 -327v-463l21 -244h-291zM354 328q0 -55 37 -87
t105 -32q87 0 161 47v178q-77 17 -129 17q-85 0 -129.5 -31.5t-44.5 -91.5z" />
    <glyph glyph-name="b" unicode="b" horiz-adv-x="1161" 
d="M111 1593h290v-561q111 105 263 105q213 0 326.5 -149t113.5 -413q0 -281 -122 -439.5t-329 -158.5q-86 0 -149.5 28.5t-128.5 94.5l-19 -100h-245v1593zM582 899q-102 0 -181 -76v-536q82 -76 179 -76q215 0 215 352q0 171 -52 253.5t-161 82.5z" />
    <glyph glyph-name="c" unicode="c" horiz-adv-x="905" 
d="M571 -20q-254 0 -384 140.5t-130 414.5q0 283 141 443.5t404 160.5q149 0 246 -47v-261q-94 50 -211 50q-279 0 -279 -320q0 -165 72 -247.5t223 -82.5q98 0 191 41v-235q-102 -57 -273 -57z" />
    <glyph glyph-name="d" unicode="d" horiz-adv-x="1173" 
d="M774 1593h289v-1593h-244l-22 121q-135 -144 -328 -144q-196 0 -304 145t-108 406q0 285 129.5 448t345.5 163q146 0 242 -86v540zM367 561q0 -350 206 -350q112 0 201 102v510q-82 76 -186 76q-115 0 -168 -84t-53 -254z" />
    <glyph glyph-name="e" unicode="e" horiz-adv-x="1079" 
d="M580 -20q-263 0 -393 140.5t-130 411.5q0 282 130 444.5t366 162.5q234 0 347.5 -160t113.5 -500h-656q12 -129 75 -187.5t198 -58.5q195 0 340 74v-233q-66 -45 -172.5 -69.5t-218.5 -24.5zM545 901q-84 0 -129.5 -55t-57.5 -172h353q-6 121 -43.5 174t-122.5 53z" />
    <glyph glyph-name="f" unicode="f" horiz-adv-x="720" 
d="M180 0v887h-147v227h147v41q0 220 97 334.5t286 114.5q56 0 117 -10t96 -23v-232q-85 31 -168 31q-75 0 -108 -43t-33 -139v-74h240v-227h-240v-887h-287z" />
    <glyph glyph-name="g" unicode="g" horiz-adv-x="1187" 
d="M1063 815v-782q0 -241 -147 -374.5t-402 -133.5q-197 0 -346 76v264q158 -88 315 -88q291 0 291 239v86q-131 -125 -305 -125q-196 0 -304 145t-108 410q0 282 123.5 444.5t339.5 162.5q174 0 281 -119l18 94h283zM367 561q0 -350 206 -350q112 0 201 102v508
q-81 78 -186 78q-116 0 -168.5 -83t-52.5 -255z" />
    <glyph glyph-name="h" unicode="h" horiz-adv-x="1136" 
d="M745 651q0 118 -39.5 168.5t-121.5 50.5q-97 0 -183 -61v-809h-290v1593h290v-573q139 119 310 119q145 0 235 -94t90 -289v-756h-291v651z" />
    <glyph glyph-name="i" unicode="i" horiz-adv-x="518" 
d="M410 1280h-301v309h301v-309zM403 0h-288v1114h288v-1114z" />
    <glyph glyph-name="j" unicode="j" horiz-adv-x="524" 
d="M416 1280h-301v309h301v-309zM408 1114v-1139q0 -213 -93.5 -331.5t-294.5 -118.5q-132 0 -225 51v236q92 -45 189 -45q72 0 103.5 44t31.5 142v1161h289z" />
    <glyph glyph-name="k" unicode="k" horiz-adv-x="1062" 
d="M111 0v1593h290v-884h103l256 405h305l-346 -502l336 -612h-322l-246 469h-86v-469h-290z" />
    <glyph glyph-name="l" unicode="l" horiz-adv-x="512" 
d="M111 0v1593h290v-1593h-290z" />
    <glyph glyph-name="m" unicode="m" horiz-adv-x="1751" 
d="M416 0h-289v809l-41 305h285l22 -115q140 140 328 140q198 0 270 -162q148 162 348 162q145 0 228.5 -93.5t83.5 -291.5v-754h-289v649q0 122 -34 171.5t-116 49.5q-95 0 -182 -65q2 -16 2 -51v-754h-289v649q0 122 -34.5 171.5t-116.5 49.5q-95 0 -176 -63v-807z" />
    <glyph glyph-name="n" unicode="n" horiz-adv-x="1153" 
d="M416 0h-289v809l-41 305h285l22 -117q149 142 336 142q145 0 234.5 -94t89.5 -289v-756h-291v651q0 119 -39 169t-123 50q-99 0 -184 -63v-807z" />
    <glyph glyph-name="o" unicode="o" horiz-adv-x="1150" 
d="M567 -25q-111 0 -204 36.5t-161.5 105.5t-106.5 176t-38 242q0 177 62.5 312.5t184 213.5t286.5 78q226 0 365 -146.5t139 -419.5t-142 -435.5t-385 -162.5zM578 211q106 0 163.5 93.5t57.5 256.5t-55.5 249.5t-161.5 86.5q-109 0 -168.5 -84t-59.5 -258
q0 -159 59 -251.5t165 -92.5z" />
    <glyph glyph-name="p" unicode="p" horiz-adv-x="1173" 
d="M416 -455h-289v1264l-41 305h283l20 -100q119 125 297 125q204 0 317 -148t113 -418q0 -280 -118 -438t-326 -158q-149 0 -256 91v-523zM594 899q-99 0 -178 -76v-547q74 -65 172 -65q115 0 167 87t52 261q0 173 -52 256.5t-161 83.5z" />
    <glyph glyph-name="q" unicode="q" horiz-adv-x="1191" 
d="M778 -455v564q-129 -132 -305 -132q-196 0 -306 145.5t-110 409.5q0 282 127 444.5t344 162.5q172 0 277 -117l16 92h285l-39 -297v-1272h-289zM367 559q0 -348 206 -348q106 0 205 113v495q-83 80 -190 80q-113 0 -167 -83.5t-54 -256.5z" />
    <glyph glyph-name="r" unicode="r" horiz-adv-x="763" 
d="M416 0h-289v809l-41 305h283l28 -145q58 84 128 129t169 45q33 0 49 -2v-277q-60 13 -104 13q-133 0 -223 -103v-774z" />
    <glyph glyph-name="s" unicode="s" horiz-adv-x="950" 
d="M424 -23q-200 0 -348 74v252q193 -90 366 -90q168 0 168 90q0 48 -48 73t-167 52q-168 38 -246.5 118t-78.5 216q0 170 120.5 273.5t321.5 103.5q90 0 183.5 -20t148.5 -52v-260q-162 90 -314 90q-84 0 -128 -25t-44 -69q0 -45 46.5 -70.5t156.5 -52.5
q162 -36 246 -111.5t84 -214.5q0 -171 -126.5 -274t-340.5 -103z" />
    <glyph glyph-name="t" unicode="t" horiz-adv-x="790" 
d="M170 383v504h-150v227h152l51 338h232v-338h274v-227h-274v-486q0 -98 32.5 -141t116.5 -43q72 0 160 27v-221q-37 -20 -104 -33t-136 -13q-192 0 -273 94.5t-81 311.5z" />
    <glyph glyph-name="u" unicode="u" horiz-adv-x="1148" 
d="M100 1114h291v-649q0 -121 39.5 -171t122.5 -50q97 0 180 59v811h291v-809l41 -305h-285l-22 115q-147 -140 -334 -140q-146 0 -235 95t-89 290v754z" />
    <glyph glyph-name="v" unicode="v" horiz-adv-x="1052" 
d="M360 0l-340 1114h308l207 -782l229 782h278l-362 -1114h-320z" />
    <glyph glyph-name="w" unicode="w" horiz-adv-x="1601" 
d="M1585 1114l-276 -1114h-336l-178 762l-191 -762h-323l-252 1114h311l133 -807l201 807h293l180 -799l156 799h282z" />
    <glyph glyph-name="x" unicode="x" horiz-adv-x="1036" 
d="M-6 0l377 545l-357 569h340l176 -321l193 321h303l-371 -541l359 -573h-342l-176 322l-191 -322h-311z" />
    <glyph glyph-name="y" unicode="y" horiz-adv-x="1042" 
d="M500 -455h-283l170 453l-375 1116h314l206 -745l224 745h282z" />
    <glyph glyph-name="z" unicode="z" horiz-adv-x="993" 
d="M55 176l496 703h-479v235h860v-188l-492 -690h496v-236h-881v176z" />
    <glyph glyph-name="braceleft" unicode="{" horiz-adv-x="638" 
d="M49 573v230h23q52 0 75.5 22t25 62t-0.5 96l-20 455q-7 137 59 223t176 86h188v-225h-51q-134 0 -123 -146l35 -469q4 -57 -7.5 -97t-38 -63.5t-56.5 -36t-74 -20.5v-4q90 -15 136.5 -65.5t39.5 -151.5l-35 -397q-5 -33 -2.5 -65.5t11.5 -59t38 -42.5t76 -16h51v-223
h-188q-114 0 -181 71.5t-59 237.5l25 418q6 70 2 110t-26 55t-76 15h-23z" />
    <glyph glyph-name="bar" unicode="|" horiz-adv-x="481" 
d="M131 -334v1968h221v-1968h-221z" />
    <glyph glyph-name="braceright" unicode="}" horiz-adv-x="638" 
d="M590 840v-232h-25q-50 0 -73 -22t-25 -62t0 -96l20 -453q7 -137 -58.5 -223t-176.5 -86h-189v223h54q70 0 99 40t24 106l-35 469q-4 58 6.5 98.5t37 64t56.5 35t74 19.5v4q-91 16 -136.5 66t-37.5 151l33 383q6 33 3.5 68t-11.5 63.5t-38 47t-75 18.5h-54v223h189
q53 0 96 -15.5t78.5 -49t53 -95.5t12.5 -147l-25 -418q-8 -113 7.5 -146.5t90.5 -33.5h25z" />
    <glyph glyph-name="asciitilde" unicode="~" horiz-adv-x="1064" 
d="M106 522q0 151 67.5 246.5t182.5 95.5q54 0 109.5 -21.5t93 -48t80.5 -48t74 -21.5q40 0 61 29t35 98h164q0 -135 -71.5 -238.5t-182.5 -103.5q-49 0 -104.5 21.5t-96 47t-85 47t-73.5 21.5q-76 0 -88 -125h-166z" />
    <glyph glyph-name="nbspace" unicode="&#xa0;" horiz-adv-x="475" 
 />
    <glyph glyph-name="exclamdown" unicode="&#xa1;" horiz-adv-x="512" 
d="M391 1114v-332h-289v332h289zM393 -66v-366h-284v362l34 676h219z" />
    <glyph glyph-name="cent" unicode="&#xa2;" horiz-adv-x="950" 
d="M479 -88v295q-203 25 -311.5 162.5t-108.5 384.5q0 251 111 406.5t309 191.5v282h221v-280q81 -12 154 -49v-263q-74 44 -154 56v-641q79 9 152 45v-230q-68 -47 -152 -61v-299h-221zM358 786q0 -211 121 -288v569q-121 -71 -121 -281z" />
    <glyph glyph-name="sterling" unicode="&#xa3;" horiz-adv-x="1183" 
d="M115 0v264q47 44 70.5 69.5t46.5 59.5t31.5 69t8.5 81q0 30 -8 100h-182v229h131q-31 147 -31 228q0 98 30 179.5t79 135.5t114 91.5t133 54t138 16.5q91 0 200.5 -27t167.5 -71v-285q-74 65 -151 95t-176 30q-66 0 -112.5 -17.5t-71 -48.5t-34.5 -65t-10 -76
q0 -68 39 -240h433l-58 -229h-336q4 -50 4 -72q0 -110 -32.5 -177.5t-92.5 -129.5h678l-39 -264h-970z" />
    <glyph glyph-name="currency" unicode="&#xa4;" horiz-adv-x="1044" 
d="M842 199l-170 186q-65 -35 -152 -35q-82 0 -147 35l-168 -186l-133 149l166 184q-37 82 -37 179q0 91 35 166l-164 180l133 149l160 -176q65 41 155 41q93 0 160 -43l162 180l131 -149l-166 -185q31 -88 31 -163q0 -96 -35 -174l170 -187zM401 707q0 -166 119 -166
q117 0 117 168q0 170 -117 170q-119 0 -119 -172z" />
    <glyph glyph-name="yen" unicode="&#xa5;" horiz-adv-x="1404" 
d="M541 0v168h-351l58 254h293v125h-353l58 254h194l-385 743h357l301 -655l315 655h328l-398 -743h252l-57 -254h-297v-125h354l-57 -254h-297v-168h-315z" />
    <glyph glyph-name="brokenbar" unicode="&#xa6;" horiz-adv-x="481" 
d="M352 862h-221v772h221v-772zM131 455h221v-789h-221v789z" />
    <glyph glyph-name="section" unicode="&#xa7;" horiz-adv-x="954" 
d="M102 82v246q84 -62 187.5 -96.5t193.5 -34.5q146 0 146 100q0 52 -42 82.5t-149 62.5q-187 53 -272.5 129.5t-85.5 208.5q0 172 133 269q-86 80 -86 206q0 159 110.5 253t299.5 94q172 0 276 -86v-246q-83 66 -151 93.5t-144 27.5q-162 0 -162 -107q0 -50 39.5 -80.5
t128.5 -56.5q179 -52 266 -134.5t87 -221.5q0 -167 -123 -256q98 -79 98 -220q0 -155 -104.5 -245t-274.5 -90q-97 0 -199 27.5t-172 74.5zM494 657q18 -5 49.5 -14.5t36.5 -11.5q102 57 102 141q0 55 -52 90.5t-169 67.5q-10 3 -34.5 10.5t-37.5 11.5q-119 -55 -119 -143
q0 -52 51.5 -85t172.5 -67z" />
    <glyph glyph-name="dieresis" unicode="&#xa8;" horiz-adv-x="1087" 
d="M596 1303v299h260v-299h-260zM176 1303v299h258v-299h-258z" />
    <glyph glyph-name="copyright" unicode="&#xa9;" horiz-adv-x="1556" 
d="M780 -29q-201 0 -364.5 108.5t-254.5 292.5t-91 404q0 221 91 403t254.5 288t364.5 106t364.5 -106t255 -288t91.5 -403q0 -220 -91.5 -404t-255 -292.5t-364.5 -108.5zM772 166q107 0 201 42t164 118t110.5 190t40.5 250q0 93 -19 180.5t-59.5 166.5t-98.5 137.5
t-143 93t-186 34.5q-127 0 -227.5 -52.5t-161 -140t-92 -192t-31.5 -217.5q0 -90 19.5 -177.5t61 -166t99.5 -137.5t141 -94t181 -35zM799 317q-182 0 -293 115t-111 324q0 214 116.5 342.5t307.5 128.5q127 0 228 -53v-209q-102 71 -220 71q-98 0 -153.5 -73t-55.5 -195
q0 -121 58 -185.5t162 -64.5q105 0 209 72v-209q-37 -28 -106 -46t-142 -18z" />
    <glyph glyph-name="ordfeminine" unicode="&#xaa;" horiz-adv-x="688" 
d="M399 995l-4 78q-48 -94 -145 -94q-72 0 -111 48.5t-39 115.5q0 79 55 131.5t152 52.5q49 0 82 -8q-7 42 -29 60t-65 18q-96 0 -166 -49v163q33 27 91 43.5t120 16.5q110 0 169.5 -65t59.5 -185v-203l9 -123h-179zM285 1169q0 -21 14 -35t43 -14q20 0 51 17v67
q-21 15 -45 15q-25 0 -44 -13t-19 -37zM109 778v135h475v-135h-475z" />
    <glyph glyph-name="guillemotleft" unicode="&#xab;" horiz-adv-x="966" 
d="M645 950h244l-211 -413l211 -420h-248l-219 418zM283 950h241l-211 -413l211 -420h-245l-222 418z" />
    <glyph glyph-name="logicalnot" unicode="&#xac;" horiz-adv-x="1220" 
d="M90 594v252h1012v-639h-232v387h-780z" />
    <glyph glyph-name="registered" unicode="&#xae;" horiz-adv-x="811" 
d="M408 840q-150 0 -244 108t-94 273t94.5 274t243.5 109t242 -109t93 -274t-93 -273t-242 -108zM408 936q97 0 157 75t60 212q0 135 -59.5 209.5t-159.5 74.5q-101 0 -160.5 -74.5t-59.5 -209.5q0 -138 61.5 -212.5t160.5 -74.5zM279 1038v396h116q148 0 148 -127
q0 -77 -54 -119l80 -150h-110l-62 121h-18v-121h-100zM381 1343h-2v-106q38 0 50.5 12.5t12.5 40.5t-12.5 40.5t-48.5 12.5z" />
    <glyph glyph-name="macron" unicode="&#xaf;" horiz-adv-x="905" 
d="M182 1356v209h531v-209h-531z" />
    <glyph glyph-name="degree" unicode="&#xb0;" horiz-adv-x="755" 
d="M55 1208q0 160 92 264.5t232 104.5t230.5 -105t90.5 -262t-92 -260.5t-233 -103.5q-140 0 -230 103t-90 259zM262 1214q0 -165 117 -165q115 0 115 168q0 80 -27.5 119.5t-87.5 39.5q-117 0 -117 -162z" />
    <glyph glyph-name="plusminus" unicode="&#xb1;" horiz-adv-x="1048" 
d="M94 754v250h309v362h230v-362h309v-250h-309v-371h-230v371h-309zM94 31v250h848v-250h-848z" />
    <glyph glyph-name="twosuperior" unicode="&#xb2;" horiz-adv-x="614" 
d="M53 788v125l170 170q56 54 85.5 99t29.5 102q0 54 -30.5 83.5t-82.5 29.5q-73 0 -170 -58v162q104 70 228 70q111 0 182.5 -65t71.5 -175q0 -169 -193 -332l-39 -32h266l-26 -179h-492z" />
    <glyph glyph-name="threesuperior" unicode="&#xb3;" horiz-adv-x="612" 
d="M238 780q-113 0 -181 35v160q76 -45 160 -45q62 0 101.5 27t39.5 67q0 72 -114 72h-68v141h70q43 0 67.5 23t24.5 59q0 40 -27.5 62t-77.5 22q-83 0 -176 -49v147q37 32 98.5 51t129.5 19q114 0 185 -53.5t71 -145.5q0 -109 -101 -176q117 -46 117 -168
q0 -115 -90 -181.5t-229 -66.5z" />
    <glyph glyph-name="acute" unicode="&#xb4;" horiz-adv-x="1323" 
d="M655 1260h-221l170 374h264z" />
    <glyph glyph-name="paragraph" unicode="&#xb6;" horiz-adv-x="1249" 
d="M846 1546h233v-2001h-233v2001zM743 1546v-2001h-233v1057q-200 6 -330.5 138t-130.5 341q0 206 128 335.5t339 129.5h227z" />
    <glyph glyph-name="periodcentered" unicode="&#xb7;" horiz-adv-x="475" 
d="M102 494v288h273v-288h-273z" />
    <glyph glyph-name="cedilla" unicode="&#xb8;" horiz-adv-x="978" 
d="M643 -260q0 -93 -77.5 -154t-178.5 -61q-86 0 -141 37v176q21 -13 54.5 -22t55.5 -9q36 0 58 18.5t22 55.5q0 83 -129 94l-6 39l61 139h146l-39 -108q90 -21 132 -67.5t42 -137.5z" />
    <glyph glyph-name="onesuperior" unicode="&#xb9;" horiz-adv-x="477" 
d="M375 788h-209v537l-137 -37v164l227 109h119v-773z" />
    <glyph glyph-name="ordmasculine" unicode="&#xba;" horiz-adv-x="733" 
d="M358 979q-116 0 -189 74t-73 207q0 139 73.5 225t203.5 86q113 0 186.5 -76.5t73.5 -204.5q0 -143 -72 -227t-203 -84zM365 1141q41 0 65.5 38.5t24.5 100.5q0 59 -22.5 92t-63.5 33t-67 -34t-26 -95q0 -59 25 -97t64 -38zM113 778v135h510v-135h-510z" />
    <glyph glyph-name="guillemotright" unicode="&#xbb;" horiz-adv-x="968" 
d="M78 950h244l223 -415l-219 -418h-248l211 420zM442 950h244l223 -415l-221 -418h-246l211 420z" />
    <glyph glyph-name="onequarter" unicode="&#xbc;" horiz-adv-x="1427" 
d="M418 788h-209v537l-137 -37v164l227 109h119v-773zM88 0l858 1546h228l-857 -1546h-229zM1102 0v154h-322v129l193 489h190l-178 -446h117v118l178 97v-215h76l-21 -172h-55v-154h-178z" />
    <glyph glyph-name="onehalf" unicode="&#xbd;" horiz-adv-x="1382" 
d="M412 788h-209v537l-137 -37v164l227 109h119v-773zM82 0l858 1546h227l-856 -1546h-229zM793 0v125l170 170q55 53 84.5 98.5t29.5 102.5q0 54 -30 83t-82 29q-75 0 -170 -57v162q103 69 227 69q111 0 182.5 -64.5t71.5 -174.5q0 -169 -193 -332l-39 -33h267l-27 -178
h-491z" />
    <glyph glyph-name="threequarters" unicode="&#xbe;" horiz-adv-x="1474" 
d="M270 780q-112 0 -180 35v160q76 -45 160 -45q62 0 101.5 27t39.5 67q0 72 -115 72h-67v141h70q43 0 67.5 23t24.5 59q0 40 -27.5 62t-77.5 22q-83 0 -176 -49v147q37 32 98 51t129 19q114 0 185 -53.5t71 -145.5q0 -110 -100 -176q117 -46 117 -168q0 -115 -90.5 -181.5
t-229.5 -66.5zM137 0l858 1546h228l-856 -1546h-230zM1149 0v154h-322v129l193 489h190l-178 -446h117v118l178 97v-215h76l-21 -172h-55v-154h-178z" />
    <glyph glyph-name="questiondown" unicode="&#xbf;" horiz-adv-x="909" 
d="M674 1114v-332h-291v332h291zM684 606v-71q0 -75 -36 -143t-87 -120t-102 -102.5t-87 -111.5t-36 -126q0 -66 39 -97.5t133 -31.5q88 0 164 28.5t164 94.5v-258q-67 -58 -171 -92.5t-210 -34.5q-184 0 -296 100t-112 273q0 69 20 132.5t52 112t70.5 92.5t77.5 82.5
t71 74.5t52 74.5t20 76.5v47h274z" />
    <glyph glyph-name="Agrave" unicode="&#xc0;" horiz-adv-x="1337" 
d="M776 1630h-221l-229 312h264zM2 0l485 1544h379l467 -1544h-346l-94 342h-481l-101 -342h-309zM492 612h325l-158 570z" />
    <glyph glyph-name="Aacute" unicode="&#xc1;" horiz-adv-x="1337" 
d="M774 1630h-221l186 312h262zM2 0l485 1544h379l467 -1544h-346l-94 342h-481l-101 -342h-309zM492 612h325l-158 570z" />
    <glyph glyph-name="Acircumflex" unicode="&#xc2;" horiz-adv-x="1337" 
d="M565 1952h221l209 -324h-227l-96 158l-105 -158h-229zM2 0l485 1544h379l467 -1544h-346l-94 342h-481l-101 -342h-309zM492 612h325l-158 570z" />
    <glyph glyph-name="Atilde" unicode="&#xc3;" horiz-adv-x="1337" 
d="M913 1964l95 -135q-112 -172 -232 -172q-48 0 -131 43t-135 43q-72 0 -127 -64l-92 125q122 166 235 166q42 0 87 -24t86.5 -48t76.5 -24q73 0 137 90zM2 0l485 1544h379l467 -1544h-346l-94 342h-481l-101 -342h-309zM492 612h325l-158 570z" />
    <glyph glyph-name="Adieresis" unicode="&#xc4;" horiz-adv-x="1337" 
d="M745 1649v282h263v-282h-263zM324 1649v282h258v-282h-258zM2 0l485 1544h379l467 -1544h-346l-94 342h-481l-101 -342h-309zM492 612h325l-158 570z" />
    <glyph glyph-name="Aring" unicode="&#xc5;" horiz-adv-x="1337" 
d="M438 1874q0 117 67.5 190.5t168.5 73.5q104 0 170.5 -74.5t66.5 -191.5q0 -115 -66 -188.5t-169 -73.5q-105 0 -171.5 73t-66.5 191zM594 1878q0 -21 2.5 -40t10 -42.5t25 -38t42.5 -14.5t41.5 14.5t24 37.5t10 42t2.5 39q0 18 -2.5 35.5t-9.5 41t-24.5 38t-43.5 14.5
q-25 0 -41.5 -13.5t-24 -36t-10 -40.5t-2.5 -37zM2 0l485 1544h379l467 -1544h-346l-94 342h-481l-101 -342h-309zM492 612h325l-158 570z" />
    <glyph glyph-name="AE" unicode="&#xc6;" horiz-adv-x="1769" 
d="M-10 0l641 1544h1042v-272h-594v-357h488v-268h-488v-373h611v-274h-924v344h-328l-137 -344h-311zM547 614h219v549z" />
    <glyph glyph-name="Ccedilla" unicode="&#xc7;" horiz-adv-x="1292" 
d="M977 -260q0 -93 -77.5 -154t-178.5 -61q-86 0 -141 37v176q21 -13 54.5 -22t55.5 -9q36 0 58 18.5t22 55.5q0 83 -129 94l-6 39l31 70q-282 40 -439 236t-157 521q0 248 89.5 434.5t261 290t404.5 103.5q107 0 211.5 -22t177.5 -60v-307q-74 51 -174.5 77.5t-201.5 26.5
q-209 0 -322 -132.5t-113 -377.5q0 -252 116.5 -384t328.5 -132q186 0 366 102v-288q-68 -43 -177 -70t-224 -27l-10 -30q90 -21 132 -67.5t42 -137.5z" />
    <glyph glyph-name="Egrave" unicode="&#xc8;" horiz-adv-x="1142" 
d="M770 1630h-221l-230 312h265zM141 0v1544h910v-272h-594v-357h487v-268h-487v-375h610v-272h-926z" />
    <glyph glyph-name="Eacute" unicode="&#xc9;" horiz-adv-x="1155" 
d="M727 1630h-221l186 312h262zM141 0v1544h910v-272h-594v-357h487v-268h-487v-375h610v-272h-926z" />
    <glyph glyph-name="Ecircumflex" unicode="&#xca;" horiz-adv-x="1142" 
d="M522 1952h221l209 -324h-227l-96 158l-105 -158h-229zM141 0v1544h910v-272h-594v-357h487v-268h-487v-375h610v-272h-926z" />
    <glyph glyph-name="Edieresis" unicode="&#xcb;" horiz-adv-x="1142" 
d="M700 1649v282h263v-282h-263zM279 1649v282h258v-282h-258zM141 0v1544h910v-272h-594v-357h487v-268h-487v-375h610v-272h-926z" />
    <glyph glyph-name="Igrave" unicode="&#xcc;" horiz-adv-x="598" 
d="M412 1630h-222l-229 312h264zM141 0v1546h316v-1546h-316z" />
    <glyph glyph-name="Iacute" unicode="&#xcd;" horiz-adv-x="598" 
d="M403 1630h-221l187 312h262zM141 0v1546h316v-1546h-316z" />
    <glyph glyph-name="Icircumflex" unicode="&#xce;" horiz-adv-x="598" 
d="M199 1952h221l209 -324h-228l-96 158l-104 -158h-230zM141 0v1546h316v-1546h-316z" />
    <glyph glyph-name="Idieresis" unicode="&#xcf;" horiz-adv-x="598" 
d="M385 1649v282h262v-282h-262zM-37 1649v282h258v-282h-258zM141 0v1546h316v-1546h-316z" />
    <glyph glyph-name="Eth" unicode="&#xd0;" horiz-adv-x="1458" 
d="M174 0v655h-135v242h135v647h475q134 -1 242.5 -24t202 -76.5t156.5 -137t98.5 -210.5t35.5 -291q0 -390 -185.5 -594.5t-526.5 -210.5h-498zM784 655h-297v-383h150q414 0 414 500q0 267 -97.5 383.5t-332.5 116.5h-134v-375h297v-242z" />
    <glyph glyph-name="Ntilde" unicode="&#xd1;" horiz-adv-x="1562" 
d="M1044 1964l95 -135q-112 -172 -232 -172q-49 0 -132 43t-134 43q-72 0 -127 -64l-92 125q122 166 235 166q42 0 87 -24t86.5 -48t76.5 -24q73 0 137 90zM141 0v1544h269l710 -952v952h301v-1544h-270l-707 973v-973h-303z" />
    <glyph glyph-name="Ograve" unicode="&#xd2;" horiz-adv-x="1540" 
d="M883 1630h-221l-230 312h264zM745 -25q-315 0 -495 209.5t-180 567.5q0 372 194 594.5t524 222.5q212 0 367 -95t235 -268.5t80 -406.5q0 -239 -85.5 -424.5t-251 -292.5t-388.5 -107zM772 248q170 0 261 137t91 387q0 251 -92 386.5t-262 135.5q-172 0 -264 -134.5
t-92 -383.5q0 -251 93 -389.5t265 -138.5z" />
    <glyph glyph-name="Oacute" unicode="&#xd3;" horiz-adv-x="1540" 
d="M874 1630h-221l187 312h262zM745 -25q-315 0 -495 209.5t-180 567.5q0 372 194 594.5t524 222.5q212 0 367 -95t235 -268.5t80 -406.5q0 -239 -85.5 -424.5t-251 -292.5t-388.5 -107zM772 248q170 0 261 137t91 387q0 251 -92 386.5t-262 135.5q-172 0 -264 -134.5
t-92 -383.5q0 -251 93 -389.5t265 -138.5z" />
    <glyph glyph-name="Ocircumflex" unicode="&#xd4;" horiz-adv-x="1540" 
d="M676 1952h221l209 -324h-227l-97 158l-104 -158h-229zM745 -25q-315 0 -495 209.5t-180 567.5q0 372 194 594.5t524 222.5q212 0 367 -95t235 -268.5t80 -406.5q0 -239 -85.5 -424.5t-251 -292.5t-388.5 -107zM772 248q170 0 261 137t91 387q0 251 -92 386.5t-262 135.5
q-172 0 -264 -134.5t-92 -383.5q0 -251 93 -389.5t265 -138.5z" />
    <glyph glyph-name="Otilde" unicode="&#xd5;" horiz-adv-x="1540" 
d="M1049 1964l94 -135q-112 -172 -232 -172q-49 0 -132 43t-134 43q-72 0 -127 -64l-92 125q122 166 236 166q42 0 86.5 -24t86 -48t76.5 -24q74 0 138 90zM745 -25q-315 0 -495 209.5t-180 567.5q0 372 194 594.5t524 222.5q212 0 367 -95t235 -268.5t80 -406.5
q0 -239 -85.5 -424.5t-251 -292.5t-388.5 -107zM772 248q170 0 261 137t91 387q0 251 -92 386.5t-262 135.5q-172 0 -264 -134.5t-92 -383.5q0 -251 93 -389.5t265 -138.5z" />
    <glyph glyph-name="Odieresis" unicode="&#xd6;" horiz-adv-x="1540" 
d="M858 1649v282h262v-282h-262zM436 1649v282h258v-282h-258zM745 -25q-315 0 -495 209.5t-180 567.5q0 372 194 594.5t524 222.5q212 0 367 -95t235 -268.5t80 -406.5q0 -239 -85.5 -424.5t-251 -292.5t-388.5 -107zM772 248q170 0 261 137t91 387q0 251 -92 386.5
t-262 135.5q-172 0 -264 -134.5t-92 -383.5q0 -251 93 -389.5t265 -138.5z" />
    <glyph glyph-name="multiply" unicode="&#xd7;" horiz-adv-x="935" 
d="M240 326l-166 166l235 268l-239 276l168 168l231 -262l225 256l166 -170l-233 -262l245 -277l-172 -176l-235 269z" />
    <glyph glyph-name="Oslash" unicode="&#xd8;" horiz-adv-x="1544" 
d="M74 -29l164 228q-166 211 -166 553q0 372 194.5 594.5t524.5 222.5q214 0 366 -96l70 96h248l-166 -230q164 -206 164 -540q0 -239 -85.5 -424.5t-252 -292.5t-390.5 -107q-203 0 -354 91l-67 -95h-250zM416 776q0 -166 39 -276l522 723q-83 71 -207 71
q-170 0 -262 -134.5t-92 -383.5zM772 248q171 0 262.5 137t91.5 387q0 155 -34 264l-521 -721q79 -67 201 -67z" />
    <glyph glyph-name="Ugrave" unicode="&#xd9;" 
d="M848 1630h-221l-230 312h265zM715 -23q-275 0 -431.5 150t-156.5 434v983h313v-946q0 -187 70 -268.5t221 -81.5q150 0 211.5 86t61.5 284v926h313v-921q0 -307 -158.5 -476.5t-443.5 -169.5z" />
    <glyph glyph-name="Uacute" unicode="&#xda;" 
d="M811 1630h-221l186 312h262zM715 -23q-275 0 -431.5 150t-156.5 434v983h313v-946q0 -187 70 -268.5t221 -81.5q150 0 211.5 86t61.5 284v926h313v-921q0 -307 -158.5 -476.5t-443.5 -169.5z" />
    <glyph glyph-name="Ucircumflex" unicode="&#xdb;" 
d="M610 1952h221l209 -324h-227l-96 158l-105 -158h-229zM715 -23q-275 0 -431.5 150t-156.5 434v983h313v-946q0 -187 70 -268.5t221 -81.5q150 0 211.5 86t61.5 284v926h313v-921q0 -307 -158.5 -476.5t-443.5 -169.5z" />
    <glyph glyph-name="Udieresis" unicode="&#xdc;" 
d="M784 1649v282h263v-282h-263zM362 1649v282h259v-282h-259zM715 -23q-275 0 -431.5 150t-156.5 434v983h313v-946q0 -187 70 -268.5t221 -81.5q150 0 211.5 86t61.5 284v926h313v-921q0 -307 -158.5 -476.5t-443.5 -169.5z" />
    <glyph glyph-name="Yacute" unicode="&#xdd;" horiz-adv-x="1300" 
d="M764 1630h-221l186 312h262zM492 0v602l-486 942h356l302 -626l313 626h330l-500 -938v-606h-315z" />
    <glyph glyph-name="Thorn" unicode="&#xde;" horiz-adv-x="1257" 
d="M141 0v1544h316v-190h168q101 0 185.5 -17t157.5 -56t123.5 -98.5t79.5 -150t29 -205.5q0 -108 -37 -206.5t-107.5 -177.5t-185 -126t-256.5 -47h-157v-270h-316zM565 1081h-108v-538h110q152 2 231 70t79 198t-80.5 200t-231.5 70z" />
    <glyph glyph-name="germandbls" unicode="&#xdf;" horiz-adv-x="1169" 
d="M561 1604q184 0 309 -117t125 -313q0 -218 -166 -316q132 -38 208.5 -148t76.5 -278q0 -207 -115 -328.5t-311 -121.5q-120 0 -209 38v244q90 -55 176 -55q154 0 154 219q0 283 -266 283h-43v227h47q72 0 108.5 47.5t36.5 151.5q0 107 -37.5 165t-105.5 58
q-72 0 -111 -60t-39 -159v-1141h-290v1151q0 199 129 326t323 127z" />
    <glyph glyph-name="agrave" unicode="&#xe0;" horiz-adv-x="1056" 
d="M688 1260h-219l-213 374h262zM678 0l-10 121q-47 -75 -115 -110.5t-166 -35.5q-155 0 -243.5 84.5t-88.5 233.5q0 164 112.5 259t309.5 95q99 0 180 -20v32q0 113 -44.5 158t-159.5 45q-163 0 -332 -78v271q79 40 182 62t205 22q224 0 332 -105t108 -327v-463l21 -244
h-291zM354 328q0 -55 37 -87t105 -32q87 0 161 47v178q-77 17 -129 17q-85 0 -129.5 -31.5t-44.5 -91.5z" />
    <glyph glyph-name="aacute" unicode="&#xe1;" horiz-adv-x="1056" 
d="M616 1260h-221l170 374h264zM678 0l-10 121q-47 -75 -115 -110.5t-166 -35.5q-155 0 -243.5 84.5t-88.5 233.5q0 164 112.5 259t309.5 95q99 0 180 -20v32q0 113 -44.5 158t-159.5 45q-163 0 -332 -78v271q79 40 182 62t205 22q224 0 332 -105t108 -327v-463l21 -244
h-291zM354 328q0 -55 37 -87t105 -32q87 0 161 47v178q-77 17 -129 17q-85 0 -129.5 -31.5t-44.5 -91.5z" />
    <glyph glyph-name="acircumflex" unicode="&#xe2;" horiz-adv-x="1056" 
d="M461 1651h192l224 -391h-211l-115 213l-121 -213h-211zM678 0l-10 121q-47 -75 -115 -110.5t-166 -35.5q-155 0 -243.5 84.5t-88.5 233.5q0 164 112.5 259t309.5 95q99 0 180 -20v32q0 113 -44.5 158t-159.5 45q-163 0 -332 -78v271q79 40 182 62t205 22q224 0 332 -105
t108 -327v-463l21 -244h-291zM354 328q0 -55 37 -87t105 -32q87 0 161 47v178q-77 17 -129 17q-85 0 -129.5 -31.5t-44.5 -91.5z" />
    <glyph glyph-name="atilde" unicode="&#xe3;" horiz-adv-x="1056" 
d="M801 1571l104 -139q-50 -75 -114 -121.5t-129 -46.5q-47 0 -130.5 42t-136.5 42q-72 0 -127 -64l-96 129q54 73 118 117.5t124 44.5q41 0 85.5 -24t86 -48t76.5 -24q74 0 139 92zM678 0l-10 121q-47 -75 -115 -110.5t-166 -35.5q-155 0 -243.5 84.5t-88.5 233.5
q0 164 112.5 259t309.5 95q99 0 180 -20v32q0 113 -44.5 158t-159.5 45q-163 0 -332 -78v271q79 40 182 62t205 22q224 0 332 -105t108 -327v-463l21 -244h-291zM354 328q0 -55 37 -87t105 -32q87 0 161 47v178q-77 17 -129 17q-85 0 -129.5 -31.5t-44.5 -91.5z" />
    <glyph glyph-name="adieresis" unicode="&#xe4;" horiz-adv-x="1056" 
d="M637 1303v299h260v-299h-260zM217 1303v299h258v-299h-258zM678 0l-10 121q-47 -75 -115 -110.5t-166 -35.5q-155 0 -243.5 84.5t-88.5 233.5q0 164 112.5 259t309.5 95q99 0 180 -20v32q0 113 -44.5 158t-159.5 45q-163 0 -332 -78v271q79 40 182 62t205 22
q224 0 332 -105t108 -327v-463l21 -244h-291zM354 328q0 -55 37 -87t105 -32q87 0 161 47v178q-77 17 -129 17q-85 0 -129.5 -31.5t-44.5 -91.5z" />
    <glyph glyph-name="aring" unicode="&#xe5;" horiz-adv-x="1056" 
d="M299 1485q0 117 67 190.5t169 73.5q105 0 171 -74.5t66 -191.5t-65.5 -189.5t-169.5 -72.5q-106 0 -172 72.5t-66 191.5zM455 1489q0 -21 2.5 -40t10 -42.5t25 -38t42.5 -14.5q77 0 77 133q0 125 -80 125q-77 0 -77 -123zM678 0l-10 121q-47 -75 -115 -110.5t-166 -35.5
q-155 0 -243.5 84.5t-88.5 233.5q0 164 112.5 259t309.5 95q99 0 180 -20v32q0 113 -44.5 158t-159.5 45q-163 0 -332 -78v271q79 40 182 62t205 22q224 0 332 -105t108 -327v-463l21 -244h-291zM354 328q0 -55 37 -87t105 -32q87 0 161 47v178q-77 17 -129 17
q-85 0 -129.5 -31.5t-44.5 -91.5z" />
    <glyph glyph-name="ae" unicode="&#xe6;" horiz-adv-x="1673" 
d="M1171 -20q-292 0 -419 174q-57 -84 -155 -133.5t-210 -49.5q-151 0 -241.5 90.5t-90.5 239.5q0 160 111 253t305 93q105 0 184 -24q-5 130 -51 184.5t-158 54.5q-87 0 -179.5 -27t-151.5 -75v274q67 52 172 80.5t223 28.5q223 0 324 -113q125 109 313 109
q234 0 347.5 -160t113.5 -500h-658q14 -129 77 -187.5t198 -58.5q195 0 340 74v-233q-64 -44 -172 -69t-222 -25zM1139 901q-85 0 -131 -55t-58 -172h355q-6 120 -44 173.5t-122 53.5zM356 328q0 -52 32 -80.5t95 -28.5q118 0 195 90q-15 53 -21 117q-61 18 -135 18
q-85 0 -125.5 -28t-40.5 -88z" />
    <glyph glyph-name="ccedilla" unicode="&#xe7;" horiz-adv-x="919" 
d="M817 -260q0 -93 -77.5 -154t-178.5 -61q-86 0 -141 37v176q21 -13 54.5 -22t55.5 -9q36 0 58 18.5t22 55.5q0 83 -129 94l-6 39l31 68q-222 19 -335.5 158.5t-113.5 394.5q0 283 141 443.5t404 160.5q149 0 246 -47v-261q-94 50 -211 50q-279 0 -279 -320
q0 -165 72 -247.5t223 -82.5q98 0 191 41v-235q-78 -44 -187 -53l-14 -39q90 -21 132 -67.5t42 -137.5z" />
    <glyph glyph-name="egrave" unicode="&#xe8;" horiz-adv-x="1071" 
d="M678 1260h-219l-213 374h262zM580 -20q-263 0 -393 140.5t-130 411.5q0 282 130 444.5t366 162.5q234 0 347.5 -160t113.5 -500h-656q12 -129 75 -187.5t198 -58.5q195 0 340 74v-233q-66 -45 -172.5 -69.5t-218.5 -24.5zM545 901q-84 0 -129.5 -55t-57.5 -172h353
q-6 121 -43.5 174t-122.5 53z" />
    <glyph glyph-name="eacute" unicode="&#xe9;" horiz-adv-x="1071" 
d="M655 1260h-221l170 374h264zM580 -20q-263 0 -393 140.5t-130 411.5q0 282 130 444.5t366 162.5q234 0 347.5 -160t113.5 -500h-656q12 -129 75 -187.5t198 -58.5q195 0 340 74v-233q-66 -45 -172.5 -69.5t-218.5 -24.5zM545 901q-84 0 -129.5 -55t-57.5 -172h353
q-6 121 -43.5 174t-122.5 53z" />
    <glyph glyph-name="ecircumflex" unicode="&#xea;" horiz-adv-x="1071" 
d="M469 1651h193l223 -391h-211l-115 213l-121 -213h-211zM580 -20q-263 0 -393 140.5t-130 411.5q0 282 130 444.5t366 162.5q234 0 347.5 -160t113.5 -500h-656q12 -129 75 -187.5t198 -58.5q195 0 340 74v-233q-66 -45 -172.5 -69.5t-218.5 -24.5zM545 901
q-84 0 -129.5 -55t-57.5 -172h353q-6 121 -43.5 174t-122.5 53z" />
    <glyph glyph-name="edieresis" unicode="&#xeb;" horiz-adv-x="1071" 
d="M655 1303v299h260v-299h-260zM236 1303v299h258v-299h-258zM580 -20q-263 0 -393 140.5t-130 411.5q0 282 130 444.5t366 162.5q234 0 347.5 -160t113.5 -500h-656q12 -129 75 -187.5t198 -58.5q195 0 340 74v-233q-66 -45 -172.5 -69.5t-218.5 -24.5zM545 901
q-84 0 -129.5 -55t-57.5 -172h353q-6 121 -43.5 174t-122.5 53z" />
    <glyph glyph-name="igrave" unicode="&#xec;" horiz-adv-x="505" 
d="M362 1260h-219l-213 374h263zM397 0h-288v1114h288v-1114z" />
    <glyph glyph-name="iacute" unicode="&#xed;" horiz-adv-x="509" 
d="M375 1260h-221l170 374h264zM399 0h-288v1114h288v-1114z" />
    <glyph glyph-name="icircumflex" unicode="&#xee;" horiz-adv-x="505" 
d="M174 1651h193l223 -391h-211l-115 213l-121 -213h-211zM397 0h-288v1114h288v-1114z" />
    <glyph glyph-name="idieresis" unicode="&#xef;" horiz-adv-x="505" 
d="M342 1303v299h260v-299h-260zM-78 1303v299h258v-299h-258zM397 0h-288v1114h288v-1114z" />
    <glyph glyph-name="eth" unicode="&#xf0;" horiz-adv-x="1157" 
d="M569 -29q-229 0 -369.5 148t-140.5 418q0 175 62 311.5t183.5 215.5t285.5 79q33 0 63 -6q-41 67 -82 116l-178 -102l-84 164l127 74q-45 40 -114 92l131 159q98 -62 180 -139l176 103l84 -164l-125 -72q149 -171 237.5 -375t88.5 -420q0 -273 -141.5 -437.5
t-383.5 -164.5zM582 895q-103 0 -160 -92.5t-57 -247.5q0 -153 55 -247.5t160 -94.5q103 0 154.5 94.5t51.5 253.5v2q-2 157 -51.5 244.5t-152.5 87.5z" />
    <glyph glyph-name="ntilde" unicode="&#xf1;" horiz-adv-x="1140" 
d="M860 1571l105 -139q-50 -75 -114.5 -121.5t-129.5 -46.5q-47 0 -130 42t-136 42q-72 0 -127 -64l-97 129q54 73 118 117.5t124 44.5q41 0 85.5 -24t86 -48t76.5 -24q74 0 139 92zM416 0h-289v809l-41 305h285l22 -117q149 142 336 142q145 0 234.5 -94t89.5 -289v-756
h-291v651q0 119 -39 169t-123 50q-99 0 -184 -63v-807z" />
    <glyph glyph-name="ograve" unicode="&#xf2;" horiz-adv-x="1153" 
d="M676 1260h-219l-213 374h262zM567 -25q-111 0 -204 36.5t-161.5 105.5t-106.5 176t-38 242q0 177 62.5 312.5t184 213.5t286.5 78q226 0 365 -146.5t139 -419.5t-142 -435.5t-385 -162.5zM578 211q106 0 163.5 93.5t57.5 256.5t-55.5 249.5t-161.5 86.5
q-109 0 -168.5 -84t-59.5 -258q0 -159 59 -251.5t165 -92.5z" />
    <glyph glyph-name="oacute" unicode="&#xf3;" horiz-adv-x="1153" 
d="M678 1260h-221l170 374h264zM567 -25q-111 0 -204 36.5t-161.5 105.5t-106.5 176t-38 242q0 177 62.5 312.5t184 213.5t286.5 78q226 0 365 -146.5t139 -419.5t-142 -435.5t-385 -162.5zM578 211q106 0 163.5 93.5t57.5 256.5t-55.5 249.5t-161.5 86.5q-109 0 -168.5 -84
t-59.5 -258q0 -159 59 -251.5t165 -92.5z" />
    <glyph glyph-name="ocircumflex" unicode="&#xf4;" horiz-adv-x="1153" 
d="M496 1651h192l223 -391h-211l-114 213l-121 -213h-211zM567 -25q-111 0 -204 36.5t-161.5 105.5t-106.5 176t-38 242q0 177 62.5 312.5t184 213.5t286.5 78q226 0 365 -146.5t139 -419.5t-142 -435.5t-385 -162.5zM578 211q106 0 163.5 93.5t57.5 256.5t-55.5 249.5
t-161.5 86.5q-109 0 -168.5 -84t-59.5 -258q0 -159 59 -251.5t165 -92.5z" />
    <glyph glyph-name="otilde" unicode="&#xf5;" horiz-adv-x="1153" 
d="M854 1571l104 -139q-50 -75 -114 -121.5t-129 -46.5q-47 0 -130 42t-136 42q-72 0 -127 -64l-97 129q54 73 118 117.5t124 44.5q41 0 85.5 -24t86 -48t76.5 -24q74 0 139 92zM567 -25q-111 0 -204 36.5t-161.5 105.5t-106.5 176t-38 242q0 177 62.5 312.5t184 213.5
t286.5 78q226 0 365 -146.5t139 -419.5t-142 -435.5t-385 -162.5zM578 211q106 0 163.5 93.5t57.5 256.5t-55.5 249.5t-161.5 86.5q-109 0 -168.5 -84t-59.5 -258q0 -159 59 -251.5t165 -92.5z" />
    <glyph glyph-name="odieresis" unicode="&#xf6;" horiz-adv-x="1153" 
d="M666 1303v299h260v-299h-260zM246 1303v299h258v-299h-258zM567 -25q-111 0 -204 36.5t-161.5 105.5t-106.5 176t-38 242q0 177 62.5 312.5t184 213.5t286.5 78q226 0 365 -146.5t139 -419.5t-142 -435.5t-385 -162.5zM578 211q106 0 163.5 93.5t57.5 256.5t-55.5 249.5
t-161.5 86.5q-109 0 -168.5 -84t-59.5 -258q0 -159 59 -251.5t165 -92.5z" />
    <glyph glyph-name="divide" unicode="&#xf7;" horiz-adv-x="993" 
d="M377 1014v256h241v-256h-241zM74 649v250h848v-250h-848zM377 274v256h241v-256h-241z" />
    <glyph glyph-name="oslash" unicode="&#xf8;" horiz-adv-x="1157" 
d="M70 -25l125 170q-121 143 -121 392q0 175 62 310.5t184 213.5t286 78q151 0 266 -68l50 68h192l-123 -168q119 -147 119 -398q0 -272 -141 -435t-385 -163q-156 0 -271 68l-49 -68h-194zM371 557q0 -77 16 -149l330 450q-48 39 -119 39q-109 0 -168 -84.5t-59 -255.5z
M594 211q106 0 163.5 93.5t57.5 256.5q0 88 -14 148l-332 -453q51 -45 125 -45z" />
    <glyph glyph-name="ugrave" unicode="&#xf9;" horiz-adv-x="1138" 
d="M670 1260h-219l-213 374h262zM100 1114h291v-649q0 -121 39.5 -171t122.5 -50q97 0 180 59v811h291v-809l41 -305h-285l-22 115q-147 -140 -334 -140q-146 0 -235 95t-89 290v754z" />
    <glyph glyph-name="uacute" unicode="&#xfa;" horiz-adv-x="1138" 
d="M690 1260h-221l170 374h264zM100 1114h291v-649q0 -121 39.5 -171t122.5 -50q97 0 180 59v811h291v-809l41 -305h-285l-22 115q-147 -140 -334 -140q-146 0 -235 95t-89 290v754z" />
    <glyph glyph-name="ucircumflex" unicode="&#xfb;" horiz-adv-x="1138" 
d="M477 1651h193l223 -391h-211l-115 213l-121 -213h-210zM100 1114h291v-649q0 -121 39.5 -171t122.5 -50q97 0 180 59v811h291v-809l41 -305h-285l-22 115q-147 -140 -334 -140q-146 0 -235 95t-89 290v754z" />
    <glyph glyph-name="udieresis" unicode="&#xfc;" horiz-adv-x="1138" 
d="M639 1303v299h260v-299h-260zM219 1303v299h258v-299h-258zM100 1114h291v-649q0 -121 39.5 -171t122.5 -50q97 0 180 59v811h291v-809l41 -305h-285l-22 115q-147 -140 -334 -140q-146 0 -235 95t-89 290v754z" />
    <glyph glyph-name="yacute" unicode="&#xfd;" horiz-adv-x="1042" 
d="M664 1260h-222l170 374h265zM500 -455h-283l170 453l-375 1116h314l206 -745l224 745h282z" />
    <glyph glyph-name="thorn" unicode="&#xfe;" horiz-adv-x="1159" 
d="M397 -455h-288v2048h288v-587q111 133 293 133q194 0 304 -145t110 -427q0 -276 -112.5 -433t-309.5 -157q-174 0 -285 117v-549zM586 899q-113 0 -189 -125v-452q76 -111 185 -111q215 0 215 352q0 336 -211 336z" />
    <glyph glyph-name="ydieresis" unicode="&#xff;" horiz-adv-x="1042" 
d="M635 1303v299h260v-299h-260zM215 1303v299h258v-299h-258zM500 -455h-283l170 453l-375 1116h314l206 -745l224 745h282z" />
    <glyph glyph-name="Amacron" unicode="&#x100;" horiz-adv-x="1337" 
d="M383 1655v217h563v-217h-563zM2 0l485 1544h379l467 -1544h-346l-94 342h-481l-101 -342h-309zM492 612h325l-158 570z" />
    <glyph glyph-name="amacron" unicode="&#x101;" horiz-adv-x="1056" 
d="M289 1356v209h530v-209h-530zM678 0l-10 121q-47 -75 -115 -110.5t-166 -35.5q-155 0 -243.5 84.5t-88.5 233.5q0 164 112.5 259t309.5 95q99 0 180 -20v32q0 113 -44.5 158t-159.5 45q-163 0 -332 -78v271q79 40 182 62t205 22q224 0 332 -105t108 -327v-463l21 -244
h-291zM354 328q0 -55 37 -87t105 -32q87 0 161 47v178q-77 17 -129 17q-85 0 -129.5 -31.5t-44.5 -91.5z" />
    <glyph glyph-name="Abreve" unicode="&#x102;" horiz-adv-x="1337" 
d="M668 1626q-139 0 -216.5 78t-97.5 215h185q4 -49 42 -72.5t89 -23.5q50 0 86 24.5t43 71.5h174q-18 -140 -94 -216.5t-211 -76.5zM2 0l485 1544h379l467 -1544h-346l-94 342h-481l-101 -342h-309zM492 612h325l-158 570z" />
    <glyph glyph-name="abreve" unicode="&#x103;" horiz-adv-x="1056" 
d="M543 1262q-137 0 -215.5 82.5t-96.5 220.5h209q3 -53 31.5 -81t75.5 -28q45 0 71.5 29t34.5 80h195q-15 -141 -93 -222t-212 -81zM678 0l-10 121q-47 -75 -115 -110.5t-166 -35.5q-155 0 -243.5 84.5t-88.5 233.5q0 164 112.5 259t309.5 95q99 0 180 -20v32
q0 113 -44.5 158t-159.5 45q-163 0 -332 -78v271q79 40 182 62t205 22q224 0 332 -105t108 -327v-463l21 -244h-291zM354 328q0 -55 37 -87t105 -32q87 0 161 47v178q-77 17 -129 17q-85 0 -129.5 -31.5t-44.5 -91.5z" />
    <glyph glyph-name="Aogonek" unicode="&#x104;" horiz-adv-x="1337" 
d="M2 0l485 1544h379l467 -1544h-61q-53 -47 -89 -101.5t-36 -95.5q0 -51 40.5 -70.5t123.5 7.5v-199q-72 -21 -138.5 -16.5t-117.5 27t-81 70.5t-30 114q0 132 150 264h-107l-94 342h-481l-101 -342h-309zM492 612h325l-158 570z" />
    <glyph glyph-name="aogonek" unicode="&#x105;" horiz-adv-x="1056" 
d="M950 -260v-199q-99 -23 -180.5 -12.5t-133.5 65.5t-52 142q0 133 149 264h-55l-10 121q-47 -75 -115 -110.5t-166 -35.5q-155 0 -243.5 84.5t-88.5 233.5q0 164 112.5 259t309.5 95q99 0 180 -20v32q0 113 -44.5 158t-159.5 45q-163 0 -332 -78v271q79 40 182 62t205 22
q224 0 332 -105t108 -327v-463l21 -244h-58q-53 -47 -89 -101.5t-36 -95.5q0 -51 40.5 -70.5t123.5 7.5zM354 328q0 -55 37 -87t105 -32q87 0 161 47v178q-77 17 -129 17q-85 0 -129.5 -31.5t-44.5 -91.5z" />
    <glyph glyph-name="Cacute" unicode="&#x106;" horiz-adv-x="1292" 
d="M860 1630h-221l186 312h262zM803 -25q-342 0 -537.5 201t-195.5 565q0 248 89.5 434.5t261 290t404.5 103.5q107 0 211.5 -22t177.5 -60v-307q-74 51 -174.5 77.5t-201.5 26.5q-209 0 -322 -132.5t-113 -377.5q0 -252 116.5 -384t328.5 -132q186 0 366 102v-288
q-69 -43 -179 -70t-232 -27z" />
    <glyph glyph-name="cacute" unicode="&#x107;" horiz-adv-x="919" 
d="M647 1260h-221l170 374h264zM571 -20q-254 0 -384 140.5t-130 414.5q0 283 141 443.5t404 160.5q149 0 246 -47v-261q-94 50 -211 50q-279 0 -279 -320q0 -165 72 -247.5t223 -82.5q98 0 191 41v-235q-102 -57 -273 -57z" />
    <glyph glyph-name="Ccircumflex" unicode="&#x108;" horiz-adv-x="1292" 
d="M672 1952h221l209 -324h-228l-96 158l-104 -158h-230zM803 -25q-342 0 -537.5 201t-195.5 565q0 248 89.5 434.5t261 290t404.5 103.5q107 0 211.5 -22t177.5 -60v-307q-74 51 -174.5 77.5t-201.5 26.5q-209 0 -322 -132.5t-113 -377.5q0 -252 116.5 -384t328.5 -132
q186 0 366 102v-288q-69 -43 -179 -70t-232 -27z" />
    <glyph glyph-name="ccircumflex" unicode="&#x109;" horiz-adv-x="919" 
d="M465 1651h192l224 -391h-211l-115 213l-121 -213h-211zM571 -20q-254 0 -384 140.5t-130 414.5q0 283 141 443.5t404 160.5q149 0 246 -47v-261q-94 50 -211 50q-279 0 -279 -320q0 -165 72 -247.5t223 -82.5q98 0 191 41v-235q-102 -57 -273 -57z" />
    <glyph glyph-name="Cdotaccent" unicode="&#x10a;" horiz-adv-x="1292" 
d="M635 1642v308h285v-308h-285zM803 -25q-342 0 -537.5 201t-195.5 565q0 248 89.5 434.5t261 290t404.5 103.5q107 0 211.5 -22t177.5 -60v-307q-74 51 -174.5 77.5t-201.5 26.5q-209 0 -322 -132.5t-113 -377.5q0 -252 116.5 -384t328.5 -132q186 0 366 102v-288
q-69 -43 -179 -70t-232 -27z" />
    <glyph glyph-name="cdotaccent" unicode="&#x10b;" horiz-adv-x="919" 
d="M416 1335v307h284v-307h-284zM571 -20q-254 0 -384 140.5t-130 414.5q0 283 141 443.5t404 160.5q149 0 246 -47v-261q-94 50 -211 50q-279 0 -279 -320q0 -165 72 -247.5t223 -82.5q98 0 191 41v-235q-102 -57 -273 -57z" />
    <glyph glyph-name="Ccaron" unicode="&#x10c;" horiz-adv-x="1292" 
d="M891 1626h-223l-215 324h229l102 -156l99 156h227zM803 -25q-342 0 -537.5 201t-195.5 565q0 248 89.5 434.5t261 290t404.5 103.5q107 0 211.5 -22t177.5 -60v-307q-74 51 -174.5 77.5t-201.5 26.5q-209 0 -322 -132.5t-113 -377.5q0 -252 116.5 -384t328.5 -132
q186 0 366 102v-288q-69 -43 -179 -70t-232 -27z" />
    <glyph glyph-name="ccaron" unicode="&#x10d;" horiz-adv-x="919" 
d="M657 1260h-190l-229 391h211l118 -213l117 213h211zM571 -20q-254 0 -384 140.5t-130 414.5q0 283 141 443.5t404 160.5q149 0 246 -47v-261q-94 50 -211 50q-279 0 -279 -320q0 -165 72 -247.5t223 -82.5q98 0 191 41v-235q-102 -57 -273 -57z" />
    <glyph glyph-name="Dcaron" unicode="&#x10e;" horiz-adv-x="1425" 
d="M756 1626h-224l-215 324h230l102 -156l99 156h227zM141 0v1544h477q134 -1 242.5 -23.5t202 -76t156.5 -137t99 -210.5t36 -292q0 -391 -185.5 -595t-527.5 -210h-500zM590 1272h-133v-1000h149q414 0 414 500q0 267 -98 383.5t-332 116.5z" />
    <glyph glyph-name="dcaron" unicode="&#x10f;" horiz-adv-x="1200" 
d="M774 1593h289v-1593h-244l-22 121q-135 -144 -328 -144q-196 0 -304 145t-108 406q0 285 129.5 448t345.5 163q146 0 242 -86v540zM1122 1180l43 413h242l-125 -413h-160zM367 561q0 -350 206 -350q112 0 201 102v510q-82 76 -186 76q-115 0 -168 -84t-53 -254z" />
    <glyph glyph-name="Dcroat" unicode="&#x110;" horiz-adv-x="1443" 
d="M174 0v655h-135v242h135v647h475q134 -1 242.5 -24t202 -76.5t156.5 -137t98.5 -210.5t35.5 -291q0 -390 -185.5 -594.5t-526.5 -210.5h-498zM784 655h-297v-383h150q414 0 414 500q0 267 -97.5 383.5t-332.5 116.5h-134v-375h297v-242z" />
    <glyph glyph-name="dcroat" unicode="&#x111;" horiz-adv-x="1175" 
d="M477 1260v202h297v131h289v-131h104v-202h-104v-1260h-244l-22 121q-64 -69 -142 -106.5t-186 -37.5q-197 0 -304.5 147t-107.5 408q0 283 127.5 444t343.5 161q153 0 246 -84v207h-297zM367 559q0 -173 52.5 -260.5t151.5 -87.5q111 0 203 102v510q-82 76 -192 76
q-215 0 -215 -340z" />
    <glyph glyph-name="Emacron" unicode="&#x112;" horiz-adv-x="1142" 
d="M342 1655v217h563v-217h-563zM141 0v1544h910v-272h-594v-357h487v-268h-487v-375h610v-272h-926z" />
    <glyph glyph-name="emacron" unicode="&#x113;" horiz-adv-x="1071" 
d="M297 1356v209h530v-209h-530zM580 -20q-263 0 -393 140.5t-130 411.5q0 282 130 444.5t366 162.5q234 0 347.5 -160t113.5 -500h-656q12 -129 75 -187.5t198 -58.5q195 0 340 74v-233q-66 -45 -172.5 -69.5t-218.5 -24.5zM545 901q-84 0 -129.5 -55t-57.5 -172h353
q-6 121 -43.5 174t-122.5 53z" />
    <glyph glyph-name="Ebreve" unicode="&#x114;" horiz-adv-x="1142" 
d="M627 1626q-139 0 -216.5 78t-97.5 215h185q4 -49 42 -72.5t89 -23.5q50 0 86 24.5t43 71.5h174q-18 -140 -94 -216.5t-211 -76.5zM141 0v1544h910v-272h-594v-357h487v-268h-487v-375h610v-272h-926z" />
    <glyph glyph-name="ebreve" unicode="&#x115;" horiz-adv-x="1071" 
d="M563 1262q-136 0 -214.5 82.5t-96.5 220.5h209q3 -53 31 -81t75 -28q45 0 72 29t35 80h194q-15 -141 -93 -222t-212 -81zM580 -20q-263 0 -393 140.5t-130 411.5q0 282 130 444.5t366 162.5q234 0 347.5 -160t113.5 -500h-656q12 -129 75 -187.5t198 -58.5q195 0 340 74
v-233q-66 -45 -172.5 -69.5t-218.5 -24.5zM545 901q-84 0 -129.5 -55t-57.5 -172h353q-6 121 -43.5 174t-122.5 53z" />
    <glyph glyph-name="Edotaccent" unicode="&#x116;" horiz-adv-x="1142" 
d="M485 1642v308h285v-308h-285zM141 0v1544h910v-272h-594v-357h487v-268h-487v-375h610v-272h-926z" />
    <glyph glyph-name="edotaccent" unicode="&#x117;" horiz-adv-x="1071" 
d="M410 1335v307h284v-307h-284zM580 -20q-263 0 -393 140.5t-130 411.5q0 282 130 444.5t366 162.5q234 0 347.5 -160t113.5 -500h-656q12 -129 75 -187.5t198 -58.5q195 0 340 74v-233q-66 -45 -172.5 -69.5t-218.5 -24.5zM545 901q-84 0 -129.5 -55t-57.5 -172h353
q-6 121 -43.5 174t-122.5 53z" />
    <glyph glyph-name="Eogonek" unicode="&#x118;" horiz-adv-x="1142" 
d="M141 0v1544h910v-272h-594v-357h487v-268h-487v-375h610v-272h-66q-52 -47 -88 -101.5t-36 -95.5q0 -51 40 -70.5t123 7.5v-199q-99 -23 -180.5 -12.5t-133.5 65.5t-52 142q0 133 149 264h-682z" />
    <glyph glyph-name="eogonek" unicode="&#x119;" horiz-adv-x="1073" 
d="M580 -20q-263 0 -393 140.5t-130 411.5q0 282 130 444.5t366 162.5q234 0 347.5 -160t113.5 -500h-656q12 -129 75 -187.5t198 -58.5q195 0 340 74v-233q-55 -35 -115 -54q-47 -45 -77.5 -94.5t-30.5 -87.5q0 -51 40 -70.5t123 7.5v-199q-99 -23 -180.5 -12.5
t-133.5 65.5t-52 142q0 107 94 211q-20 -2 -59 -2zM545 901q-84 0 -129.5 -55t-57.5 -172h353q-6 121 -43.5 174t-122.5 53z" />
    <glyph glyph-name="Ecaron" unicode="&#x11a;" horiz-adv-x="1142" 
d="M737 1626h-223l-215 324h229l103 -156l98 156h227zM141 0v1544h910v-272h-594v-357h487v-268h-487v-375h610v-272h-926z" />
    <glyph glyph-name="ecaron" unicode="&#x11b;" horiz-adv-x="1071" 
d="M655 1260h-190l-229 391h210l119 -213l117 213h211zM580 -20q-263 0 -393 140.5t-130 411.5q0 282 130 444.5t366 162.5q234 0 347.5 -160t113.5 -500h-656q12 -129 75 -187.5t198 -58.5q195 0 340 74v-233q-66 -45 -172.5 -69.5t-218.5 -24.5zM545 901q-84 0 -129.5 -55
t-57.5 -172h353q-6 121 -43.5 174t-122.5 53z" />
    <glyph glyph-name="Gcircumflex" unicode="&#x11c;" horiz-adv-x="1415" 
d="M727 1952h221l209 -324h-227l-96 158l-105 -158h-229zM793 -25q-345 0 -534 201t-189 567q0 384 205.5 605t564.5 221q254 0 434 -94v-312q-93 63 -206 96t-222 33q-202 0 -323.5 -134.5t-121.5 -381.5q0 -243 113 -386.5t320 -143.5q91 0 170 16v356h-220v263h533v-789
q-101 -55 -238 -86t-286 -31z" />
    <glyph glyph-name="gcircumflex" unicode="&#x11d;" horiz-adv-x="1187" 
d="M537 1651h192l223 -391h-211l-114 213l-121 -213h-211zM1063 815v-782q0 -241 -147 -374.5t-402 -133.5q-197 0 -346 76v264q158 -88 315 -88q291 0 291 239v86q-131 -125 -305 -125q-196 0 -304 145t-108 410q0 282 123.5 444.5t339.5 162.5q174 0 281 -119l18 94h283z
M367 561q0 -350 206 -350q112 0 201 102v508q-81 78 -186 78q-116 0 -168.5 -83t-52.5 -255z" />
    <glyph glyph-name="Gbreve" unicode="&#x11e;" horiz-adv-x="1415" 
d="M803 1626q-139 0 -216.5 78t-97.5 215h185q4 -49 42 -72.5t89 -23.5q50 0 86 24.5t43 71.5h174q-18 -140 -94 -216.5t-211 -76.5zM793 -25q-345 0 -534 201t-189 567q0 384 205.5 605t564.5 221q254 0 434 -94v-312q-93 63 -206 96t-222 33q-202 0 -323.5 -134.5
t-121.5 -381.5q0 -243 113 -386.5t320 -143.5q91 0 170 16v356h-220v263h533v-789q-101 -55 -238 -86t-286 -31z" />
    <glyph glyph-name="gbreve" unicode="&#x11f;" horiz-adv-x="1187" 
d="M614 1262q-136 0 -214.5 82.5t-96.5 220.5h209q3 -53 31 -81t75 -28q45 0 72 29t35 80h195q-15 -141 -93.5 -222t-212.5 -81zM1063 815v-782q0 -241 -147 -374.5t-402 -133.5q-197 0 -346 76v264q158 -88 315 -88q291 0 291 239v86q-131 -125 -305 -125q-196 0 -304 145
t-108 410q0 282 123.5 444.5t339.5 162.5q174 0 281 -119l18 94h283zM367 561q0 -350 206 -350q112 0 201 102v508q-81 78 -186 78q-116 0 -168.5 -83t-52.5 -255z" />
    <glyph glyph-name="Gdotaccent" unicode="&#x120;" horiz-adv-x="1415" 
d="M657 1642v308h285v-308h-285zM793 -25q-345 0 -534 201t-189 567q0 384 205.5 605t564.5 221q254 0 434 -94v-312q-93 63 -206 96t-222 33q-202 0 -323.5 -134.5t-121.5 -381.5q0 -243 113 -386.5t320 -143.5q91 0 170 16v356h-220v263h533v-789q-101 -55 -238 -86
t-286 -31z" />
    <glyph glyph-name="gdotaccent" unicode="&#x121;" horiz-adv-x="1187" 
d="M485 1335v307h285v-307h-285zM1063 815v-782q0 -241 -147 -374.5t-402 -133.5q-197 0 -346 76v264q158 -88 315 -88q291 0 291 239v86q-131 -125 -305 -125q-196 0 -304 145t-108 410q0 282 123.5 444.5t339.5 162.5q174 0 281 -119l18 94h283zM367 561q0 -350 206 -350
q112 0 201 102v508q-81 78 -186 78q-116 0 -168.5 -83t-52.5 -255z" />
    <glyph glyph-name="Gcedilla" unicode="&#x122;" horiz-adv-x="1415" 
d="M793 -25q-345 0 -534 201t-189 567q0 384 205.5 605t564.5 221q254 0 434 -94v-312q-93 63 -206 96t-222 33q-202 0 -323.5 -134.5t-121.5 -381.5q0 -243 113 -386.5t320 -143.5q91 0 170 16v356h-220v263h533v-789q-101 -55 -238 -86t-286 -31zM793 -475h-189
q80 141 80 293v80h207v-45q0 -191 -98 -328z" />
    <glyph glyph-name="gcedilla" unicode="&#x123;" horiz-adv-x="1179" 
d="M578 1618h188q-80 -141 -80 -293v-80h-207v45q0 190 99 328zM1063 815v-782q0 -241 -147 -374.5t-402 -133.5q-197 0 -346 76v264q158 -88 315 -88q291 0 291 239v86q-131 -125 -305 -125q-196 0 -304 145t-108 410q0 282 123.5 444.5t339.5 162.5q174 0 281 -119l18 94
h283zM367 561q0 -350 206 -350q112 0 201 102v508q-81 78 -186 78q-116 0 -168.5 -83t-52.5 -255z" />
    <glyph glyph-name="Hcircumflex" unicode="&#x124;" horiz-adv-x="1531" 
d="M653 1952h221l209 -324h-227l-96 158l-105 -158h-229zM457 1544v-626h618v626h316v-1544h-316v639h-618v-639h-316v1544h316z" />
    <glyph glyph-name="hcircumflex" unicode="&#x125;" horiz-adv-x="1134" 
d="M160 1952h221l209 -324h-228l-96 158l-104 -158h-230zM745 651q0 118 -39.5 168.5t-121.5 50.5q-97 0 -183 -61v-809h-290v1593h290v-573q139 119 310 119q145 0 235 -94t90 -289v-756h-291v651z" />
    <glyph glyph-name="Hbar" unicode="&#x126;" horiz-adv-x="1540" 
d="M61 1124v211h82v209h314v-209h618v209h316v-209h84v-211h-84v-1124h-316v639h-618v-639h-314v1124h-82zM457 918h618v206h-618v-206z" />
    <glyph glyph-name="hbar" unicode="&#x127;" horiz-adv-x="1134" 
d="M395 0h-289v1247h-102v191h102v155h289v-155h287v-191h-287v-229q138 121 312 121q145 0 234 -94t89 -289v-756h-289v651q0 119 -39.5 169t-123.5 50q-98 0 -183 -63v-807z" />
    <glyph glyph-name="Itilde" unicode="&#x128;" horiz-adv-x="598" 
d="M565 1964l94 -135q-112 -172 -231 -172q-48 0 -131.5 43t-134.5 43q-72 0 -127 -64l-92 125q122 166 235 166q42 0 87 -24t86.5 -48t76.5 -24q73 0 137 90zM141 0v1546h316v-1546h-316z" />
    <glyph glyph-name="itilde" unicode="&#x129;" horiz-adv-x="505" 
d="M535 1571l104 -139q-50 -75 -114.5 -121.5t-129.5 -46.5q-47 0 -130 42t-136 42q-72 0 -127 -64l-96 129q54 73 117.5 117.5t123.5 44.5q41 0 85.5 -24t86 -48t76.5 -24q75 0 140 92zM397 0h-288v1114h288v-1114z" />
    <glyph glyph-name="Imacron" unicode="&#x12a;" horiz-adv-x="598" 
d="M78 1655v217h422v-217h-422zM141 0v1546h316v-1546h-316z" />
    <glyph glyph-name="imacron" unicode="&#x12b;" horiz-adv-x="505" 
d="M63 1356v209h398v-209h-398zM397 0h-288v1114h288v-1114z" />
    <glyph glyph-name="Ibreve" unicode="&#x12c;" horiz-adv-x="598" 
d="M289 1626q-139 0 -216.5 78t-97.5 215h185q4 -49 42 -72.5t89 -23.5q50 0 86 24.5t43 71.5h174q-18 -140 -94 -216.5t-211 -76.5zM141 0v1546h316v-1546h-316z" />
    <glyph glyph-name="ibreve" unicode="&#x12d;" horiz-adv-x="505" 
d="M254 1262q-136 0 -214.5 82.5t-96.5 220.5h209q3 -53 31 -81t75 -28q45 0 72 29t35 80h194q-15 -141 -93 -222t-212 -81zM397 0h-288v1114h288v-1114z" />
    <glyph glyph-name="Iogonek" unicode="&#x12e;" horiz-adv-x="598" 
d="M141 0v1546h316v-1546h-60q-53 -47 -89 -101.5t-36 -95.5q0 -51 40.5 -70.5t123.5 7.5v-199q-99 -23 -180.5 -12.5t-133.5 65.5t-52 142q0 133 149 264h-78z" />
    <glyph glyph-name="iogonek" unicode="&#x12f;" horiz-adv-x="505" 
d="M410 1280h-301v309h301v-309zM403 0h-53q-53 -47 -89 -101.5t-36 -95.5q0 -51 40.5 -70.5t123.5 7.5v-199q-99 -23 -180.5 -12.5t-133.5 65.5t-52 142q0 133 149 264h-57v1114h288v-1114z" />
    <glyph glyph-name="Idotaccent" unicode="&#x130;" horiz-adv-x="598" 
d="M154 1642v308h284v-308h-284zM141 0v1546h316v-1546h-316z" />
    <glyph glyph-name="dotlessi" unicode="&#x131;" horiz-adv-x="507" 
d="M397 0h-288v1114h288v-1114z" />
    <glyph glyph-name="IJ" unicode="&#x132;" horiz-adv-x="1550" 
d="M141 0v1546h316v-1546h-316zM625 18v277q96 -47 217 -47q131 0 178 74t47 262v960h315v-1050q0 -258 -129 -390.5t-387 -132.5q-134 0 -241 47z" />
    <glyph glyph-name="ij" unicode="&#x133;" horiz-adv-x="1028" 
d="M410 1280h-301v309h301v-309zM918 1280h-302v309h302v-309zM403 0h-288v1114h288v-1114zM909 1114v-1139q0 -213 -93 -331.5t-294 -118.5q-132 0 -225 51v236q92 -45 188 -45q72 0 104 44t32 142v1161h288z" />
    <glyph glyph-name="Jcircumflex" unicode="&#x134;" horiz-adv-x="942" 
d="M543 1952h221l209 -324h-228l-96 158l-104 -158h-230zM33 18v277q96 -47 217 -47q131 0 178 74t47 262v960h316v-1050q0 -258 -129.5 -390.5t-387.5 -132.5q-134 0 -241 47z" />
    <glyph glyph-name="jcircumflex" unicode="&#x135;" horiz-adv-x="522" 
d="M182 1651h193l223 -391h-211l-115 213l-120 -213h-211zM412 1114v-1139q0 -215 -93.5 -332.5t-293.5 -117.5q-131 0 -228 51v236q98 -45 191 -45q70 0 101.5 44t31.5 142v1161h291z" />
    <glyph glyph-name="Kcedilla" unicode="&#x136;" horiz-adv-x="1310" 
d="M141 0v1544h316v-616h153l369 616h330l-455 -733l442 -811h-358l-342 657h-139v-657h-316zM690 -475h-188q80 141 80 293v80h206v-45q0 -191 -98 -328z" />
    <glyph glyph-name="kcedilla" unicode="&#x137;" horiz-adv-x="1060" 
d="M111 0v1593h290v-884h103l256 405h305l-346 -502l336 -612h-322l-246 469h-86v-469h-290zM553 -475h-188q79 139 79 293v80h207v-45q0 -191 -98 -328z" />
    <glyph glyph-name="Lacute" unicode="&#x139;" horiz-adv-x="1036" 
d="M408 1630h-222l187 312h262zM141 0v1544h316v-1272h561v-272h-877z" />
    <glyph glyph-name="lacute" unicode="&#x13a;" horiz-adv-x="507" 
d="M360 1651h-221l187 311h262zM111 0v1593h290v-1593h-290z" />
    <glyph glyph-name="Lcedilla" unicode="&#x13b;" horiz-adv-x="1036" 
d="M141 0v1544h316v-1272h561v-272h-877zM594 -475h-188q79 139 79 293v80h207v-45q0 -191 -98 -328z" />
    <glyph glyph-name="lcedilla" unicode="&#x13c;" horiz-adv-x="507" 
d="M111 0v1593h290v-1593h-290zM254 -475h-188q79 139 79 293v80h207v-45q0 -191 -98 -328z" />
    <glyph glyph-name="Lcaron" unicode="&#x13d;" horiz-adv-x="1038" 
d="M561 1133l43 413h242l-125 -413h-160zM141 0v1544h316v-1272h561v-272h-877z" />
    <glyph glyph-name="lcaron" unicode="&#x13e;" horiz-adv-x="530" 
d="M111 0v1593h290v-1593h-290zM459 1180l43 413h241l-125 -413h-159z" />
    <glyph glyph-name="Ldot" unicode="&#x13f;" horiz-adv-x="1044" 
d="M141 0v1544h316v-1272h561v-272h-877zM657 612v289h273v-289h-273z" />
    <glyph glyph-name="ldot" unicode="&#x140;" horiz-adv-x="688" 
d="M111 0v1593h290v-1593h-290zM457 680v289h272v-289h-272z" />
    <glyph glyph-name="Lslash" unicode="&#x141;" horiz-adv-x="1058" 
d="M147 0v578l-135 -66v242l135 71v719h316v-551l274 148v-277l-274 -133v-459h561v-272h-877z" />
    <glyph glyph-name="lslash" unicode="&#x142;" horiz-adv-x="649" 
d="M182 0v586l-129 -101v242l129 100v766h289v-542l131 100v-240l-131 -102v-809h-289z" />
    <glyph glyph-name="Nacute" unicode="&#x143;" horiz-adv-x="1562" 
d="M895 1630h-221l186 312h262zM141 0v1544h269l710 -952v952h301v-1544h-270l-707 973v-973h-303z" />
    <glyph glyph-name="nacute" unicode="&#x144;" horiz-adv-x="1140" 
d="M750 1260h-222l170 374h265zM416 0h-289v809l-41 305h285l22 -117q149 142 336 142q145 0 234.5 -94t89.5 -289v-756h-291v651q0 119 -39 169t-123 50q-99 0 -184 -63v-807z" />
    <glyph glyph-name="Ncedilla" unicode="&#x145;" horiz-adv-x="1562" 
d="M141 0v1544h269l710 -952v952h301v-1544h-270l-707 973v-973h-303zM774 -475h-188q80 141 80 293v80h206v-45q0 -191 -98 -328z" />
    <glyph glyph-name="ncedilla" unicode="&#x146;" horiz-adv-x="1140" 
d="M416 0h-289v809l-41 305h285l22 -117q149 142 336 142q145 0 234.5 -94t89.5 -289v-756h-291v651q0 119 -39 169t-123 50q-99 0 -184 -63v-807zM578 -475h-189q80 141 80 293v80h207v-45q0 -191 -98 -328z" />
    <glyph glyph-name="Ncaron" unicode="&#x147;" horiz-adv-x="1562" 
d="M913 1626h-223l-215 324h230l102 -156l98 156h228zM141 0v1544h269l710 -952v952h301v-1544h-270l-707 973v-973h-303z" />
    <glyph glyph-name="ncaron" unicode="&#x148;" horiz-adv-x="1140" 
d="M702 1260h-190l-229 391h211l118 -213l117 213h211zM416 0h-289v809l-41 305h285l22 -117q149 142 336 142q145 0 234.5 -94t89.5 -289v-756h-291v651q0 119 -39 169t-123 50q-99 0 -184 -63v-807z" />
    <glyph glyph-name="napostrophe" unicode="&#x149;" horiz-adv-x="1140" 
d="M168 1200h-188q79 139 79 293v80h207v-45q0 -191 -98 -328zM416 0h-289v809l-41 305h285l22 -117q149 142 336 142q145 0 234.5 -94t89.5 -289v-756h-291v651q0 119 -39 169t-123 50q-99 0 -184 -63v-807z" />
    <glyph glyph-name="Eng" unicode="&#x14a;" horiz-adv-x="1562" 
d="M141 0v1544h269l710 -952v952h301v-1558q0 -205 -123 -332t-333 -127q-70 0 -154 14t-127 33v279q98 -48 215 -48q107 0 157 56.5t62 181.5l-674 930v-973h-303z" />
    <glyph glyph-name="eng" unicode="&#x14b;" horiz-adv-x="1140" 
d="M406 0h-291v809l-39 305h282l17 -127q145 152 332 152q71 0 129 -20.5t104.5 -63t72 -116t25.5 -173.5v-791q0 -215 -93.5 -332.5t-293.5 -117.5q-132 0 -225 51v240q95 -45 188 -45q71 0 103.5 50t32.5 150v686q0 121 -39 170.5t-123 49.5q-103 0 -193 -74z" />
    <glyph glyph-name="Omacron" unicode="&#x14c;" horiz-adv-x="1540" 
d="M502 1655v217h563v-217h-563zM745 -25q-315 0 -495 209.5t-180 567.5q0 372 194 594.5t524 222.5q212 0 367 -95t235 -268.5t80 -406.5q0 -239 -85.5 -424.5t-251 -292.5t-388.5 -107zM772 248q170 0 261 137t91 387q0 251 -92 386.5t-262 135.5q-172 0 -264 -134.5
t-92 -383.5q0 -251 93 -389.5t265 -138.5z" />
    <glyph glyph-name="omacron" unicode="&#x14d;" horiz-adv-x="1153" 
d="M315 1356v209h531v-209h-531zM567 -25q-111 0 -204 36.5t-161.5 105.5t-106.5 176t-38 242q0 177 62.5 312.5t184 213.5t286.5 78q226 0 365 -146.5t139 -419.5t-142 -435.5t-385 -162.5zM578 211q106 0 163.5 93.5t57.5 256.5t-55.5 249.5t-161.5 86.5
q-109 0 -168.5 -84t-59.5 -258q0 -159 59 -251.5t165 -92.5z" />
    <glyph glyph-name="Obreve" unicode="&#x14e;" horiz-adv-x="1540" 
d="M782 1626q-139 0 -216 78t-97 215h184q4 -49 42 -72.5t89 -23.5q50 0 86 24.5t43 71.5h174q-18 -140 -94 -216.5t-211 -76.5zM745 -25q-315 0 -495 209.5t-180 567.5q0 372 194 594.5t524 222.5q212 0 367 -95t235 -268.5t80 -406.5q0 -239 -85.5 -424.5t-251 -292.5
t-388.5 -107zM772 248q170 0 261 137t91 387q0 251 -92 386.5t-262 135.5q-172 0 -264 -134.5t-92 -383.5q0 -251 93 -389.5t265 -138.5z" />
    <glyph glyph-name="obreve" unicode="&#x14f;" horiz-adv-x="1153" 
d="M563 1262q-136 0 -214.5 82.5t-96.5 220.5h209q3 -53 31 -81t75 -28q45 0 72 29t35 80h194q-15 -141 -93 -222t-212 -81zM567 -25q-111 0 -204 36.5t-161.5 105.5t-106.5 176t-38 242q0 177 62.5 312.5t184 213.5t286.5 78q226 0 365 -146.5t139 -419.5t-142 -435.5
t-385 -162.5zM578 211q106 0 163.5 93.5t57.5 256.5t-55.5 249.5t-161.5 86.5q-109 0 -168.5 -84t-59.5 -258q0 -159 59 -251.5t165 -92.5z" />
    <glyph glyph-name="Ohungarumlaut" unicode="&#x150;" horiz-adv-x="1540" 
d="M702 1630h-221l181 312h266zM1044 1630h-223l185 312h264zM745 -25q-315 0 -495 209.5t-180 567.5q0 372 194 594.5t524 222.5q212 0 367 -95t235 -268.5t80 -406.5q0 -239 -85.5 -424.5t-251 -292.5t-388.5 -107zM772 248q170 0 261 137t91 387q0 251 -92 386.5
t-262 135.5q-172 0 -264 -134.5t-92 -383.5q0 -251 93 -389.5t265 -138.5z" />
    <glyph glyph-name="ohungarumlaut" unicode="&#x151;" horiz-adv-x="1153" 
d="M860 1257h-223l168 373h264zM492 1257h-224l166 373h264zM567 -25q-111 0 -204 36.5t-161.5 105.5t-106.5 176t-38 242q0 177 62.5 312.5t184 213.5t286.5 78q226 0 365 -146.5t139 -419.5t-142 -435.5t-385 -162.5zM578 211q106 0 163.5 93.5t57.5 256.5t-55.5 249.5
t-161.5 86.5q-109 0 -168.5 -84t-59.5 -258q0 -159 59 -251.5t165 -92.5z" />
    <glyph glyph-name="OE" unicode="&#x152;" horiz-adv-x="1951" 
d="M958 0v2q-98 -31 -208 -31q-207 0 -362.5 99.5t-236.5 276t-81 405.5q0 239 88.5 424.5t252 289t377.5 103.5q101 0 193 -25h885v-272h-594v-357h489v-268h-489v-375h612v-272h-926zM414 776q0 -237 94 -383.5t264 -146.5q110 0 186 55v938q-77 57 -188 57
q-169 0 -262.5 -140.5t-93.5 -379.5z" />
    <glyph glyph-name="oe" unicode="&#x153;" horiz-adv-x="1853" 
d="M567 -25q-111 0 -204 36.5t-161.5 105.5t-106.5 176t-38 242q0 177 62.5 312.5t184 213.5t286.5 78q225 0 358 -142q130 142 348 142q234 0 347.5 -160t113.5 -500h-655q12 -129 74.5 -187.5t197.5 -58.5q195 0 340 74v-233q-66 -45 -172.5 -69.5t-218.5 -24.5
q-258 0 -389 137q-142 -142 -367 -142zM1288 901q-83 0 -128.5 -55t-57.5 -172h352q-6 121 -43.5 174t-122.5 53zM578 211q106 0 163.5 93.5t57.5 256.5t-55.5 249.5t-161.5 86.5q-109 0 -168.5 -84t-59.5 -258q0 -159 59 -251.5t165 -92.5z" />
    <glyph glyph-name="Racute" unicode="&#x154;" horiz-adv-x="1288" 
d="M709 1630h-222l187 312h262zM141 0v1544h451q278 0 425.5 -129t147.5 -375q0 -152 -60 -268t-171 -184l309 -588h-352l-248 500q-20 -2 -63 -2h-123v-498h-316zM547 1272h-90v-502h92q150 0 222.5 64.5t72.5 197.5q0 128 -70.5 184t-226.5 56z" />
    <glyph glyph-name="racute" unicode="&#x155;" horiz-adv-x="749" 
d="M547 1260h-221l170 374h264zM416 0h-289v809l-41 305h283l28 -145q58 84 128 129t169 45q33 0 49 -2v-277q-60 13 -104 13q-133 0 -223 -103v-774z" />
    <glyph glyph-name="Rcedilla" unicode="&#x156;" horiz-adv-x="1288" 
d="M141 0v1544h451q278 0 425.5 -129t147.5 -375q0 -152 -60 -268t-171 -184l309 -588h-352l-248 500q-20 -2 -63 -2h-123v-498h-316zM547 1272h-90v-502h92q150 0 222.5 64.5t72.5 197.5q0 128 -70.5 184t-226.5 56zM668 -475h-189q80 141 80 293v80h207v-45
q0 -191 -98 -328z" />
    <glyph glyph-name="rcedilla" unicode="&#x157;" horiz-adv-x="749" 
d="M416 0h-289v809l-41 305h283l28 -145q58 84 128 129t169 45q33 0 49 -2v-277q-60 13 -104 13q-133 0 -223 -103v-774zM260 -475h-188q80 141 80 293v80h206v-45q0 -191 -98 -328z" />
    <glyph glyph-name="Rcaron" unicode="&#x158;" horiz-adv-x="1288" 
d="M709 1626h-224l-215 324h230l102 -156l98 156h228zM141 0v1544h451q278 0 425.5 -129t147.5 -375q0 -152 -60 -268t-171 -184l309 -588h-352l-248 500q-20 -2 -63 -2h-123v-498h-316zM547 1272h-90v-502h92q150 0 222.5 64.5t72.5 197.5q0 128 -70.5 184t-226.5 56z" />
    <glyph glyph-name="rcaron" unicode="&#x159;" horiz-adv-x="749" 
d="M535 1260h-191l-229 391h211l118 -213l117 213h211zM416 0h-289v809l-41 305h283l28 -145q58 84 128 129t169 45q33 0 49 -2v-277q-60 13 -104 13q-133 0 -223 -103v-774z" />
    <glyph glyph-name="Sacute" unicode="&#x15a;" horiz-adv-x="1157" 
d="M666 1630h-222l187 312h262zM94 68v299q85 -52 212.5 -85.5t234.5 -33.5q118 0 179.5 46.5t61.5 131.5q0 74 -65 116.5t-234 92.5q-198 59 -299.5 168t-101.5 284q0 217 151.5 349.5t391.5 132.5q111 0 223 -27t186 -72v-286q-67 49 -182 80.5t-219 31.5
q-115 0 -177.5 -42t-62.5 -119t67.5 -126.5t221.5 -97.5q205 -66 306.5 -173t101.5 -285q0 -224 -152 -350t-408 -126q-227 0 -436 91z" />
    <glyph glyph-name="sacute" unicode="&#x15b;" horiz-adv-x="950" 
d="M596 1260h-221l170 374h264zM424 -23q-200 0 -348 74v252q193 -90 366 -90q168 0 168 90q0 48 -48 73t-167 52q-168 38 -246.5 118t-78.5 216q0 170 120.5 273.5t321.5 103.5q90 0 183.5 -20t148.5 -52v-260q-162 90 -314 90q-84 0 -128 -25t-44 -69q0 -45 46.5 -70.5
t156.5 -52.5q162 -36 246 -111.5t84 -214.5q0 -171 -126.5 -274t-340.5 -103z" />
    <glyph glyph-name="Scircumflex" unicode="&#x15c;" horiz-adv-x="1157" 
d="M512 1952h221l209 -324h-227l-97 158l-104 -158h-229zM94 68v299q85 -52 212.5 -85.5t234.5 -33.5q118 0 179.5 46.5t61.5 131.5q0 74 -65 116.5t-234 92.5q-198 59 -299.5 168t-101.5 284q0 217 151.5 349.5t391.5 132.5q111 0 223 -27t186 -72v-286q-67 49 -182 80.5
t-219 31.5q-115 0 -177.5 -42t-62.5 -119t67.5 -126.5t221.5 -97.5q205 -66 306.5 -173t101.5 -285q0 -224 -152 -350t-408 -126q-227 0 -436 91z" />
    <glyph glyph-name="scircumflex" unicode="&#x15d;" horiz-adv-x="950" 
d="M393 1651h193l223 -391h-211l-115 213l-121 -213h-210zM424 -23q-200 0 -348 74v252q193 -90 366 -90q168 0 168 90q0 48 -48 73t-167 52q-168 38 -246.5 118t-78.5 216q0 170 120.5 273.5t321.5 103.5q90 0 183.5 -20t148.5 -52v-260q-162 90 -314 90q-84 0 -128 -25
t-44 -69q0 -45 46.5 -70.5t156.5 -52.5q162 -36 246 -111.5t84 -214.5q0 -171 -126.5 -274t-340.5 -103z" />
    <glyph glyph-name="Scedilla" unicode="&#x15e;" horiz-adv-x="1157" 
d="M94 68v299q85 -52 212.5 -85.5t234.5 -33.5q118 0 179.5 46.5t61.5 131.5q0 74 -65 116.5t-234 92.5q-198 59 -299.5 168t-101.5 284q0 217 151.5 349.5t391.5 132.5q111 0 223 -27t186 -72v-286q-67 49 -182 80.5t-219 31.5q-115 0 -177.5 -42t-62.5 -119t67.5 -126.5
t221.5 -97.5q205 -66 306.5 -173t101.5 -285q0 -206 -129.5 -329t-352.5 -142l-12 -37q90 -21 132 -67.5t42 -137.5q0 -93 -77.5 -154t-178.5 -61q-86 0 -141 37v176q21 -13 54.5 -22t55.5 -9q36 0 58 18.5t22 55.5q0 83 -129 94l-6 39l29 66q-191 15 -363 88z" />
    <glyph glyph-name="scedilla" unicode="&#x15f;" horiz-adv-x="950" 
d="M674 -260q0 -93 -77.5 -154t-178.5 -61q-87 0 -142 37v176q21 -13 55 -22t56 -9q36 0 58 18.5t22 55.5q0 83 -129 94l-6 39l28 66q-161 9 -284 71v252q193 -90 366 -90q168 0 168 90q0 48 -48 73t-167 52q-168 38 -246.5 118t-78.5 216q0 170 120.5 273.5t321.5 103.5
q90 0 183.5 -20t148.5 -52v-260q-162 90 -314 90q-84 0 -128 -25t-44 -69q0 -45 46.5 -70.5t156.5 -52.5q162 -36 246 -111.5t84 -214.5q0 -152 -101 -251t-276 -119l-14 -39q90 -21 132 -67.5t42 -137.5z" />
    <glyph glyph-name="Scaron" unicode="&#x160;" horiz-adv-x="1157" 
d="M709 1626h-224l-215 324h230l102 -156l98 156h228zM94 68v299q85 -52 212.5 -85.5t234.5 -33.5q118 0 179.5 46.5t61.5 131.5q0 74 -65 116.5t-234 92.5q-198 59 -299.5 168t-101.5 284q0 217 151.5 349.5t391.5 132.5q111 0 223 -27t186 -72v-286q-67 49 -182 80.5
t-219 31.5q-115 0 -177.5 -42t-62.5 -119t67.5 -126.5t221.5 -97.5q205 -66 306.5 -173t101.5 -285q0 -224 -152 -350t-408 -126q-227 0 -436 91z" />
    <glyph glyph-name="scaron" unicode="&#x161;" horiz-adv-x="950" 
d="M575 1260h-190l-229 391h211l118 -213l117 213h211zM424 -23q-200 0 -348 74v252q193 -90 366 -90q168 0 168 90q0 48 -48 73t-167 52q-168 38 -246.5 118t-78.5 216q0 170 120.5 273.5t321.5 103.5q90 0 183.5 -20t148.5 -52v-260q-162 90 -314 90q-84 0 -128 -25
t-44 -69q0 -45 46.5 -70.5t156.5 -52.5q162 -36 246 -111.5t84 -214.5q0 -171 -126.5 -274t-340.5 -103z" />
    <glyph glyph-name="Tcedilla" unicode="&#x162;" horiz-adv-x="1257" 
d="M467 0v1272h-451v272h1223v-272h-459v-1272h-313zM631 -475h-189q80 141 80 293v80h207v-45q0 -191 -98 -328z" />
    <glyph glyph-name="tcedilla" unicode="&#x163;" horiz-adv-x="790" 
d="M170 383v504h-150v227h152l51 338h232v-338h274v-227h-274v-486q0 -98 32.5 -141t116.5 -43q72 0 160 27v-221q-37 -20 -104 -33t-136 -13q-192 0 -273 94.5t-81 311.5zM492 -475h-189q80 141 80 293v80h207v-45q0 -191 -98 -328z" />
    <glyph glyph-name="Tcaron" unicode="&#x164;" horiz-adv-x="1257" 
d="M727 1626h-223l-215 324h229l103 -156l98 156h227zM467 0v1272h-451v272h1223v-272h-459v-1272h-313z" />
    <glyph glyph-name="tcaron" unicode="&#x165;" horiz-adv-x="790" 
d="M528 1266l43 413h242l-125 -413h-160zM170 383v504h-150v227h152l51 338h232v-338h274v-227h-274v-486q0 -98 32.5 -141t116.5 -43q72 0 160 27v-221q-37 -20 -104 -33t-136 -13q-192 0 -273 94.5t-81 311.5z" />
    <glyph glyph-name="Tbar" unicode="&#x166;" horiz-adv-x="1269" 
d="M469 0v618h-215v242h215v412h-451v272h1223v-272h-459v-412h230v-242h-230v-618h-313z" />
    <glyph glyph-name="tbar" unicode="&#x167;" horiz-adv-x="802" 
d="M172 383v115h-137v190h137v199h-147v227h149l51 338h234v-338h274v-227h-274v-199h246v-190h-246v-97q0 -99 33.5 -144.5t105.5 -45.5q83 0 170 33v-221q-38 -20 -111.5 -36t-128.5 -16q-102 0 -172 26t-110 80t-57 127.5t-17 178.5z" />
    <glyph glyph-name="Utilde" unicode="&#x168;" 
d="M993 1964l94 -135q-112 -172 -231 -172q-48 0 -131 43t-135 43q-72 0 -127 -64l-92 125q122 166 235 166q42 0 87 -24t86.5 -48t76.5 -24q73 0 137 90zM715 -23q-275 0 -431.5 150t-156.5 434v983h313v-946q0 -187 70 -268.5t221 -81.5q150 0 211.5 86t61.5 284v926h313
v-921q0 -307 -158.5 -476.5t-443.5 -169.5z" />
    <glyph glyph-name="utilde" unicode="&#x169;" horiz-adv-x="1138" 
d="M854 1571l104 -139q-50 -75 -114 -121.5t-129 -46.5q-47 0 -130 42t-136 42q-72 0 -127 -64l-97 129q54 73 118 117.5t124 44.5q41 0 85.5 -24t86 -48t76.5 -24q74 0 139 92zM100 1114h291v-649q0 -121 39.5 -171t122.5 -50q97 0 180 59v811h291v-809l41 -305h-285
l-22 115q-147 -140 -334 -140q-146 0 -235 95t-89 290v754z" />
    <glyph glyph-name="Umacron" unicode="&#x16a;" 
d="M438 1655v217h563v-217h-563zM715 -23q-275 0 -431.5 150t-156.5 434v983h313v-946q0 -187 70 -268.5t221 -81.5q150 0 211.5 86t61.5 284v926h313v-921q0 -307 -158.5 -476.5t-443.5 -169.5z" />
    <glyph glyph-name="umacron" unicode="&#x16b;" horiz-adv-x="1138" 
d="M307 1356v209h531v-209h-531zM100 1114h291v-649q0 -121 39.5 -171t122.5 -50q97 0 180 59v811h291v-809l41 -305h-285l-22 115q-147 -140 -334 -140q-146 0 -235 95t-89 290v754z" />
    <glyph glyph-name="Ubreve" unicode="&#x16c;" 
d="M729 1626q-139 0 -216 78t-97 215h184q4 -49 42 -72.5t89 -23.5q50 0 86 24.5t43 71.5h174q-18 -140 -94 -216.5t-211 -76.5zM715 -23q-275 0 -431.5 150t-156.5 434v983h313v-946q0 -187 70 -268.5t221 -81.5q150 0 211.5 86t61.5 284v926h313v-921
q0 -307 -158.5 -476.5t-443.5 -169.5z" />
    <glyph glyph-name="ubreve" unicode="&#x16d;" horiz-adv-x="1138" 
d="M563 1262q-136 0 -214.5 82.5t-96.5 220.5h209q3 -53 31 -81t75 -28q45 0 72 29t35 80h194q-15 -141 -93 -222t-212 -81zM100 1114h291v-649q0 -121 39.5 -171t122.5 -50q97 0 180 59v811h291v-809l41 -305h-285l-22 115q-147 -140 -334 -140q-146 0 -235 95t-89 290v754
z" />
    <glyph glyph-name="Uring" unicode="&#x16e;" 
d="M479 1843q0 117 67.5 190.5t168.5 73.5q104 0 170.5 -74.5t66.5 -191.5q0 -115 -66 -188.5t-169 -73.5q-105 0 -171.5 73t-66.5 191zM635 1847q0 -21 2.5 -40t10 -42.5t25 -38t42.5 -14.5t41.5 14.5t24 37.5t10 42t2.5 39q0 18 -2.5 35.5t-9.5 41t-24.5 38t-43.5 14.5
q-25 0 -41.5 -13.5t-24 -36t-10 -40.5t-2.5 -37zM715 -23q-275 0 -431.5 150t-156.5 434v983h313v-946q0 -187 70 -268.5t221 -81.5q150 0 211.5 86t61.5 284v926h313v-921q0 -307 -158.5 -476.5t-443.5 -169.5z" />
    <glyph glyph-name="uring" unicode="&#x16f;" horiz-adv-x="1138" 
d="M340 1454q0 117 66.5 190.5t168.5 73.5q105 0 171.5 -74.5t66.5 -191.5t-65.5 -189.5t-169.5 -72.5q-106 0 -172 72.5t-66 191.5zM496 1458q0 -135 79 -135q78 0 78 133q0 125 -80 125q-77 0 -77 -123zM100 1114h291v-649q0 -121 39.5 -171t122.5 -50q97 0 180 59v811
h291v-809l41 -305h-285l-22 115q-147 -140 -334 -140q-146 0 -235 95t-89 290v754z" />
    <glyph glyph-name="Uhungarumlaut" unicode="&#x170;" 
d="M633 1630h-221l180 312h266zM975 1630h-223l184 312h264zM715 -23q-275 0 -431.5 150t-156.5 434v983h313v-946q0 -187 70 -268.5t221 -81.5q150 0 211.5 86t61.5 284v926h313v-921q0 -307 -158.5 -476.5t-443.5 -169.5z" />
    <glyph glyph-name="uhungarumlaut" unicode="&#x171;" horiz-adv-x="1138" 
d="M850 1257h-223l168 373h264zM481 1257h-223l166 373h264zM100 1114h291v-649q0 -121 39.5 -171t122.5 -50q97 0 180 59v811h291v-809l41 -305h-285l-22 115q-147 -140 -334 -140q-146 0 -235 95t-89 290v754z" />
    <glyph glyph-name="Uogonek" unicode="&#x172;" 
d="M903 -260v-199q-99 -23 -180.5 -12.5t-133.5 65.5t-52 142q0 119 125 244q-252 14 -393.5 162.5t-141.5 418.5v983h313v-946q0 -187 70 -268.5t221 -81.5q150 0 211.5 86t61.5 284v926h313v-921q0 -266 -121.5 -430.5t-343.5 -202.5q-48 -45 -80.5 -97t-32.5 -90
q0 -51 40.5 -70.5t123.5 7.5z" />
    <glyph glyph-name="uogonek" unicode="&#x173;" horiz-adv-x="1138" 
d="M1069 -260v-199q-72 -21 -138.5 -16.5t-117.5 27t-81 70.5t-30 114q0 132 150 264h-72l-22 115q-147 -140 -334 -140q-146 0 -235 95t-89 290v754h291v-649q0 -121 39.5 -171t122.5 -50q97 0 180 59v811h291v-809l41 -305h-35q-53 -47 -89 -101.5t-36 -95.5
q0 -51 40.5 -70.5t123.5 7.5z" />
    <glyph glyph-name="Wcircumflex" unicode="&#x174;" horiz-adv-x="1947" 
d="M879 1952h221l209 -324h-228l-96 158l-104 -158h-230zM1929 1544l-348 -1544h-393l-219 1042l-252 -1042h-369l-317 1544h327l201 -1159l254 1159h328l248 -1202l223 1202h317z" />
    <glyph glyph-name="wcircumflex" unicode="&#x175;" horiz-adv-x="1601" 
d="M739 1651h193l223 -391h-211l-115 213l-120 -213h-211zM1585 1114l-276 -1114h-336l-178 762l-191 -762h-323l-252 1114h311l133 -807l201 807h293l180 -799l156 799h282z" />
    <glyph glyph-name="Ycircumflex" unicode="&#x176;" horiz-adv-x="1300" 
d="M567 1952h221l209 -324h-227l-96 158l-105 -158h-229zM492 0v602l-486 942h356l302 -626l313 626h330l-500 -938v-606h-315z" />
    <glyph glyph-name="ycircumflex" unicode="&#x177;" horiz-adv-x="1042" 
d="M440 1651h193l223 -391h-211l-115 213l-120 -213h-211zM500 -455h-283l170 453l-375 1116h314l206 -745l224 745h282z" />
    <glyph glyph-name="Ydieresis" unicode="&#x178;" horiz-adv-x="1300" 
d="M768 1649v282h262v-282h-262zM346 1649v282h258v-282h-258zM492 0v602l-486 942h356l302 -626l313 626h330l-500 -938v-606h-315z" />
    <glyph glyph-name="Zacute" unicode="&#x179;" horiz-adv-x="1214" 
d="M698 1630h-221l187 312h262zM1141 0h-1090v203l715 1069h-674v272h1047v-237l-695 -1035h697v-272z" />
    <glyph glyph-name="zacute" unicode="&#x17a;" horiz-adv-x="999" 
d="M616 1260h-221l170 374h264zM55 176l496 703h-479v235h860v-188l-492 -690h496v-236h-881v176z" />
    <glyph glyph-name="Zdotaccent" unicode="&#x17b;" horiz-adv-x="1214" 
d="M492 1642v308h284v-308h-284zM1141 0h-1090v203l715 1069h-674v272h1047v-237l-695 -1035h697v-272z" />
    <glyph glyph-name="zdotaccent" unicode="&#x17c;" horiz-adv-x="999" 
d="M367 1335v307h284v-307h-284zM55 176l496 703h-479v235h860v-188l-492 -690h496v-236h-881v176z" />
    <glyph glyph-name="Zcaron" unicode="&#x17d;" horiz-adv-x="1214" 
d="M752 1626h-224l-215 324h230l102 -156l98 156h228zM1141 0h-1090v203l715 1069h-674v272h1047v-237l-695 -1035h697v-272z" />
    <glyph glyph-name="zcaron" unicode="&#x17e;" horiz-adv-x="999" 
d="M598 1260h-190l-230 391h211l119 -213l117 213h211zM55 176l496 703h-479v235h860v-188l-492 -690h496v-236h-881v176z" />
    <glyph glyph-name="fhook" unicode="&#x192;" horiz-adv-x="835" 
d="M100 -262l117 1130h-127l39 228h113l8 86q21 214 120.5 320t254.5 106q94 0 192 -37l-35 -268q-64 34 -123 34q-71 0 -96.5 -51.5t-38.5 -183.5v-6h234l-33 -228h-223l-113 -1130h-289z" />
    <glyph glyph-name="Scommaaccent" unicode="&#x218;" horiz-adv-x="1157" 
d="M94 68v299q85 -52 212.5 -85.5t234.5 -33.5q118 0 179.5 46.5t61.5 131.5q0 74 -65 116.5t-234 92.5q-198 59 -299.5 168t-101.5 284q0 217 151.5 349.5t391.5 132.5q111 0 223 -27t186 -72v-286q-67 49 -182 80.5t-219 31.5q-115 0 -177.5 -42t-62.5 -119t67.5 -126.5
t221.5 -97.5q205 -66 306.5 -173t101.5 -285q0 -224 -152 -350t-408 -126q-227 0 -436 91zM596 -475h-188q79 139 79 293v80h207v-45q0 -191 -98 -328z" />
    <glyph glyph-name="scommaaccent" unicode="&#x219;" horiz-adv-x="950" 
d="M424 -23q-200 0 -348 74v252q193 -90 366 -90q168 0 168 90q0 48 -48 73t-167 52q-168 38 -246.5 118t-78.5 216q0 170 120.5 273.5t321.5 103.5q90 0 183.5 -20t148.5 -52v-260q-162 90 -314 90q-84 0 -128 -25t-44 -69q0 -45 46.5 -70.5t156.5 -52.5
q162 -36 246 -111.5t84 -214.5q0 -171 -126.5 -274t-340.5 -103zM469 -475h-188q79 139 79 293v80h207v-45q0 -191 -98 -328z" />
    <glyph glyph-name="uni021A" unicode="&#x21a;" horiz-adv-x="1269" 
d="M467 0v1272h-451v272h1223v-272h-459v-1272h-313zM631 -475h-189q80 141 80 293v80h207v-45q0 -191 -98 -328z" />
    <glyph glyph-name="tcommaaccent" unicode="&#x21b;" horiz-adv-x="790" 
d="M170 383v504h-150v227h152l51 338h232v-338h274v-227h-274v-486q0 -98 32.5 -141t116.5 -43q72 0 160 27v-221q-37 -20 -104 -33t-136 -13q-192 0 -273 94.5t-81 311.5zM492 -475h-189q80 141 80 293v80h207v-45q0 -191 -98 -328z" />
    <glyph glyph-name="Ymacron" unicode="&#x232;" horiz-adv-x="1300" 
d="M393 1655v217h563v-217h-563zM492 0v602l-486 942h356l302 -626l313 626h330l-500 -938v-606h-315z" />
    <glyph glyph-name="ymacron" unicode="&#x233;" horiz-adv-x="1042" 
d="M262 1356v209h531v-209h-531zM500 -455h-283l170 453l-375 1116h314l206 -745l224 745h282z" />
    <glyph glyph-name="dotlessj" unicode="&#x237;" horiz-adv-x="516" 
d="M410 1114v-1139q0 -215 -93.5 -332.5t-293.5 -117.5q-131 0 -228 51v236q98 -45 191 -45q70 0 101.5 44t31.5 142v1161h291z" />
    <glyph glyph-name="circumflex" unicode="&#x2c6;" horiz-adv-x="1101" 
d="M463 1651h192l224 -391h-211l-115 213l-121 -213h-211z" />
    <glyph glyph-name="caron" unicode="&#x2c7;" horiz-adv-x="894" 
d="M645 1260h-190l-230 391h211l119 -213l117 213h211z" />
    <glyph glyph-name="breve" unicode="&#x2d8;" horiz-adv-x="905" 
d="M451 1262q-137 0 -215.5 82.5t-96.5 220.5h209q3 -53 31.5 -81t75.5 -28q45 0 71.5 29t34.5 80h195q-15 -141 -93 -222t-212 -81z" />
    <glyph glyph-name="dotaccent" unicode="&#x2d9;" horiz-adv-x="913" 
d="M313 1335v307h285v-307h-285z" />
    <glyph glyph-name="ring" unicode="&#x2da;" horiz-adv-x="907" 
d="M217 1485q0 117 67 190.5t169 73.5q105 0 171 -74.5t66 -191.5t-65.5 -189.5t-169.5 -72.5q-106 0 -172 72.5t-66 191.5zM373 1489q0 -21 2.5 -40t10 -42.5t25 -38t42.5 -14.5q77 0 77 133q0 125 -79 125q-78 0 -78 -123z" />
    <glyph glyph-name="ogonek" unicode="&#x2db;" horiz-adv-x="909" 
d="M543 -260v-199q-72 -21 -138.5 -16.5t-117.5 27t-81 70.5t-30 114q0 173 248 340l94 -64q-57 -47 -98 -106t-41 -103q0 -51 40.5 -70.5t123.5 7.5z" />
    <glyph glyph-name="tilde" unicode="&#x2dc;" horiz-adv-x="907" 
d="M737 1571l105 -139q-50 -75 -114.5 -121.5t-129.5 -46.5q-47 0 -130 42t-136 42q-72 0 -127 -64l-96 129q54 73 117.5 117.5t123.5 44.5q41 0 85.5 -24t86 -48t76.5 -24q74 0 139 92z" />
    <glyph glyph-name="hungarumlaut" unicode="&#x2dd;" horiz-adv-x="903" 
d="M635 1257h-223l168 373h264zM266 1257h-223l166 373h264z" />
    <glyph glyph-name="Wgrave" unicode="&#x1e80;" horiz-adv-x="1947" 
d="M1092 1630h-222l-229 312h264zM1929 1544l-348 -1544h-393l-219 1042l-252 -1042h-369l-317 1544h327l201 -1159l254 1159h328l248 -1202l223 1202h317z" />
    <glyph glyph-name="wgrave" unicode="&#x1e81;" horiz-adv-x="1601" 
d="M913 1260h-219l-213 374h262zM1585 1114l-276 -1114h-336l-178 762l-191 -762h-323l-252 1114h311l133 -807l201 807h293l180 -799l156 799h282z" />
    <glyph glyph-name="Wacute" unicode="&#x1e82;" horiz-adv-x="1947" 
d="M1085 1630h-221l187 312h262zM1929 1544l-348 -1544h-393l-219 1042l-252 -1042h-369l-317 1544h327l201 -1159l254 1159h328l248 -1202l223 1202h317z" />
    <glyph glyph-name="wacute" unicode="&#x1e83;" horiz-adv-x="1601" 
d="M942 1260h-221l170 374h264zM1585 1114l-276 -1114h-336l-178 762l-191 -762h-323l-252 1114h311l133 -807l201 807h293l180 -799l156 799h282z" />
    <glyph glyph-name="Wdieresis" unicode="&#x1e84;" horiz-adv-x="1947" 
d="M1049 1649v282h262v-282h-262zM627 1649v282h258v-282h-258zM1929 1544l-348 -1544h-393l-219 1042l-252 -1042h-369l-317 1544h327l201 -1159l254 1159h328l248 -1202l223 1202h317z" />
    <glyph glyph-name="wdieresis" unicode="&#x1e85;" horiz-adv-x="1601" 
d="M889 1303v299h260v-299h-260zM469 1303v299h258v-299h-258zM1585 1114l-276 -1114h-336l-178 762l-191 -762h-323l-252 1114h311l133 -807l201 807h293l180 -799l156 799h282z" />
    <glyph glyph-name="Ygrave" unicode="&#x1ef2;" horiz-adv-x="1300" 
d="M795 1630h-222l-229 312h264zM492 0v602l-486 942h356l302 -626l313 626h330l-500 -938v-606h-315z" />
    <glyph glyph-name="ygrave" unicode="&#x1ef3;" horiz-adv-x="1042" 
d="M641 1260h-219l-213 374h262zM500 -455h-283l170 453l-375 1116h314l206 -745l224 745h282z" />
    <glyph glyph-name="threeperemspace" unicode="&#x2004;" horiz-adv-x="681" 
 />
    <glyph glyph-name="figurespace" unicode="&#x2007;" horiz-adv-x="1228" 
 />
    <glyph glyph-name="thinspace" unicode="&#x2009;" horiz-adv-x="327" 
 />
    <glyph glyph-name="hairspace" unicode="&#x200a;" horiz-adv-x="163" 
 />
    <glyph glyph-name="zerowidthspace" unicode="&#x200b;" horiz-adv-x="0" 
 />
    <glyph glyph-name="figuredash" unicode="&#x2012;" horiz-adv-x="1310" 
d="M0 639v270h1311v-270h-1311z" />
    <glyph glyph-name="endash" unicode="&#x2013;" horiz-adv-x="995" 
d="M891 774v-258h-785v258h785z" />
    <glyph glyph-name="emdash" unicode="&#x2014;" horiz-adv-x="1587" 
d="M1483 774v-258h-1377v258h1377z" />
    <glyph glyph-name="quoteleft" unicode="&#x2018;" horiz-adv-x="466" 
d="M205 1593h217q-76 -156 -76 -434v-182h-260v147q0 278 119 469z" />
    <glyph glyph-name="quoteright" unicode="&#x2019;" horiz-adv-x="464" 
d="M279 977h-220q76 156 76 434v182h260v-147q0 -283 -116 -469z" />
    <glyph glyph-name="quotesinglbase" unicode="&#x201a;" horiz-adv-x="458" 
d="M242 -311h-219q77 158 77 434v182h260v-147q0 -280 -118 -469z" />
    <glyph glyph-name="quotedblleft" unicode="&#x201c;" horiz-adv-x="835" 
d="M565 1593h217q-75 -154 -75 -434v-182h-261v147q0 278 119 469zM205 1593h217q-76 -156 -76 -434v-182h-260v147q0 278 119 469z" />
    <glyph glyph-name="quotedblright" unicode="&#x201d;" horiz-adv-x="833" 
d="M639 977h-219q76 156 76 434v182h260v-147q0 -281 -117 -469zM279 977h-220q76 156 76 434v182h260v-147q0 -283 -116 -469z" />
    <glyph glyph-name="quotedblbase" unicode="&#x201e;" horiz-adv-x="827" 
d="M602 -311h-219q78 160 78 434v182h260v-147q0 -278 -119 -469zM242 -311h-219q77 158 77 434v182h260v-147q0 -280 -118 -469z" />
    <glyph glyph-name="dagger" unicode="&#x2020;" horiz-adv-x="972" 
d="M365 -455v1319h-287v232h287v450h239v-450h291v-232h-291v-1319h-239z" />
    <glyph glyph-name="daggerdbl" unicode="&#x2021;" horiz-adv-x="972" 
d="M78 0v231h287v633h-287v232h287v450h239v-450h291v-232h-291v-633h291v-231h-291v-455h-239v455h-287z" />
    <glyph glyph-name="bullet" unicode="&#x2022;" horiz-adv-x="692" 
d="M121 604q0 108 65 182t160 74q94 0 159.5 -74.5t65.5 -181.5t-65.5 -181.5t-159.5 -74.5q-95 0 -160 74t-65 182z" />
    <glyph glyph-name="ellipsis" unicode="&#x2026;" horiz-adv-x="1622" 
d="M102 0v350h328v-350h-328zM647 0v350h328v-350h-328zM1194 0v350h326v-350h-326z" />
    <glyph glyph-name="perthousand" unicode="&#x2030;" horiz-adv-x="2166" 
d="M57 1161q0 189 88.5 298.5t223.5 109.5q134 0 214.5 -106t80.5 -287q0 -188 -87 -301t-223 -113q-132 0 -214.5 108t-82.5 291zM238 0l809 1546h233l-809 -1546h-233zM354 1389q-96 0 -96 -224q0 -44 3.5 -78t13 -68.5t30 -53.5t51.5 -19q103 0 103 221q0 222 -105 222z
M850 373q0 189 89 298t224 109q133 0 214 -106t81 -287q0 -186 -87.5 -300t-221.5 -114q-133 0 -216 108.5t-83 291.5zM1507 373q0 189 88.5 298t223.5 109q133 0 214 -106t81 -287q0 -186 -88 -300t-224 -114q-132 0 -213.5 108t-81.5 292zM1149 600q-98 0 -98 -223
q0 -219 100 -219q102 0 102 221q0 40 -4 74.5t-14.5 70t-32.5 56t-53 20.5zM1804 600q-96 0 -96 -223q0 -219 98 -219q103 0 103 221t-105 221z" />
    <glyph glyph-name="minute" unicode="&#x2032;" horiz-adv-x="526" 
d="M63 926l125 620h334l-241 -620h-218z" />
    <glyph glyph-name="second" unicode="&#x2033;" horiz-adv-x="903" 
d="M457 926l125 620h317l-242 -620h-200zM63 926l125 620h318l-242 -620h-201z" />
    <glyph glyph-name="guilsinglleft" unicode="&#x2039;" horiz-adv-x="602" 
d="M283 950h241l-211 -413l211 -420h-245l-222 418z" />
    <glyph glyph-name="guilsinglright" unicode="&#x203a;" horiz-adv-x="602" 
d="M319 117h-241l211 413l-211 420h246l219 -418z" />
    <glyph glyph-name="fraction" unicode="&#x2044;" horiz-adv-x="270" 
d="M-406 0l859 1546h227l-856 -1546h-230z" />
    <glyph glyph-name="zero.superior" unicode="&#x2070;" horiz-adv-x="671" 
d="M322 778q-273 0 -273 387q0 410 291 410q274 0 274 -383q0 -199 -73.5 -306.5t-218.5 -107.5zM332 932q29 0 47.5 17.5t27.5 54t12 75t3 95.5q0 56 -3 95t-12 77t-27.5 57.5t-47.5 19.5t-48.5 -19t-29.5 -55t-14 -76t-4 -93q0 -120 21 -184t75 -64z" />
    <glyph glyph-name="four.superior" unicode="&#x2074;" horiz-adv-x="638" 
d="M352 788v154h-321v129l192 490h191l-178 -447h116v119l178 96v-215h76l-20 -172h-56v-154h-178z" />
    <glyph glyph-name="five.superior" unicode="&#x2075;" horiz-adv-x="614" 
d="M227 928q57 0 90 28t33 74q0 45 -29 72.5t-73 27.5q-40 0 -82 -20l-109 29l43 422h455l-23 -179h-280l-14 -100q12 2 38 2q131 0 205 -63t74 -174q0 -127 -91.5 -198t-227.5 -71q-97 0 -181 33v162q82 -45 172 -45z" />
    <glyph glyph-name="six.superior" unicode="&#x2076;" horiz-adv-x="686" 
d="M596 1354q-75 53 -184 53q-63 0 -102.5 -33t-55.5 -112q84 43 149 43q98 0 164 -67t66 -179q0 -124 -81.5 -202.5t-209.5 -78.5q-138 0 -217.5 95.5t-79.5 263.5q0 189 97 311.5t261 122.5q52 0 107.5 -12t85.5 -31v-174zM338 1149q-37 0 -92 -19q7 -196 102 -196
q40 0 63 36t23 83q0 50 -27 73t-69 23z" />
    <glyph glyph-name="seven.superior" unicode="&#x2077;" horiz-adv-x="569" 
d="M266 788h-196l-4 11l272 583h-315l36 179h467l25 -105z" />
    <glyph glyph-name="eight.superior" unicode="&#x2078;" horiz-adv-x="692" 
d="M635 1022q0 -107 -87 -177.5t-231 -70.5q-116 0 -192 51t-76 148q0 116 121 162q-109 65 -109 180q0 106 79.5 181t219.5 75q116 0 190.5 -55.5t74.5 -153.5q0 -119 -127 -168q137 -51 137 -172zM354 1239q6 -2 17 -5t16 -5q49 41 49 104q-2 39 -23.5 65.5t-60.5 26.5
q-37 0 -59.5 -23.5t-22.5 -66.5q0 -42 21 -63t63 -33zM244 999q0 -42 26.5 -65t65.5 -23q44 0 67 23t23 59q0 11 -2 21t-8 17.5t-10.5 13.5t-15 11.5t-16 8.5t-19.5 7t-19 5.5t-21.5 5t-19.5 4.5l-21 7q-30 -46 -30 -95z" />
    <glyph glyph-name="nine.superior" unicode="&#x2079;" horiz-adv-x="686" 
d="M84 987q73 -51 184 -51q132 0 158 149q-76 -45 -152 -45q-96 0 -162.5 67t-66.5 179q0 124 82 202.5t211 78.5q138 0 216.5 -95t78.5 -264q0 -189 -96 -311.5t-258 -122.5q-52 0 -108.5 12.5t-86.5 30.5v170zM246 1292q0 -50 26.5 -73t67.5 -23q33 0 94 21
q-6 192 -104 192q-40 0 -62 -35t-22 -82z" />
    <glyph glyph-name="zero.inferior" unicode="&#x2080;" horiz-adv-x="665" 
d="M322 -10q-273 0 -273 387q0 409 291 409q274 0 274 -383q0 -199 -73.5 -306t-218.5 -107zM332 143q29 0 47.5 17.5t27.5 54t12 75t3 95.5q0 56 -3 95t-12 77.5t-27.5 58t-47.5 19.5t-48.5 -19t-29.5 -55t-14 -76.5t-4 -93.5q0 -120 21 -184t75 -64z" />
    <glyph glyph-name="one.inferior" unicode="&#x2081;" horiz-adv-x="473" 
d="M375 0h-209v537l-137 -37v164l227 108h119v-772z" />
    <glyph glyph-name="two.inferior" unicode="&#x2082;" horiz-adv-x="608" 
d="M53 0v125l170 170q56 54 85.5 99t29.5 102q0 54 -30.5 83t-82.5 29q-75 0 -170 -57v162q103 69 228 69q111 0 182.5 -64.5t71.5 -174.5q0 -169 -193 -332l-39 -33h266l-26 -178h-492z" />
    <glyph glyph-name="three.inferior" unicode="&#x2083;" horiz-adv-x="606" 
d="M238 -8q-113 0 -181 35v159q76 -45 160 -45q62 0 101.5 27.5t39.5 67.5q0 71 -114 71h-68v142h70q43 0 67.5 22.5t24.5 58.5q0 40 -27.5 62t-77.5 22q-83 0 -176 -49v148q36 32 98 50.5t130 18.5q115 0 185.5 -53t70.5 -145q0 -109 -101 -176q117 -46 117 -168
q0 -115 -90 -181.5t-229 -66.5z" />
    <glyph glyph-name="four.inferior" unicode="&#x2084;" horiz-adv-x="630" 
d="M350 0v154h-321v129l192 489h191l-179 -446h117v118l178 97v-215h76l-20 -172h-56v-154h-178z" />
    <glyph glyph-name="five.inferior" unicode="&#x2085;" horiz-adv-x="608" 
d="M227 139q56 0 89.5 28.5t33.5 74.5q0 45 -29 72.5t-73 27.5q-40 0 -82 -20l-109 28l43 422h455l-23 -178h-280l-14 -100q12 2 38 2q131 0 205 -63.5t74 -174.5q0 -127 -91.5 -197.5t-227.5 -70.5q-97 0 -181 33v161q82 -45 172 -45z" />
    <glyph glyph-name="six.inferior" unicode="&#x2086;" horiz-adv-x="677" 
d="M596 565q-75 53 -184 53q-63 0 -102.5 -33t-55.5 -112q84 43 149 43q98 0 164 -67t66 -179q0 -124 -81.5 -202t-209.5 -78q-138 0 -217.5 95t-79.5 263q0 189 97 311.5t261 122.5q52 0 107.5 -12t85.5 -31v-174zM338 360q-40 0 -92 -18q7 -197 102 -197q40 0 63 36t23 83
q0 50 -27 73t-69 23z" />
    <glyph glyph-name="seven.inferior" unicode="&#x2087;" horiz-adv-x="561" 
d="M264 0h-196l-5 10l273 584h-316l37 178h467l25 -104z" />
    <glyph glyph-name="eight.inferior" unicode="&#x2088;" horiz-adv-x="684" 
d="M635 233q0 -107 -86.5 -177t-231.5 -70q-116 0 -192 51t-76 147q0 116 121 162q-109 65 -109 180q0 106 79.5 181t219.5 75q116 0 190.5 -55.5t74.5 -153.5q0 -63 -32 -103t-95 -64q137 -51 137 -173zM354 451q4 -2 9.5 -3.5t12.5 -4t11 -3.5q49 41 49 105
q-2 39 -23.5 65.5t-60.5 26.5q-37 0 -59.5 -23.5t-22.5 -66.5q0 -42 21 -63t63 -33zM244 211q0 -42 26.5 -65t65.5 -23q44 0 67 23t23 59q0 11 -2 21t-8 17.5t-10.5 13.5t-15 11.5t-16 8.5t-19.5 7t-19 5.5t-21.5 5t-19.5 4.5t-10.5 3t-10.5 3q-30 -47 -30 -94z" />
    <glyph glyph-name="nine.inferior" unicode="&#x2089;" horiz-adv-x="677" 
d="M84 199q74 -52 184 -52q131 0 158 150q-76 -45 -152 -45q-96 0 -162.5 67t-66.5 179q0 124 82 202t211 78q138 0 216.5 -95t78.5 -263q0 -189 -96 -311.5t-258 -122.5q-52 0 -108.5 12.5t-86.5 30.5v170zM246 504q0 -50 26.5 -73t67.5 -23q36 0 94 20q-6 193 -104 193
q-40 0 -62 -35t-22 -82z" />
    <glyph glyph-name="Euro" unicode="&#x20ac;" horiz-adv-x="1310" 
d="M823 -29q-237 0 -393 136t-207 387h-160v221h136v33q0 52 2 79h-138v230h170q62 244 224 378t407 134q177 0 350 -92v-316q-173 123 -335 123q-234 0 -310 -227h449l-57 -230h-426q-3 -27 -3 -55q0 -30 3 -57h450l-57 -221h-359q76 -234 328 -234q79 0 148 25.5t169 93.5
v-299q-68 -50 -172.5 -79.5t-218.5 -29.5z" />
    <glyph glyph-name="servicemark" unicode="&#x2120;" horiz-adv-x="1679" 
d="M117 795v190q34 -17 106.5 -31t126.5 -14q84 0 84 53q0 9 -3.5 16t-10.5 12.5t-14.5 9.5t-20.5 8.5t-22.5 7t-25.5 7t-26 7.5q-36 10 -59.5 19t-55.5 28t-51 42.5t-33 63t-14 89.5q0 115 84.5 184t198.5 69q59 0 123.5 -13.5t99.5 -29.5v-184q-26 17 -88.5 30t-116.5 13
q-42 0 -68 -14t-26 -41q0 -11 4.5 -19.5t13.5 -15.5t18.5 -12t25 -10t26.5 -8t29.5 -7.5t28.5 -7.5q31 -11 53 -20.5t49.5 -28.5t44.5 -42.5t29 -60.5t12 -84q0 -85 -45 -142t-111 -80t-149 -23q-102 0 -217 39zM664 772l84 772h258l120 -444l140 444h241l74 -772h-211
l-35 414l-141 -414h-158l-127 459l-41 -459h-204z" />
    <glyph glyph-name="trademark" unicode="&#x2122;" horiz-adv-x="1726" 
d="M700 772l84 772h258l121 -467l140 467h241l76 -772h-213l-35 426l-141 -426h-158l-127 473l-41 -473h-205zM281 772v596h-222v176h658v-176h-225v-596h-211z" />
    <glyph glyph-name="onethird" unicode="&#x2153;" horiz-adv-x="1363" 
d="M408 788h-209v537l-138 -37v164l228 109h119v-773zM78 0l858 1546h227l-856 -1546h-229zM969 -8q-113 0 -181 35v159q76 -45 160 -45q62 0 102 27.5t40 67.5q0 71 -115 71h-68v142h70q43 0 67.5 22.5t24.5 58.5q0 40 -27.5 62t-76.5 22q-84 0 -177 -49v148q36 32 98 50.5
t130 18.5q115 0 185.5 -53t70.5 -145q0 -109 -101 -176q117 -46 117 -168q0 -115 -90 -181.5t-229 -66.5z" />
    <glyph glyph-name="twothirds" unicode="&#x2154;" 
d="M76 788v125l170 170q55 53 84.5 98.5t29.5 102.5q0 55 -30 84t-82 29q-73 0 -170 -58v162q104 70 227 70q111 0 182.5 -65t71.5 -175q0 -170 -192 -332l-39 -32h266l-27 -179h-491zM158 0l858 1546h227l-856 -1546h-229zM1049 -8q-113 0 -181 35v159q76 -45 160 -45
q62 0 101.5 27.5t39.5 67.5q0 71 -114 71h-68v142h70q43 0 67.5 22.5t24.5 58.5q0 40 -27.5 62t-77.5 22q-83 0 -176 -49v148q36 32 98 50.5t130 18.5q115 0 185.5 -53t70.5 -145q0 -109 -101 -176q117 -46 117 -168q0 -115 -90 -181.5t-229 -66.5z" />
    <glyph glyph-name="oneeighth" unicode="&#x215b;" horiz-adv-x="1425" 
d="M410 788h-209v537l-138 -37v164l228 109h119v-773zM80 0l858 1546h227l-856 -1546h-229zM1350 233q0 -107 -86.5 -177t-231.5 -70q-116 0 -192 51t-76 147q0 116 121 162q-109 65 -109 180q0 106 79.5 181t219.5 75q116 0 190 -55.5t74 -153.5q0 -63 -32 -103t-95 -64
q138 -51 138 -173zM1069 451l33 -11q49 41 49 105q-2 39 -23.5 65.5t-60.5 26.5q-37 0 -59.5 -23.5t-22.5 -66.5q0 -42 21 -63t63 -33zM958 211q0 -42 27 -65t66 -23q44 0 67 23t23 59q0 11 -2 21t-8 17.5t-10.5 13.5t-15 11.5t-16 8.5t-19.5 7t-19 5.5t-21.5 5t-19.5 4.5
t-10.5 3t-10.5 3q-31 -48 -31 -94z" />
    <glyph glyph-name="threeeighths" unicode="&#x215c;" horiz-adv-x="1474" 
d="M262 780q-112 0 -180 35v160q76 -45 160 -45q62 0 101.5 27t39.5 67q0 72 -115 72h-67v141h69q43 0 67.5 23t24.5 59q0 40 -27.5 62t-76.5 22q-83 0 -176 -49v147q37 32 98 51t129 19q114 0 185 -53.5t71 -145.5q0 -110 -100 -176q117 -46 117 -168q0 -115 -90.5 -181.5
t-229.5 -66.5zM127 0l858 1546h227l-856 -1546h-229zM1397 233q0 -107 -86.5 -177t-231.5 -70q-116 0 -192 51t-76 147q0 116 121 162q-109 65 -109 180q0 106 79.5 181t219.5 75q116 0 190 -55.5t74 -153.5q0 -64 -31.5 -103.5t-94.5 -63.5q137 -51 137 -173zM1116 451
q4 -2 9.5 -3.5t12.5 -4t11 -3.5q49 41 49 105q-2 39 -23.5 65.5t-60.5 26.5q-37 0 -59.5 -23.5t-22.5 -66.5q0 -42 21 -63t63 -33zM1006 211q0 -42 26.5 -65t65.5 -23q44 0 67 23t23 59q0 11 -2 21t-8 17.5t-10.5 13.5t-15 11.5t-16 8.5t-19.5 7t-19 5.5t-21.5 5t-19.5 4.5
t-10.5 3t-10.5 3q-30 -47 -30 -94z" />
    <glyph glyph-name="fiveeighths" unicode="&#x215d;" horiz-adv-x="1454" 
d="M256 928q57 0 90 28t33 74q0 45 -29.5 72.5t-73.5 27.5q-39 0 -81 -20l-109 29l43 422h455l-23 -179h-280l-15 -100q12 2 39 2q131 0 205 -63t74 -174q0 -127 -92 -198t-228 -71q-96 0 -180 33v162q82 -45 172 -45zM109 0l858 1546h227l-856 -1546h-229zM1378 233
q0 -107 -86 -177t-231 -70q-116 0 -192 51t-76 147q0 117 120 162q-108 64 -108 180q0 106 79.5 181t219.5 75q116 0 190 -55.5t74 -153.5q0 -63 -32 -103t-95 -64q137 -51 137 -173zM1098 451q5 -2 32 -11q50 42 50 105q-2 39 -23.5 65.5t-60.5 26.5q-37 0 -59.5 -23.5
t-22.5 -66.5q0 -42 21 -63t63 -33zM987 211q0 -42 26.5 -65t65.5 -23q44 0 67 23t23 59q0 11 -2 21t-8 17.5t-10.5 13.5t-15 11.5t-16 8.5t-19.5 7t-19 5.5t-21.5 5t-19.5 4.5t-10 3t-10 3q-31 -48 -31 -94z" />
    <glyph glyph-name="seveneighths" unicode="&#x215e;" horiz-adv-x="1437" 
d="M305 788h-196l-5 11l273 583h-316l37 179h467l25 -105zM92 0l858 1546h228l-856 -1546h-230zM1362 233q0 -107 -86.5 -177t-231.5 -70q-116 0 -192 51t-76 147q0 116 121 162q-109 65 -109 180q0 106 79.5 181t219.5 75q116 0 190.5 -55.5t74.5 -153.5q0 -63 -32 -103
t-95 -64q137 -51 137 -173zM1081 451l33 -11q49 41 49 105q-2 39 -23.5 65.5t-60.5 26.5q-37 0 -59.5 -23.5t-22.5 -66.5q0 -42 21 -63t63 -33zM971 211q0 -42 26.5 -65t65.5 -23q44 0 67 23t23 59q0 11 -2 21t-8 17.5t-10.5 13.5t-15 11.5t-16 8.5t-19.5 7t-19 5.5t-21.5 5
t-19.5 4.5t-10.5 3t-10.5 3q-30 -47 -30 -94z" />
    <glyph glyph-name="arrowleft" unicode="&#x2190;" horiz-adv-x="1771" 
d="M846 84l-688 688v4l688 688l178 -178l-358 -377h1106v-270h-1092l348 -365z" />
    <glyph glyph-name="arrowup" unicode="&#x2191;" horiz-adv-x="1945" 
d="M283 926l688 688h4l688 -688l-178 -178l-377 358v-1106h-270v1092l-365 -349z" />
    <glyph glyph-name="arrowright" unicode="&#x2192;" horiz-adv-x="1771" 
d="M926 84l-183 190l349 365h-1092v270h1106l-358 377l178 178l688 -688v-4z" />
    <glyph glyph-name="arrowdown" unicode="&#x2193;" horiz-adv-x="1945" 
d="M283 668l190 182l365 -348v1091h270v-1106l377 359l178 -178l-688 -688h-4z" />
    <glyph glyph-name="arrowNW" unicode="&#x2196;" horiz-adv-x="1945" 
d="M430 358v973l4 2h973v-252l-520 -12l782 -782l-192 -191l-772 770l-11 -501z" />
    <glyph glyph-name="arrowNE" unicode="&#x2197;" horiz-adv-x="1945" 
d="M1509 1331v-973l-264 7l-10 503l-772 -772l-193 191l783 782l-521 12v252h973z" />
    <glyph glyph-name="arrowSE" unicode="&#x2198;" horiz-adv-x="1945" 
d="M1513 1108v-973l-4 -2h-972v252l520 12l-783 783l193 190l772 -770l10 502z" />
    <glyph glyph-name="arrowSW" unicode="&#x2199;" horiz-adv-x="1945" 
d="M430 135v973l264 -6l11 -502l772 770l192 -190l-782 -783l520 -12v-252h-973z" />
    <glyph glyph-name="minus" unicode="&#x2212;" horiz-adv-x="1069" 
d="M111 649v250h847v-250h-847z" />
    <glyph glyph-name="infinity" unicode="&#x221e;" horiz-adv-x="1581" 
d="M1108 305q-123 0 -204.5 67.5t-141.5 186.5q-28 -72 -69 -124t-87 -79.5t-90 -40t-90 -12.5q-153 0 -245.5 123.5t-92.5 335.5q0 223 102 361.5t275 138.5q68 0 123 -23t95.5 -67t69 -93t54.5 -114q52 143 137.5 220t200.5 77q155 0 251.5 -128.5t96.5 -340.5
q0 -221 -105.5 -354.5t-279.5 -133.5zM301 780q0 -117 38 -185.5t120 -68.5q65 0 129 48t104 147q-19 50 -27 69.5t-26.5 61.5t-29.5 60t-30.5 46t-36.5 40t-40.5 22t-48.5 10q-66 0 -109 -59t-43 -191zM1104 1028q-66 0 -124 -61t-101 -187q22 -59 41.5 -99.5t47 -78.5
t62.5 -57t78 -19q76 0 124 62t48 184q0 70 -16 122t-42.5 80t-56 41t-61.5 13z" />
    <glyph glyph-name="approxequal" unicode="&#x2248;" horiz-adv-x="1077" 
d="M111 831q0 151 67 247t182 96q54 0 109.5 -22t93 -48t80.5 -48t74 -22q40 0 61 29t35 98h164q0 -135 -71.5 -238.5t-182.5 -103.5q-62 0 -132.5 34.5t-130 68.5t-95.5 34q-77 0 -89 -125h-165zM111 389q0 151 67 246.5t182 95.5q54 0 109.5 -21.5t93 -48t80.5 -48
t74 -21.5q40 0 61 29t35 98h164q0 -135 -71.5 -238.5t-182.5 -103.5q-62 0 -132.5 34.5t-130 68.5t-95.5 34q-77 0 -89 -125h-165z" />
    <glyph glyph-name="notequal" unicode="&#x2260;" horiz-adv-x="1069" 
d="M109 0l161 403h-159v252h260l96 238h-356v252h456l162 401h227l-159 -401h161v-252h-264l-94 -238h358v-252h-458l-162 -403h-229z" />
    <glyph glyph-name="lessequal" unicode="&#x2264;" horiz-adv-x="1046" 
d="M80 31v250h823l-823 467v190l846 479v-268l-557 -303l557 -301v-264h2v-250h-848z" />
    <glyph glyph-name="greaterequal" unicode="&#x2265;" horiz-adv-x="1046" 
d="M106 31v250h3v266l557 301l-557 301v270l845 -479v-190l-827 -469h827v-250h-848z" />
    <glyph glyph-name="circlewhite" unicode="&#x25cb;" horiz-adv-x="1867" 
d="M938 -29q-171 0 -322 63.5t-257.5 172t-168 257t-61.5 312.5q0 165 61.5 312.5t168 254t257.5 168.5t322 62q228 0 413.5 -106t289.5 -288t104 -403q0 -164 -61.5 -312.5t-167.5 -257t-256.5 -172t-321.5 -63.5zM930 180q163 0 294.5 68t211.5 203t80 315
q0 93 -21.5 179.5t-68 163t-113 133t-162.5 89.5t-211 33q-116 0 -213.5 -33.5t-164.5 -90t-113.5 -132t-68.5 -159.5t-22 -173q0 -90 22.5 -176t69 -162t113 -133.5t161.5 -91t206 -33.5z" />
    <glyph glyph-name="checkbox" unicode="&#x2610;" horiz-adv-x="1916" 
d="M184 0v1546h1549v-1546h-1549zM426 233h1063v1102h-1063v-1102z" />
    <glyph glyph-name="checkboxchecked" unicode="&#x2611;" horiz-adv-x="1916" 
d="M184 0v1546h1549v-1546h-1549zM426 233h1063v1102h-1063v-1102zM991 311h-200l-265 598h262l123 -278l287 631h268z" />
    <glyph glyph-name="check" unicode="&#x2713;" horiz-adv-x="1916" 
d="M991 311h-200l-265 598h262l123 -278l287 631h268z" />
    <glyph glyph-name="commaaccent" unicode="&#xf6c3;" horiz-adv-x="471" 
d="M262 -475h-188q80 141 80 293v80h206v-45q0 -191 -98 -328z" />
    <glyph glyph-name="apple" unicode="&#xf8ff;" horiz-adv-x="2541" 
d="M1290 692v144h23v-41h41v-21h20v-82h-22v80h-39v-80h-23zM717 692v19h-21v61h-20v23h20v20h23v-20h41v-23h-41v-59h41v-21h-43zM1208 692v19h-20v61h-21v23h21v20h22v-20h41v-23h-41v-59h41v-21h-43zM2007 772v23h21v20h22v-22h-20v-21h-23zM1925 772v21h-20v22h22v-20
h21v-23h-23zM594 772v23h20v20h23v-22h-21v-21h-22zM512 772v21h-20v22h22v-20h21v-23h-23zM2191 772v23h23v-23h-23zM2109 772v23h23v-23h-23zM410 772v23h22v-23h-22zM328 772v23h22v-23h-22zM1679 692v19h-20v84h22v-82h39v82h23v-103h-64zM1597 651v41h-41v19h-20v63h20
v21h64v-144h-23zM922 651v144h63v-21h21v-63h-21v-19h-41v-41h-22zM799 651v23h20v37h-20v84h22v-82h39v82h23v-84h-21v-19h-20v-20h-21v-21h-22zM1434 692v19h-21v63h21v21h43v-21h20v-43h-61v-18h61v-21h-63zM1802 692v19h-20v63h20v21h43v-21h21v-43h-62v-18h62v-21h-64z
M1065 692v19h-21v63h21v21h43v-21h20v-63h-20v-19h-43zM225 711v20h-20v23h20v20h23v-20h20v-23h-20v-20h-23zM369 711v20h-21v23h21v20h22v-20h21v-23h-21v-20h-22zM2294 711v20h-21v23h21v20h22v-20h21v-23h-21v-20h-22zM2150 711v20h-20v23h20v20h23v-20h20v-23h-20v-20
h-23zM1966 711v20h-20v23h20v20h23v-20h20v-23h-20v-20h-23zM553 711v20h-21v23h21v20h22v-20h21v-23h-21v-20h-22zM944 713h39v59h-39v-59zM1067 713h39v59h-39v-59zM1436 754h39v18h-39v-18zM1559 713h38v59h-38v-59zM1804 754h39v18h-39v-18zM2028 672v20h-21v21h23v-21
h20v-20h-22zM492 672v20h20v21h23v-21h-21v-20h-22zM328 692v21h22v-21h-22zM410 692v21h22v-21h-22zM614 672v20h-20v21h22v-21h21v-20h-23zM2109 692v21h23v-21h-23zM1905 672v20h20v21h23v-21h-21v-20h-22zM2191 692v21h23v-21h-23z" />
    <glyph glyph-name="fi" unicode="&#xfb01;" horiz-adv-x="1230" 
d="M180 0v887h-147v227h147v41q0 220 97 334.5t286 114.5q56 0 117 -10t96 -23v-232q-85 31 -168 31q-75 0 -108 -43t-33 -139v-74h240v-227h-240v-887h-287zM1124 1280h-301v309h301v-309zM1118 0h-289v1114h289v-1114z" />
    <glyph glyph-name="fl" unicode="&#xfb02;" horiz-adv-x="1230" 
d="M180 0v887h-147v227h147v41q0 220 97 334.5t286 114.5q56 0 117 -10t96 -23v-232q-85 31 -168 31q-75 0 -108 -43t-33 -139v-74h240v-227h-240v-887h-287zM823 0v1593h291v-1593h-291z" />
    <glyph glyph-name="zero.zero" horiz-adv-x="1226" 
d="M596 -23q-263 0 -388.5 189.5t-125.5 583.5q0 825 536 825q121 0 212.5 -37t151 -102.5t96.5 -165.5t52 -215t15 -262q0 -399 -137.5 -607.5t-411.5 -208.5zM369 772q0 -113 10 -223l373 725q-57 69 -144 69q-67 0 -114.5 -42t-74 -121.5t-38.5 -179t-12 -228.5zM616 209
q69 0 116 41t73 121t36.5 179.5t10.5 235.5q0 122 -12 224l-377 -727q59 -74 153 -74z" />
    <glyph glyph-name="i.TRK" horiz-adv-x="507" 
d="M410 1280h-301v309h301v-309zM403 0h-288v1114h288v-1114z" />
    <glyph glyph-name="questiondown.cap" horiz-adv-x="919" 
d="M680 1544v-332h-291v332h291zM690 1036v-71q0 -75 -36 -143t-87 -120t-102 -102.5t-87 -111.5t-36 -126q0 -66 39 -97.5t133 -31.5q88 0 164 28.5t164 94.5v-258q-67 -58 -171 -92.5t-210 -34.5q-184 0 -296 100t-112 273q0 69 20 132.5t52 112t70.5 92.5t77.5 82.5
t71 74.5t52 74.5t20 76.5v47h274z" />
    <glyph glyph-name="exclamdown.cap" horiz-adv-x="561" 
d="M414 1544v-332h-289v332h289zM416 365v-367h-285v362l35 676h219z" />
    <glyph glyph-name="hyphen.cap" horiz-adv-x="837" 
d="M111 604v291h610v-291h-610z" />
    <glyph glyph-name="endash.cap" horiz-adv-x="1017" 
d="M897 905v-258h-784v258h784z" />
    <glyph glyph-name="emdash.cap" horiz-adv-x="1617" 
d="M1489 903v-258h-1376v258h1376z" />
    <glyph glyph-name="guilsinglleft.cap" horiz-adv-x="636" 
d="M297 1188h242l-211 -414l211 -420h-246l-221 418z" />
    <glyph glyph-name="guilsinglright.cap" horiz-adv-x="634" 
d="M334 362h-242l211 414l-211 420h246l219 -418z" />
    <glyph glyph-name="guillemotleft.cap" horiz-adv-x="1005" 
d="M659 1190h244l-211 -414l211 -420h-248l-219 418zM297 1190h242l-211 -414l211 -420h-246l-221 418z" />
    <glyph glyph-name="guillemotright.cap" horiz-adv-x="1005" 
d="M92 1196h244l223 -416l-219 -418h-248l211 420zM457 1196h243l224 -416l-222 -418h-245l211 420z" />
    <glyph glyph-name="caron.alt" horiz-adv-x="677" 
d="M246 1180l43 413h241l-124 -413h-160z" />
    <glyph glyph-name="acute.cap" horiz-adv-x="909" 
d="M446 1630h-221l187 312h262z" />
    <glyph glyph-name="breve.cap" horiz-adv-x="905" 
d="M453 1626q-139 0 -216.5 78t-97.5 215h185q4 -49 42 -72.5t89 -23.5q50 0 86 24.5t43 71.5h174q-18 -140 -94 -216.5t-211 -76.5z" />
    <glyph glyph-name="caron.cap" horiz-adv-x="894" 
d="M563 1626h-223l-215 324h229l103 -156l98 156h227z" />
    <glyph glyph-name="circumflex.cap" horiz-adv-x="1101" 
d="M449 1952h221l209 -324h-228l-96 158l-104 -158h-230z" />
    <glyph glyph-name="dieresis.cap" horiz-adv-x="1087" 
d="M596 1649v282h262v-282h-262zM174 1649v282h258v-282h-258z" />
    <glyph glyph-name="dotaccent.cap" horiz-adv-x="913" 
d="M313 1642v308h285v-308h-285z" />
    <glyph glyph-name="hungarumlaut.cap" horiz-adv-x="905" 
d="M266 1630h-221l180 312h267zM608 1630h-223l184 312h265z" />
    <glyph glyph-name="grave.cap" horiz-adv-x="1456" 
d="M870 1630h-221l-229 312h264z" />
    <glyph glyph-name="macron.cap" horiz-adv-x="905" 
d="M166 1655v217h563v-217h-563z" />
    <glyph glyph-name="tilde.cap" horiz-adv-x="905" 
d="M735 1964l94 -135q-112 -172 -231 -172q-49 0 -131.5 43t-134.5 43q-72 0 -127 -64l-92 125q122 166 235 166q42 0 87 -24t86.5 -48t76.5 -24q73 0 137 90z" />
    <glyph glyph-name="ring.cap" horiz-adv-x="907" 
d="M217 1874q0 117 67.5 190.5t168.5 73.5q104 0 170.5 -74.5t66.5 -191.5q0 -115 -66 -188.5t-169 -73.5q-105 0 -171.5 73t-66.5 191zM373 1878q0 -21 2.5 -40t10 -42.5t25 -38t42.5 -14.5t41.5 14t23.5 37.5t9.5 42.5t2.5 39q0 129 -79 129q-25 0 -41.5 -13.5t-24 -36
t-10 -40.5t-2.5 -37z" />
    <glyph glyph-name="parenleft.cap" horiz-adv-x="616" 
d="M575 -242h-231q-28 47 -41 69t-46.5 87t-52.5 115t-46.5 135.5t-43 166t-27 189t-11.5 221.5q0 150 19.5 289.5t45.5 235t66 191t66 144t59 105.5l4.5 7.5t3.5 6t4 6.5h231q-32 -60 -53.5 -104t-60.5 -145.5t-63 -198t-43 -241t-19 -296.5q0 -151 19 -295t43 -240.5
t63 -197.5t60.5 -145.5t53.5 -104.5z" />
    <glyph glyph-name="parenright.cap" horiz-adv-x="616" 
d="M35 1726h231q29 -48 41 -69t46 -87t53 -115.5t47 -135t43.5 -166t27 -189t11.5 -221.5q0 -108 -11 -212t-24.5 -182t-40 -162t-44 -132t-50.5 -115t-45 -88.5t-42 -72.5l-12 -21h-231q32 60 53.5 104t60.5 145.5t63 198t43 241t19 296.5q0 151 -19 295t-43 240.5
t-63 197.5t-60.5 145.5t-53.5 104.5z" />
    <glyph glyph-name="bracketleft.cap" horiz-adv-x="657" 
d="M143 -242v2063h449v-211h-193v-1641h193v-211h-449z" />
    <glyph glyph-name="bracketright.cap" horiz-adv-x="657" 
d="M508 1821v-2063h-451v211h195v1641h-195v211h451z" />
    <glyph glyph-name="braceleft.cap" horiz-adv-x="661" 
d="M55 653v230h23q52 0 75.5 22t25 62t-0.5 96l-20 455q-7 137 59 223t176 86h189v-225h-52q-133 0 -122 -146l34 -469q4 -57 -7.5 -97t-38 -63.5t-56.5 -36t-74 -20.5v-4q90 -15 136.5 -65.5t39.5 -151.5l-34 -397q-5 -33 -3 -65.5t11 -59t38 -42.5t76 -16h52v-223h-189
q-114 0 -180.5 71.5t-58.5 237.5l24 418q6 70 2 110t-26 55t-76 15h-23z" />
    <glyph glyph-name="braceright.cap" horiz-adv-x="659" 
d="M596 922v-232h-25q-50 0 -73 -22t-25 -62t0 -96l21 -453q7 -137 -59 -223t-177 -86h-188v223h53q70 0 99 40t24 106l-35 469q-4 58 6.5 98.5t37 64t56.5 35t74 19.5v4q-91 16 -136.5 66t-37.5 151l33 383q6 33 3.5 68t-11.5 63.5t-38 47t-75 18.5h-53v223h188
q53 0 96 -15.5t78.5 -49t53 -95.5t12.5 -147l-25 -418q-8 -113 7.5 -146.5t90.5 -33.5h25z" />
    </font>
</defs>
</svg>
