<?xml version="1.0" standalone="no"?>
<!DOCTYPE svg PUBLIC "-//W3C//DTD SVG 1.1//EN" "http://www.w3.org/Graphics/SVG/1.1/DTD/svg11.dtd" >
<svg xmlns="http://www.w3.org/2000/svg" xmlns:xlink="http://www.w3.org/1999/xlink" version="1.1">
<metadata>
Created by FontForge 20170731 at Sat Mar  9 21:57:44 2013
 By Aleksey,,,
Copyright (c) 1995, Jean-Francois Porchez. Caractere destine a la signaletique RATP, Paris, France.
</metadata>
<defs>
<font id="Parisine-Bold" horiz-adv-x="1146" >
  <font-face 
    font-family="Parisine"
    font-weight="700"
    font-stretch="normal"
    units-per-em="2048"
    panose-1="0 0 0 0 0 0 0 0 0 0"
    ascent="1638"
    descent="-410"
    x-height="1094"
    cap-height="1446"
    bbox="-88 -442 2302 1927"
    underline-thickness="102"
    underline-position="-409"
    unicode-range="U+000D-FB02"
  />
<missing-glyph horiz-adv-x="748" 
d="M68 0v1365h544v-1365h-544zM136 68h408v1229h-408v-1229z" />
    <glyph glyph-name=".notdef" horiz-adv-x="748" 
d="M68 0v1365h544v-1365h-544zM136 68h408v1229h-408v-1229z" />
    <glyph glyph-name="glyph1" horiz-adv-x="2048" 
 />
    <glyph glyph-name="glyph1" horiz-adv-x="2048" 
 />
    <glyph glyph-name="uni000D" unicode="&#xd;" horiz-adv-x="2048" 
 />
    <glyph glyph-name="space" unicode=" " horiz-adv-x="573" 
 />
    <glyph glyph-name="exclam" unicode="!" horiz-adv-x="573" 
d="M121 156q0 68 47.5 112.5t118.5 44.5t118.5 -44.5t47.5 -112.5q0 -67 -47.5 -111.5t-118.5 -44.5t-118.5 44.5t-47.5 111.5zM127 1516h319q0 -191 -14 -463.5t-28 -449.5l-13 -177h-207q-57 661 -57 1090z" />
    <glyph glyph-name="quotedbl" unicode="&#x22;" horiz-adv-x="995" 
d="M156 1516h262l-43 -611h-180zM578 1516h262l-41 -611h-181z" />
    <glyph glyph-name="numbersign" unicode="#" 
d="M-29 397l49 183h203l76 274h-205l49 182h205l111 410h217l-111 -410h191l108 410h217l-110 -410h205l-52 -182h-200l-78 -274h205l-50 -183h-204l-109 -397h-215l109 397h-191l-108 -397h-220l111 397h-203zM440 580h191l76 274h-193z" />
    <glyph glyph-name="dollar" unicode="$" 
d="M45 61l105 254q148 -86 317 -92v389l-61 27q-165 72 -242.5 165.5t-77.5 239.5q0 164 110.5 279t301.5 147v201h159v-190h11q211 0 383 -82l-109 -252q-138 71 -285 76v-346l88 -39q171 -76 245.5 -173t74.5 -249q0 -172 -115.5 -291.5t-322.5 -149.5v-213h-160v203h-16
q-214 0 -406 96zM344 1071q0 -41 44 -79.5t110 -61.5v282q-75 -9 -114.5 -45t-39.5 -96zM627 229q81 11 130.5 53t49.5 111q0 112 -180 168v-332z" />
    <glyph glyph-name="percent" unicode="%" horiz-adv-x="1740" 
d="M29 1004q0 66 8 124.5t31.5 122t61 109t103 75t150.5 29.5t150.5 -29.5t103 -75t61 -109t31.5 -122t8 -124.5q0 -65 -8 -123.5t-31.5 -122.5t-61 -109.5t-103 -75.5t-150.5 -30t-150.5 30t-103 75.5t-61 109.5t-31.5 122.5t-8 123.5zM258 1004q0 -31 0.5 -51.5t4 -59.5
t11.5 -65t21 -54t35.5 -42.5t52.5 -14.5q29 0 51.5 14.5t35 42.5t21 54t11.5 65t3.5 59.5t0.5 51.5q0 48 -2 81q-11 203 -121 203q-26 0 -46.5 -12t-33.5 -28t-22.5 -45t-13.5 -49.5t-6.5 -55.5t-2.5 -49.5v-44.5zM330 0l876 1446h205l-876 -1446h-205zM1004 442
q0 65 8 123.5t31.5 122.5t61 109.5t103 75.5t150.5 30t150.5 -30t103 -75.5t61 -109.5t31.5 -122.5t8 -123.5q0 -66 -8 -124.5t-31.5 -122t-61 -109t-103 -75t-150.5 -29.5t-150.5 29.5t-103 75t-61 109t-31.5 122t-8 124.5zM1235 398.5q0 -14.5 2.5 -49.5t6.5 -56t13 -49.5
t22 -45t33 -28.5t46 -12t46.5 12t33.5 28t22.5 45t13.5 49.5t6.5 55.5t2.5 49.5v44.5q0 47 -2 78q-2 34 -7.5 65t-17.5 66.5t-37.5 56.5t-60.5 21q-29 0 -51.5 -14.5t-35 -42.5t-21 -54t-11.5 -65t-3.5 -59.5t-0.5 -51.5v-43.5z" />
    <glyph glyph-name="ampersand" unicode="&#x26;" horiz-adv-x="1433" 
d="M90 412q0 258 254 397q-60 76 -89.5 144.5t-29.5 174.5t60.5 190.5t154 127.5t199.5 43q72 0 140 -20t128 -60t96.5 -111t36.5 -163q0 -73 -25 -132.5t-73.5 -105t-98 -76.5t-120.5 -65q97 -114 276 -293q82 151 66 330h264q12 -128 -25.5 -260.5t-117.5 -247.5
q99 -92 319 -285h-372l-121 109q-189 -138 -402 -138q-150 0 -267 51.5t-185 152.5t-68 237zM371 432q0 -91 73.5 -157t165.5 -66q124 0 219 67q-217 206 -352 367q-106 -61 -106 -211zM496 1135q0 -47 17 -92t35 -71t48 -61q90 47 137 101.5t47 138.5q0 56 -40.5 98.5
t-100.5 42.5q-62 0 -102.5 -43t-40.5 -114z" />
    <glyph glyph-name="quotesingle" unicode="'" horiz-adv-x="573" 
d="M156 1516h262l-45 -611h-172z" />
    <glyph glyph-name="parenleft" unicode="(" horiz-adv-x="573" 
d="M33 612q0 498 295 904h219q-57 -91 -100.5 -178t-86.5 -201.5t-66.5 -249t-23.5 -277.5q0 -140 23.5 -271.5t66.5 -245.5t86.5 -200t100.5 -180h-219q-295 406 -295 899z" />
    <glyph glyph-name="parenright" unicode=")" horiz-adv-x="573" 
d="M33 -287q57 92 101 179.5t86.5 201t65.5 245t23 271.5q0 144 -23 278t-65.5 248t-86.5 202t-101 178h219q295 -406 295 -904q0 -493 -295 -899h-219z" />
    <glyph glyph-name="asterisk" unicode="*" horiz-adv-x="819" 
d="M59 1188l50 162l204 -68v234h189v-234l207 68l51 -162l-211 -64l135 -190l-137 -100l-137 182l-140 -182l-141 100l139 190z" />
    <glyph glyph-name="plus" unicode="+" 
d="M25 408v270h409v405h275v-405h413v-270h-411v-408h-275v408h-411z" />
    <glyph glyph-name="comma" unicode="," horiz-adv-x="573" 
d="M20 -287q105 119 151 214.5t46 187.5q0 87 -43 184h281q30 -62 30 -135q0 -263 -221 -451h-244z" />
    <glyph glyph-name="hyphen" unicode="-" horiz-adv-x="573" 
d="M18 436v271h537v-271h-537z" />
    <glyph glyph-name="period" unicode="." horiz-adv-x="573" 
d="M113 152q0 71 47.5 117t126.5 46q78 0 125 -45.5t47 -117.5t-47 -118t-125 -46t-126 46t-48 118z" />
    <glyph glyph-name="slash" unicode="/" horiz-adv-x="614" 
d="M-68 0l494 1446h231l-495 -1446h-230z" />
    <glyph glyph-name="zero" unicode="0" 
d="M47 719q0 76 6.5 147.5t23 148.5t42 142t67.5 125t96 102t129.5 66.5t166.5 24.5t166 -24.5t128 -66.5t94 -102t66 -125t40.5 -142.5t21.5 -148t6 -147.5q0 -76 -6.5 -147.5t-23 -148.5t-42 -142t-67.5 -125t-96 -102t-129.5 -66.5t-166.5 -24.5t-166 24.5t-128 66.5
t-94 102t-66 125t-40.5 142.5t-21.5 148t-6 147.5zM358 719q0 -40 1 -75t6 -90t13 -99t24.5 -92.5t38.5 -81.5t56 -54.5t76 -21.5q213 0 213 514q0 512 -213 512q-215 0 -215 -512z" />
    <glyph glyph-name="one" unicode="1" 
d="M74 1178l88 41q116 54 224 118.5t165 108.5h252v-1446h-307v1137q-55 -44 -248 -142l-76 -39z" />
    <glyph glyph-name="two" unicode="2" 
d="M59 1292q107 93 213.5 135.5t249.5 42.5q77 0 149 -17t135 -52.5t109.5 -86.5t73.5 -123.5t27 -158.5q0 -41 -5 -77.5t-17.5 -70.5t-24 -61t-35.5 -58t-39.5 -51t-48 -51.5t-50 -47.5t-56 -50.5t-56.5 -50.5q-3 -3 -49 -44t-64 -59.5t-52 -54t-51 -63t-22 -51.5h596v-242
h-938v190q11 49 38.5 100t59.5 93t87.5 98t97 93t113.5 100q44 39 73 68t61.5 71t49 88t16.5 96q0 98 -62.5 162t-176.5 64q-132 0 -250 -131z" />
    <glyph glyph-name="three" unicode="3" 
d="M66 80l110 223q122 -94 285 -94q124 0 198 59.5t74 153.5q0 116 -76 167.5t-198 51.5h-150v240h152q106 0 167.5 48.5t61.5 131.5q0 74 -56.5 123t-164.5 49q-148 0 -268 -105l-101 213q197 129 435 129q213 0 337.5 -106t124.5 -258q0 -114 -59.5 -197t-173.5 -125v-4
q126 -24 203 -115t77 -237q0 -194 -157.5 -325.5t-405.5 -131.5q-130 0 -224 27t-191 82z" />
    <glyph glyph-name="four" unicode="4" 
d="M23 301v268l561 877h368v-920h178v-225h-178v-301h-278v301h-651zM270 526h404v666h-4q-5 -21 -35 -80.5t-70 -122.5z" />
    <glyph glyph-name="five" unicode="5" 
d="M98 76l107 225q65 -43 128 -67.5t146 -24.5q45 0 88 13t81 39.5t61.5 73t23.5 107.5q0 43 -16 83.5t-51.5 79t-104.5 62.5t-164 25l-225 2l57 752h760v-240h-520l-20 -276l40 -2q143 -7 252.5 -48.5t174 -106.5t96.5 -141.5t32 -160.5q0 -138 -67.5 -251.5t-193.5 -181
t-287 -67.5q-210 0 -398 105z" />
    <glyph glyph-name="six" unicode="6" 
d="M74 623q0 254 75.5 442t231.5 295.5t379 107.5q114 0 215 -24l-45 -246q-85 35 -195 35q-154 0 -253.5 -112t-112.5 -324q112 98 295 98t305.5 -115.5t122.5 -312.5q0 -219 -135 -359.5t-355 -140.5q-142 0 -246 48t-164.5 137.5t-89 205.5t-28.5 265zM371 465
q0 -110 59.5 -190t161.5 -80q99 0 155 70.5t56 170.5q0 102 -62.5 167t-165.5 65q-64 0 -114.5 -22.5t-73.5 -57.5q-16 -25 -16 -123z" />
    <glyph glyph-name="seven" unicode="7" 
d="M70 1204v242h1011v-236q-510 -886 -510 -1210h-329q0 136 38.5 248t139.5 301l352 655h-702z" />
    <glyph glyph-name="eight" unicode="8" 
d="M63 379q0 249 248 377q-101 63 -151.5 135.5t-50.5 179.5q0 117 64.5 211t170 144.5t229.5 50.5q130 0 233.5 -40.5t167.5 -126.5t64 -206q0 -198 -204 -322q111 -53 180 -144t69 -224q0 -203 -145 -325t-371 -122q-232 0 -368 120t-136 292zM354 412q0 -95 58.5 -163.5
t158.5 -68.5q99 0 156 60.5t57 150.5q0 47 -19 87t-56.5 72.5t-74.5 55t-91 49.5q-77 -30 -133 -96.5t-56 -146.5zM393 1098q0 -42 19 -78t53.5 -63t66 -44.5t72.5 -35.5q62 29 110 87t48 121q0 78 -49 130.5t-135 52.5q-84 0 -134.5 -47t-50.5 -123z" />
    <glyph glyph-name="nine" unicode="9" 
d="M66 977q0 219 134.5 359.5t354.5 140.5q142 0 246 -48t164.5 -137.5t89 -205.5t28.5 -265q0 -190 -43.5 -344.5t-128 -266.5t-215.5 -173.5t-299 -61.5q-110 0 -215 25l45 246q85 -35 195 -35q154 0 253.5 112t112.5 324q-112 -98 -294 -98q-183 0 -305.5 115.5
t-122.5 312.5zM354 1008q0 -102 62.5 -167t165.5 -65q64 0 114.5 22.5t73.5 57.5q16 25 16 123q0 110 -59.5 190t-161.5 80q-99 0 -155 -70.5t-56 -170.5z" />
    <glyph glyph-name="colon" unicode=":" horiz-adv-x="573" 
d="M113 152q0 71 47.5 117t126.5 46q78 0 125 -45.5t47 -117.5t-47 -118t-125 -46t-126 46t-48 118zM113 930q0 72 48 118t126 46t125 -46t47 -118t-47 -118t-125 -46t-126 46t-48 118z" />
    <glyph glyph-name="semicolon" unicode=";" horiz-adv-x="573" 
d="M20 -287q105 119 151 214.5t46 187.5q0 87 -43 184h281q30 -62 30 -135q0 -263 -221 -451h-244zM141 930q0 72 48 118t126 46t125 -46t47 -118t-47 -118t-125 -46t-126 46t-48 118z" />
    <glyph glyph-name="less" unicode="&#x3c;" 
d="M18 412v260l1110 448v-289l-747 -288l747 -291v-289z" />
    <glyph glyph-name="equal" unicode="=" 
d="M27 176v273h1095v-273h-1095zM27 635v272h1095v-272h-1095z" />
    <glyph glyph-name="greater" unicode="&#x3e;" 
d="M18 -37v289l750 291l-750 288v289l1110 -450v-258z" />
    <glyph glyph-name="question" unicode="?" horiz-adv-x="1024" 
d="M78 1405q194 129 418 129q84 0 163 -26.5t143 -75t103 -125.5t39 -170q0 -157 -121 -299q-29 -34 -70.5 -72t-67.5 -59t-79 -62q-16 -200 -16 -219h-211l-25 301q16 14 56 45t68 55t52 50q99 103 99 217q0 87 -55 146.5t-148 59.5q-137 0 -240 -108zM315 158q0 69 47 113
t119 44t119.5 -41.5t48.5 -107.5q1 -74 -46 -120t-120 -46t-120.5 44.5t-47.5 113.5z" />
    <glyph glyph-name="at" unicode="@" horiz-adv-x="1740" 
d="M160 651q-13 131 12 255.5t86.5 228.5t151.5 183t215 123t270 44q155 0 283.5 -46t216 -128t140 -192t64.5 -240q24 -246 -96.5 -394.5t-353.5 -148.5q-105 0 -129 94q-46 -49 -101.5 -76.5t-138.5 -27.5q-108 0 -178 67t-70 168q0 61 27 107.5t69 74t100 45t111.5 23.5
t112.5 6h11h11t8.5 0.5t8 2t5.5 3.5t4 6t1 9v45q0 52 -33 73t-112 21q-105 0 -205 -70l-73 150q135 82 331 82q39 0 76 -5.5t80 -23t74 -45.5t52 -77.5t21 -113.5v-339q0 -48 25 -48q58 0 101 38.5t63.5 97.5t28.5 122t2 119q-10 105 -50.5 193t-108 153.5t-167 102.5
t-221.5 37t-229.5 -48.5t-184.5 -135t-115.5 -217t-23.5 -283.5q14 -134 65 -238.5t130.5 -170t180 -99t216.5 -33.5q89 0 187.5 21.5t172.5 56.5l49 -142q-169 -84 -438 -84q-147 0 -273.5 43.5t-224 127t-159.5 212t-78 291.5zM754 578q0 -39 28.5 -64t71.5 -25
q59 0 102 36t43 93v60h-59q-186 0 -186 -100z" />
    <glyph glyph-name="A" unicode="A" horiz-adv-x="1396" 
d="M12 0l512 1448h346l514 -1448h-342l-90 274h-534l-90 -274h-316zM498 514h376l-149 461q-37 113 -37 182h-4q0 -65 -37 -182z" />
    <glyph glyph-name="B" unicode="B" horiz-adv-x="1361" 
d="M147 0v1446h541q524 0 524 -367q0 -107 -70.5 -186.5t-160.5 -95.5v-4q120 -16 199.5 -106.5t79.5 -237.5q0 -88 -24.5 -159.5t-69 -119.5t-100 -82t-125 -53t-136 -27t-139.5 -8h-519zM469 240h186q50 0 87.5 4.5t76 18t63.5 36.5t40.5 63t15.5 95q0 43 -14 76t-41 52.5
t-54.5 32t-66.5 17.5t-64 6.5t-59 1.5h-170v-403zM469 872h160q34 0 50.5 0.5t51.5 3.5t54 8.5t46 17.5t41 29t24.5 44t10.5 61q0 28 -7 51t-16 39.5t-27.5 29.5t-32 21t-40 13.5t-39.5 8t-43 4t-39.5 1.5h-37.5h-156v-332z" />
    <glyph glyph-name="C" unicode="C" horiz-adv-x="1290" 
d="M92 707q0 123 27.5 235t85.5 210t141.5 170t202 113.5t260.5 41.5q228 0 414 -84l-105 -265q-144 78 -291 78q-87 0 -157 -29.5t-115 -77.5t-75.5 -112.5t-43 -132t-12.5 -139.5q0 -110 34.5 -201t93.5 -151t135.5 -92.5t162.5 -32.5q162 0 291 77l82 -247
q-83 -42 -198 -71.5t-216 -29.5q-162 0 -297 56t-227 154t-142.5 234.5t-50.5 295.5z" />
    <glyph glyph-name="D" unicode="D" horiz-adv-x="1538" 
d="M147 0v1446h422q81 0 137 -2t155.5 -16t170 -39t154.5 -76.5t136 -122t88 -182.5t36 -252q0 -132 -26.5 -241t-72 -186t-113.5 -136t-142.5 -95t-167 -58.5t-180.5 -31t-189 -8.5h-408zM469 250h156q111 0 195.5 23t153.5 76.5t105.5 150.5t36.5 235q0 84 -18 153
t-47 116t-71 82t-85.5 55t-95.5 32.5t-95 16.5t-90 4h-145v-944z" />
    <glyph glyph-name="E" unicode="E" horiz-adv-x="1196" 
d="M147 0v1446h895v-260h-573v-297h553v-250h-553v-379h604v-260h-926z" />
    <glyph glyph-name="F" unicode="F" horiz-adv-x="1163" 
d="M147 0v1446h906v-262h-584v-326h563v-258h-563v-600h-322z" />
    <glyph glyph-name="G" unicode="G" horiz-adv-x="1468" 
d="M92 707q0 123 27.5 235t86.5 210.5t145 171t211 114t276 41.5q145 0 251.5 -25.5t219.5 -73.5l-101 -254q-172 93 -346 93q-111 0 -196 -38t-138 -106.5t-79.5 -159t-26.5 -200.5q0 -229 115 -362.5t292 -133.5q116 0 187 23v245h-260v261h565v-689q-91 -35 -232.5 -62.5
t-279.5 -27.5q-176 0 -314 55t-225.5 154.5t-132.5 233t-45 295.5z" />
    <glyph glyph-name="H" unicode="H" horiz-adv-x="1531" 
d="M147 0v1446h322v-551h594v551h321v-1446h-321v637h-594v-637h-322z" />
    <glyph glyph-name="I" unicode="I" horiz-adv-x="630" 
d="M156 0v1446h319v-1446h-319z" />
    <glyph glyph-name="J" unicode="J" horiz-adv-x="780" 
d="M4 -14l8 237q18 -1 35 -1q120 0 188 68q78 78 78 251v905h320v-932q0 -87 -19.5 -165t-66.5 -149.5t-117.5 -121t-179.5 -74.5q-83 -20 -182 -20q-31 0 -64 2z" />
    <glyph glyph-name="K" unicode="K" horiz-adv-x="1363" 
d="M147 0v1446h320v-645l508 645h379l-549 -645l545 -801h-400l-379 612l-104 -120v-492h-320z" />
    <glyph glyph-name="L" unicode="L" horiz-adv-x="1073" 
d="M147 0v1446h320v-1186h586v-260h-906z" />
    <glyph glyph-name="M" unicode="M" horiz-adv-x="1853" 
d="M143 0l50 1446h356l323 -877q55 -150 58 -200h4q12 69 57 200l297 877h365l57 -1446h-309l-21 834v34v76q2 76 2 80h-4q-13 -90 -49 -190l-303 -834h-227l-310 848q-27 73 -40 168h-5q0 -12 2 -80q1 -41 0 -66v-28l-24 -842h-279z" />
    <glyph glyph-name="N" unicode="N" horiz-adv-x="1531" 
d="M147 0v1446h289l516 -746q119 -169 133 -231h5v977h294v-1446h-294l-547 762q-74 104 -94 180h-5v-942h-297z" />
    <glyph glyph-name="O" unicode="O" horiz-adv-x="1531" 
d="M92 725q0 163 41 295t107.5 217.5t156 144t182 83t189.5 24.5q112 0 208.5 -24.5t183 -81t148 -143t97 -218t35.5 -297.5q0 -163 -41 -295t-107.5 -217.5t-156 -144t-182 -83t-189.5 -24.5q-112 0 -208.5 24.5t-183 81t-148 143t-97 218t-35.5 297.5zM422 725
q0 -84 10.5 -156.5t36 -137.5t64 -110.5t98 -72.5t135.5 -27q77 0 137 27t98.5 72.5t63.5 111t35 137t10 156.5q0 84 -10.5 156.5t-36 137.5t-64 110.5t-98 72.5t-135.5 27q-77 0 -137 -27t-98.5 -72.5t-63.5 -111t-35 -137t-10 -156.5z" />
    <glyph glyph-name="P" unicode="P" horiz-adv-x="1245" 
d="M147 0v1446h416h12q35 0 57.5 -0.5t73 -4t88 -11t90.5 -23t91.5 -37t80 -56t68 -78t43.5 -105t17 -134.5q0 -87 -20.5 -159t-54.5 -122t-83 -88t-100.5 -60t-113 -36t-115 -19t-111.5 -5h-119v-508h-320zM467 760h127q39 0 74.5 5t73 20t64.5 39t44.5 64.5t17.5 94.5
q0 221 -278 221h-123v-444z" />
    <glyph glyph-name="Q" unicode="Q" horiz-adv-x="1531" 
d="M92 725q0 163 41 295t107.5 217.5t156 144t182 83t189.5 24.5q112 0 208.5 -24.5t183 -81t148 -143t97 -218t35.5 -297.5q0 -141 -30 -259t-84.5 -202.5t-122.5 -143.5t-150 -97q56 -69 141.5 -159t128.5 -130l-319 -58q-39 45 -104 135t-103 150h-33q-112 0 -208.5 24.5
t-183 81t-148 143t-97 218t-35.5 297.5zM422 725q0 -84 10.5 -156.5t36 -137.5t64 -110.5t98 -72.5t135.5 -27q77 0 137 27t98.5 72.5t63.5 111t35 137t10 156.5q0 84 -10.5 156.5t-36 137.5t-64 110.5t-98 72.5t-135.5 27q-77 0 -137 -27t-98.5 -72.5t-63.5 -111t-35 -137
t-10 -156.5z" />
    <glyph glyph-name="R" unicode="R" horiz-adv-x="1366" 
d="M147 0v1446h447q61 0 111 -2.5t115 -12.5t116 -26.5t103.5 -47.5t86.5 -73t56 -105t22 -141q0 -83 -28.5 -150t-74.5 -108.5t-92 -66t-94 -35.5q58 -98 197 -308.5t250 -369.5h-387l-293 506q-30 51 -59.5 68.5t-65.5 17.5h-90v-592h-320zM467 829h156q50 0 93 8.5t83 29
t63 60t23 95.5q0 47 -18 81t-44.5 53t-66 30.5t-74.5 14.5t-78 3h-137v-375z" />
    <glyph glyph-name="S" unicode="S" horiz-adv-x="1142" 
d="M90 63l88 250q65 -40 159.5 -67t188.5 -27q109 0 173.5 41t64.5 129q0 60 -36.5 97t-133.5 79l-154 68q-166 73 -246.5 169.5t-80.5 241.5q0 190 143.5 312.5t378.5 122.5q230 0 395 -82l-94 -248q-145 76 -313 76q-103 0 -156 -39.5t-53 -102.5q0 -29 11 -53.5t23 -39
t41 -32.5t42.5 -24t50.5 -23l153 -67q166 -73 246 -170.5t80 -233.5q0 -125 -46 -218.5t-126 -147.5t-178.5 -80.5t-214.5 -26.5q-214 0 -406 96z" />
    <glyph glyph-name="T" unicode="T" horiz-adv-x="1249" 
d="M20 1186v260h1209v-260h-445v-1186h-319v1186h-445z" />
    <glyph glyph-name="U" unicode="U" horiz-adv-x="1523" 
d="M139 547v899h322v-889q0 -74 17 -133t53 -105t97 -71t144 -25q301 0 301 334v889h311v-899q0 -293 -152.5 -438.5t-467.5 -145.5t-470 145.5t-155 438.5z" />
    <glyph glyph-name="V" unicode="V" horiz-adv-x="1398" 
d="M20 1446h342l261 -789q59 -182 84 -321h4q24 130 84 317l262 793h321l-510 -1448h-336z" />
    <glyph glyph-name="W" unicode="W" horiz-adv-x="1804" 
d="M41 1446h324l129 -852q22 -153 26 -219h4q3 56 35 219l182 852h324l188 -815q33 -137 43 -256h4q6 78 35 254l129 817h299l-299 -1448h-346l-186 883q-23 102 -35 213h-4q-6 -75 -35 -211l-196 -885h-349z" />
    <glyph glyph-name="X" unicode="X" horiz-adv-x="1243" 
d="M0 0l430 735l-410 711h381l226 -485l227 485h363l-410 -698l436 -748h-387l-242 508l-252 -508h-362z" />
    <glyph glyph-name="Y" unicode="Y" horiz-adv-x="1239" 
d="M0 1446h377l260 -625l250 625h352l-453 -903v-543h-319v543z" />
    <glyph glyph-name="Z" unicode="Z" horiz-adv-x="1216" 
d="M82 0v233l661 953h-645v260h1032v-229l-661 -957h666v-260h-1053z" />
    <glyph glyph-name="bracketleft" unicode="[" horiz-adv-x="573" 
d="M72 -287v1803h430v-183h-211v-1437h211v-183h-430z" />
    <glyph glyph-name="backslash" unicode="\" horiz-adv-x="573" 
d="M-88 1516h229l521 -1516h-232z" />
    <glyph glyph-name="bracketright" unicode="]" horiz-adv-x="573" 
d="M72 -104h211v1437h-211v183h430v-1803h-430v183z" />
    <glyph glyph-name="asciicircum" unicode="^" 
d="M82 635l375 885h233l375 -885h-266l-224 547l-225 -547h-268z" />
    <glyph glyph-name="underscore" unicode="_" 
d="M-8 -125h1163v-162h-1163v162z" />
    <glyph glyph-name="grave" unicode="`" 
d="M336 1516h313l225 -318h-210z" />
    <glyph glyph-name="a" unicode="a" horiz-adv-x="1132" 
d="M72 295q0 72 23.5 129t66.5 95t95 64.5t117.5 40t125 19.5t125.5 6q39 0 55 6.5t16 32.5v76q0 65 -50 102t-150 37q-85 0 -155.5 -30.5t-115.5 -69.5l-94 198q96 61 199.5 88t236.5 27q52 0 101.5 -8t106 -32.5t98 -63.5t69 -108t27.5 -159v-491q0 -35 7.5 -53.5
t31.5 -18.5q14 0 47 11l16 -187q-112 -26 -182 -26q-73 0 -115 40t-55 109q-72 -85 -144.5 -124.5t-179.5 -39.5q-143 0 -233 94.5t-90 235.5zM356 317q0 -60 39 -98.5t99 -38.5q96 0 153 60q47 50 47 129v104h-86q-43 0 -82.5 -6.5t-80 -22t-65 -48.5t-24.5 -79z" />
    <glyph glyph-name="b" unicode="b" horiz-adv-x="1222" 
d="M145 0v1516h289v-572q61 88 130.5 134t166.5 46q103 0 183.5 -50t127.5 -133t71 -180t24 -200q0 -77 -16 -155.5t-53 -157.5t-90.5 -139t-136.5 -98t-184 -38q-62 0 -127 23t-106 61v-57h-279zM434 322q0 -63 42 -103.5t134 -40.5q66 0 112.5 31.5t70 84.5t33.5 108
t10 118q0 50 -4.5 94.5t-18.5 94.5t-36.5 85.5t-62 59t-91.5 23.5q-78 0 -134 -56q-35 -33 -45 -61.5t-10 -79.5v-358z" />
    <glyph glyph-name="c" unicode="c" horiz-adv-x="999" 
d="M86 530q0 116 31 218.5t93 186t166 132.5t238 49q172 0 328 -78l-100 -243q-105 71 -209 71q-120 0 -185 -91.5t-65 -237.5t81 -233t185 -87q110 0 211 64l80 -222q-52 -34 -146 -62t-180 -28q-164 0 -285 74t-182 200t-61 287z" />
    <glyph glyph-name="d" unicode="d" horiz-adv-x="1222" 
d="M86 557q0 80 16 157.5t52.5 152t90.5 130.5t136.5 90.5t183.5 34.5q64 0 124 -21t99 -59v474h289v-1516h-268v162q-65 -97 -132 -145t-171 -48q-89 0 -161.5 37t-119.5 96t-79 137.5t-46 158t-14 159.5zM387 594q0 -35 2 -67.5t8 -71.5t16 -71.5t27 -64t39.5 -53.5
t55 -35.5t71.5 -13.5q72 0 131 55q31 31 41 62.5t10 79.5v358q0 141 -186 141q-215 0 -215 -319z" />
    <glyph glyph-name="e" unicode="e" horiz-adv-x="1136" 
d="M86 537q0 112 30.5 213.5t90.5 185.5t159.5 134t225.5 50q98 0 177.5 -29t132 -77t87.5 -114.5t50.5 -138t15.5 -149.5q0 -77 -6 -118h-676q2 -126 83.5 -208.5t229.5 -82.5q69 0 143.5 21.5t124.5 49.5l78 -219q-185 -86 -389 -86q-255 0 -406 155.5t-151 412.5z
M367 684h415q1 12 1 24q-1 78 -47 140q-54 72 -156 72q-58 0 -102 -23t-66.5 -59.5t-33.5 -75.5t-11 -78z" />
    <glyph glyph-name="f" unicode="f" horiz-adv-x="784" 
d="M20 868v205h185v82q0 111 63 200t163 136t212 47q145 0 277 -47l-68 -219q-90 49 -184 49q-86 0 -131 -42t-45 -116v-90h251v-205h-247v-868h-289v868h-187z" />
    <glyph glyph-name="g" unicode="g" horiz-adv-x="1116" 
d="M61 -141q0 86 44 139.5t108 79.5q-44 22 -76.5 67.5t-32.5 106.5q0 143 119 227q-108 102 -108 269q0 160 111.5 268t316.5 108q143 0 231 -51h301v-205h-131q21 -66 21 -118q0 -77 -27.5 -144t-79.5 -119t-135.5 -82t-187.5 -30q-68 0 -142 20q-23 8 -36.5 6.5
t-30.5 -20.5q-17 -17 -17 -53q0 -37 27 -60.5t76 -23.5h342q136 0 220.5 -75t84.5 -210q0 -79 -30.5 -144t-81.5 -109t-119.5 -74.5t-142 -44t-150.5 -13.5q-56 0 -115 7.5t-125 28t-116.5 51.5t-84 82.5t-33.5 115.5zM299 -88q0 -41 25 -72.5t64 -48t79 -24t78 -7.5
q134 0 199 44.5t65 105.5q0 54 -33 80t-88 26h-315q-33 0 -53.5 -26t-20.5 -78zM385 748q0 -36 7.5 -68.5t23.5 -63.5t47.5 -49t73.5 -18q56 0 93 34t50.5 77t13.5 90q0 49 -12 90.5t-47.5 74.5t-91.5 33q-42 0 -74.5 -19t-49.5 -50t-25.5 -64t-8.5 -67z" />
    <glyph glyph-name="h" unicode="h" horiz-adv-x="1224" 
d="M145 0v1516h289v-566q118 174 309 174q89 0 156 -29t107 -81t59.5 -119.5t19.5 -149.5v-745h-288v686q0 188 -166 188q-84 0 -137 -53q-39 -38 -49.5 -67t-10.5 -88v-666h-289z" />
    <glyph glyph-name="i" unicode="i" horiz-adv-x="620" 
d="M145 1384q0 67 44.5 109.5t117.5 42.5t116.5 -42.5t43.5 -109.5t-43.5 -109t-116.5 -42t-117.5 42t-44.5 109zM162 0v1094h289v-1094h-289z" />
    <glyph glyph-name="j" unicode="j" horiz-adv-x="620" 
d="M-57 -229q120 11 171.5 73t51.5 199v1051h289v-1039q0 -84 -14 -152t-48.5 -129t-88.5 -104t-137.5 -72.5t-193.5 -39.5zM150 1384q0 67 44 109.5t117 42.5t116.5 -42.5t43.5 -109.5t-43.5 -109t-116.5 -42t-117 42t-44 109z" />
    <glyph glyph-name="k" unicode="k" horiz-adv-x="1114" 
d="M145 0v1516h289v-838l303 416h336l-346 -424l371 -670h-342l-246 489l-76 -100v-389h-289z" />
    <glyph glyph-name="l" unicode="l" horiz-adv-x="579" 
d="M145 0v1516h289v-1516h-289z" />
    <glyph glyph-name="m" unicode="m" horiz-adv-x="1798" 
d="M145 0v1094h252v-162q60 94 134.5 141t183.5 47q214 0 295 -196q130 196 319 196q168 0 249 -103t81 -274v-743h-287v684q0 186 -149 186q-76 0 -123 -51q-35 -37 -44 -67.5t-9 -87.5v-664h-289v684q0 186 -148 186q-78 0 -125 -51q-35 -38 -44 -67t-9 -88v-664h-287z
" />
    <glyph glyph-name="n" unicode="n" horiz-adv-x="1220" 
d="M145 0v1094h267v-164q127 190 329 190q89 0 155.5 -28.5t106.5 -80.5t59 -119t19 -149v-743h-286v684q0 89 -37.5 137.5t-126.5 48.5q-82 0 -139 -53q-40 -38 -50 -66t-10 -87v-664h-287z" />
    <glyph glyph-name="o" unicode="o" horiz-adv-x="1218" 
d="M86 543q0 118 33.5 221.5t97 184.5t166 128t231.5 47q130 0 231.5 -46.5t163 -127t93 -183.5t31.5 -222q0 -118 -33.5 -222t-97.5 -185.5t-166.5 -129t-231.5 -47.5q-130 0 -231 46.5t-162.5 128t-93 185t-31.5 222.5zM385 543q0 -65 9 -122t31.5 -113t68 -89t110.5 -33
t112.5 33.5t72.5 89t36 114.5t11 122q0 50 -5.5 96t-21 94.5t-39.5 83.5t-65 57.5t-93 22.5t-93 -22.5t-65.5 -58t-40.5 -84t-22 -95t-6 -96.5z" />
    <glyph glyph-name="p" unicode="p" horiz-adv-x="1222" 
d="M145 -410v1504h269v-170q62 97 135.5 146.5t181.5 49.5q103 0 183.5 -50t127.5 -133t71 -180t24 -200q0 -77 -16 -155.5t-53 -157.5t-90.5 -139t-136.5 -98t-184 -38q-62 0 -123 20t-100 58v-457h-289zM434 317q0 -63 42 -102t134 -39q66 0 112.5 31t70 84t33.5 107.5
t10 117.5q0 49 -4.5 94t-19 94.5t-37 85t-62.5 59t-92 23.5q-73 0 -132 -55q-35 -34 -45 -61.5t-10 -77.5v-361z" />
    <glyph glyph-name="q" unicode="q" horiz-adv-x="1220" 
d="M86 553q0 80 16 157.5t52.5 152.5t90.5 131.5t136.5 91t183.5 34.5q61 0 126 -23.5t106 -64.5v62h278v-1504h-289v555q-62 -90 -124 -134t-158 -44q-89 0 -161 36.5t-119 95.5t-79 137t-45.5 157.5t-13.5 159.5zM385 590q0 -50 4.5 -96t19 -99t37.5 -91t64.5 -63.5
t95.5 -25.5q74 0 131 53q31 31 40 62.5t9 81.5v356q0 143 -184 143q-217 0 -217 -321z" />
    <glyph glyph-name="r" unicode="r" horiz-adv-x="800" 
d="M145 1094h258v-168q39 61 70 97.5t83 64.5t116 28q46 0 104 -20l-76 -287q-3 1 -17.5 7.5t-24 10.5t-25 7.5t-29.5 3.5q-76 0 -119 -43q-41 -43 -41 -140v-655h-288v817q0 42 -2 97.5t-5 111t-4 68.5z" />
    <glyph glyph-name="s" unicode="s" horiz-adv-x="931" 
d="M74 47l88 215q53 -37 122.5 -59.5t133.5 -22.5q42 0 77.5 9t63 35.5t27.5 66.5q0 16 -4 29.5t-14 24t-18.5 18.5t-25 16t-25 12t-28.5 11.5t-25 9.5l-129 49q-219 83 -219 289q0 157 120 262.5t310 105.5q155 0 295 -71l-88 -211q-46 30 -106.5 47.5t-114.5 17.5
q-72 0 -112 -27.5t-40 -76.5q0 -40 28.5 -64t86.5 -45l133 -49q118 -44 181 -118.5t63 -192.5q0 -163 -123.5 -264t-335.5 -101q-94 0 -180.5 25.5t-140.5 58.5z" />
    <glyph glyph-name="t" unicode="t" horiz-adv-x="808" 
d="M16 866v205h191v223l285 92v-315h247v-205h-247v-530q0 -75 32.5 -104t89.5 -29q56 0 125 22l29 -211q-106 -28 -250 -28q-149 0 -232 80t-83 235v565h-187z" />
    <glyph glyph-name="u" unicode="u" horiz-adv-x="1189" 
d="M139 346v748h291v-697q0 -188 148 -188q77 0 124 51q35 38 44.5 67.5t9.5 88.5v678h288v-1094h-253v160q-126 -191 -318 -191q-169 0 -251.5 103.5t-82.5 273.5z" />
    <glyph glyph-name="v" unicode="v" horiz-adv-x="1050" 
d="M20 1094h318l141 -582q14 -55 35.5 -155.5t22.5 -104.5h4q19 114 59 262l152 580h270l-352 -1094h-297z" />
    <glyph glyph-name="w" unicode="w" horiz-adv-x="1517" 
d="M29 1094h297l86 -588q5 -40 13 -93.5t12 -83.5t5 -42h4q20 144 37 215l138 592h294l138 -607q31 -133 39 -204h4q12 128 24 204l97 607h251l-233 -1094h-293l-154 623q-11 43 -21.5 109.5t-12.5 92.5h-4q-7 -80 -41 -202l-168 -623h-287z" />
    <glyph glyph-name="x" unicode="x" horiz-adv-x="1028" 
d="M8 0l330 559l-313 535h333l170 -357l166 357h301l-317 -531l330 -563h-344l-177 354l-165 -354h-314z" />
    <glyph glyph-name="y" unicode="y" horiz-adv-x="1050" 
d="M20 1094h314l158 -609q39 -155 49 -237h4q37 175 53 237l156 609h268l-369 -1172q-26 -81 -63 -141t-93.5 -108.5t-138.5 -77.5t-190 -37l-27 221h14q200 0 236 141z" />
    <glyph glyph-name="z" unicode="z" horiz-adv-x="1005" 
d="M82 0v227l489 650h-462v217h788v-242l-473 -635h500v-217h-842z" />
    <glyph glyph-name="braceleft" unicode="{" horiz-adv-x="573" 
d="M2 549v137q186 0 186 272v211q0 344 383 347v-152q-85 0 -114 -49t-29 -150v-198q0 -124 -51.5 -207.5t-165.5 -145.5q115 -54 166 -128.5t51 -198.5v-219q0 -201 143 -201v-154q-383 0 -383 332v256q0 108 -47 178t-139 70z" />
    <glyph glyph-name="bar" unicode="|" horiz-adv-x="573" 
d="M170 0v1446h233v-1446h-233z" />
    <glyph glyph-name="braceright" unicode="}" horiz-adv-x="573" 
d="M2 -133q143 0 143 201v219q0 124 51 198.5t166 128.5q-114 62 -165.5 145.5t-51.5 207.5v198q0 101 -29 150t-114 49v152q383 -3 383 -347v-211q0 -272 186 -272v-137q-92 0 -139 -70t-47 -178v-256q0 -332 -383 -332v154z" />
    <glyph glyph-name="asciitilde" unicode="~" 
d="M70 336v287q134 127 264 127q55 0 117 -21.5t137.5 -57t111.5 -48.5q66 -25 105 -25q144 0 272 158v-297q-48 -51 -123 -85t-143 -34q-56 0 -118 21.5t-135.5 57t-111.5 48.5q-70 25 -114 25t-79 -10t-66.5 -32.5t-56.5 -47t-60 -66.5z" />
    <glyph glyph-name="uni00A0" unicode="&#xa0;" 
 />
    <glyph glyph-name="exclamdown" unicode="&#xa1;" horiz-adv-x="573" 
d="M139 948q0 69 48 113.5t120 44.5t120 -44.5t48 -113.5t-48 -113t-120 -44t-120 44t-48 113zM145 -410q0 192 14 464.5t28 449.5l14 176h211q57 -659 57 -1090h-324z" />
    <glyph glyph-name="cent" unicode="&#xa2;" 
d="M94 702q0 92 19 176t60 159.5t101.5 131t149.5 88t197 33.5v258h159v-260q140 -9 277 -76l-103 -251q-81 53 -174 65v-627q91 5 191 60l84 -228q-44 -30 -120.5 -55.5t-154.5 -34.5v-229h-159v227q-163 1 -284 76t-182 201t-61 286zM395 709q0 -132 66 -212.5t160 -95.5
v627q-108 -9 -167 -95t-59 -224z" />
    <glyph glyph-name="sterling" unicode="&#xa3;" 
d="M39 598v195h184q-51 116 -51 219q0 88 36 171t98.5 146.5t152 102t190.5 38.5q140 0 232.5 -37t187.5 -114l-139 -207q-38 38 -102.5 75.5t-135.5 37.5q-110 0 -166.5 -63.5t-56.5 -164.5q0 -80 66 -204h368v-195h-274q8 -31 8 -68q0 -170 -166 -288h631v-242h-983v227
q103 32 171 98t68 156q0 44 -34 117h-285z" />
    <glyph glyph-name="currency" unicode="&#xa4;" 
d="M45 348l145 137q-71 115 -71 232q0 82 15 125.5t56 105.5l-145 137l154 152l141 -141q117 69 233 69q121 0 234 -69l141 141l154 -152l-144 -137q72 -116 72 -231q0 -116 -72 -232l144 -137l-152 -149l-141 139q-118 -70 -234 -70q-118 0 -233 70l-141 -139zM348 717
q0 -96 63.5 -158.5t161.5 -62.5q97 0 161.5 65t64.5 164h2q-3 91 -68.5 152t-157.5 61q-97 0 -162 -63.5t-65 -157.5z" />
    <glyph glyph-name="yen" unicode="&#xa5;" 
d="M-8 1446h358l240 -592l229 592h336l-326 -653h252v-195h-352v-598h-299v598h-364v195h262z" />
    <glyph glyph-name="brokenbar" unicode="&#xa6;" horiz-adv-x="573" 
d="M150 0v596h274v-596h-274zM150 852v594h274v-594h-274z" />
    <glyph glyph-name="section" unicode="&#xa7;" 
d="M66 561q0 206 204 309q-100 90 -100 222q0 92 41 167.5t108.5 121.5t150 71t169.5 25q96 0 190.5 -22.5t145.5 -49.5l-98 -229q-47 31 -127 53t-134 22q-67 0 -121.5 -26t-54.5 -74q0 -42 28.5 -71t80.5 -54l250 -125q150 -75 216 -151t66 -172q0 -111 -56 -193
t-157 -129q133 -101 133 -258q0 -99 -44 -175t-117 -119.5t-157.5 -65t-176.5 -21.5q-98 0 -206 27t-159 59l101 225q51 -36 138 -61t155 -25q41 0 81 8.5t75.5 35t35.5 67.5q0 14 -4 26.5t-14.5 24.5t-17.5 19.5t-24 19t-23.5 15.5t-27 15.5t-22.5 12.5l-215 119
q-10 6 -43.5 24t-46 25.5l-42.5 25.5t-42.5 28t-36.5 30t-35 35t-26.5 37.5t-22.5 44.5t-12.5 49t-5.5 57zM328 635q0 -47 33 -79.5t85 -61.5l275 -148q37 18 62.5 58t25.5 90h2q-1 26 -11 46.5t-28.5 36.5t-32.5 25t-37 21l-288 149q-39 -18 -62.5 -56.5t-23.5 -80.5z" />
    <glyph glyph-name="dieresis" unicode="&#xa8;" 
d="M219 1378q0 62 44 105t106 43q63 0 106 -42.5t43 -105.5q0 -62 -42.5 -103.5t-104.5 -41.5q-64 0 -108 41.5t-44 103.5zM629 1378q0 63 43.5 105.5t105.5 42.5q63 0 106.5 -42.5t43.5 -105.5q0 -62 -43 -103.5t-105 -41.5q-64 0 -107.5 41.5t-43.5 103.5z" />
    <glyph glyph-name="copyright" unicode="&#xa9;" horiz-adv-x="1638" 
d="M76 723q0 153 58.5 289.5t158 234.5t237.5 155.5t291 57.5q152 0 290 -58t237.5 -157t158 -235.5t58.5 -286.5q0 -153 -58 -289.5t-157 -234.5t-237 -155.5t-292 -57.5q-156 0 -294 57t-237 154.5t-156.5 234.5t-57.5 291zM219 723q0 -164 79.5 -301.5t218 -218
t304.5 -80.5q124 0 235 47.5t190.5 128.5t126 191.5t46.5 232.5q0 160 -80 297t-218 218t-300 81q-122 0 -233.5 -47.5t-192.5 -127.5t-128.5 -190t-47.5 -231zM414 715q0 86 27.5 161.5t80 136t139 95.5t195.5 35q136 0 266 -53l-73 -168q-99 45 -181 45q-62 0 -108 -21.5
t-71.5 -58.5t-37.5 -79t-12 -89q0 -111 70 -174.5t172 -63.5q87 0 182 39l59 -153q-135 -62 -266 -62q-200 0 -321 115t-121 295z" />
    <glyph glyph-name="ordfeminine" unicode="&#xaa;" horiz-adv-x="819" 
d="M78 979q0 65 35.5 111t95.5 68t118.5 31t123.5 9q18 0 26 2q6 0 6 8v37q0 38 -25.5 55t-90.5 17q-107 0 -183 -62l-71 138q67 39 136.5 56t162.5 17q34 0 67 -4.5t72 -19.5t67.5 -38.5t48 -66t19.5 -98.5v-289q0 -26 21 -26q15 0 32 10l15 -131q-66 -19 -133 -19
q-90 0 -117 70q-85 -78 -203 -78q-96 0 -159.5 58t-63.5 145zM287 991q0 -29 21 -49t57 -20q49 0 83.5 26t34.5 78v49h-45q-151 0 -151 -84z" />
    <glyph glyph-name="guillemotleft" unicode="&#xab;" 
d="M63 551l291 418h242l-231 -418l231 -418h-242zM555 551l291 418h241l-231 -418l231 -418h-241z" />
    <glyph glyph-name="logicalnot" unicode="&#xac;" 
d="M55 635v272h1037v-731h-277v459h-760z" />
    <glyph glyph-name="uni00AD" unicode="&#xad;" horiz-adv-x="573" 
d="M18 436v271h537v-271h-537z" />
    <glyph glyph-name="registered" unicode="&#xae;" horiz-adv-x="1638" 
d="M76 723q0 153 58.5 289.5t158 234.5t237.5 155.5t291 57.5q152 0 290 -58t237.5 -157t158 -235.5t58.5 -286.5q0 -153 -58 -289.5t-157 -234.5t-237 -155.5t-292 -57.5q-156 0 -294 57t-237 154.5t-156.5 234.5t-57.5 291zM219 723q0 -164 79.5 -301.5t218 -218
t304.5 -80.5q124 0 235 47.5t190.5 128.5t126 191.5t46.5 232.5q0 160 -80 297t-218 218t-300 81q-122 0 -233.5 -47.5t-192.5 -127.5t-128.5 -190t-47.5 -231zM487 336v803h359q136 0 219.5 -61t83.5 -173q0 -132 -166 -198q93 -136 274 -371h-270l-178 276q-26 39 -64 39
h-38v-315h-220zM707 813h102q57 0 89 22t32 62q0 35 -31.5 58.5t-89.5 23.5h-102v-166z" />
    <glyph glyph-name="macron" unicode="&#xaf;" 
d="M209 1300v152h729v-152h-729z" />
    <glyph glyph-name="degree" unicode="&#xb0;" horiz-adv-x="819" 
d="M80 1139q0 135 93.5 228t236.5 93q144 0 236.5 -92t92.5 -229q0 -140 -96 -233t-235 -93q-144 0 -236 94.5t-92 231.5zM262 1137q0 -62 41 -106t105 -44q63 0 106 43.5t43 106.5t-41 106t-106 43q-63 0 -105.5 -44t-42.5 -105z" />
    <glyph glyph-name="plusminus" unicode="&#xb1;" horiz-adv-x="1124" 
d="M12 0v256h1100v-256h-1100zM12 559v254h410v270h276v-270h414v-254h-410v-254h-276v254h-414z" />
    <glyph glyph-name="uni00B2" unicode="&#xb2;" horiz-adv-x="716" 
d="M2 1366q71 48 141 73t179 25q159 0 246 -74t87 -194q0 -34 -5 -63t-20 -56t-25 -44.5t-37.5 -43t-38.5 -35.5t-47.5 -38.5t-45.5 -36.5q-109 -84 -135 -131h371v-166h-635v127q14 37 38 72.5t44 59.5t59 58t57 48t64 50q38 30 60.5 51.5t43.5 57t21 70.5q0 49 -39 83.5
t-106 34.5q-52 0 -90 -18t-78 -53z" />
    <glyph glyph-name="uni00B3" unicode="&#xb3;" horiz-adv-x="716" 
d="M2 631l90 157q83 -59 184 -59q74 0 119 33t45 80q0 54 -48.5 82t-119.5 28h-110v168h114q61 0 99.5 24.5t38.5 63.5q0 34 -33.5 59t-95.5 25q-97 0 -179 -63l-79 147q144 84 301 84q142 0 227.5 -65.5t85.5 -161.5q0 -123 -121 -184q69 -26 110.5 -79.5t41.5 -129.5
q0 -120 -107 -199.5t-272 -79.5q-87 0 -152.5 17t-138.5 53z" />
    <glyph glyph-name="acute" unicode="&#xb4;" 
d="M313 1198l226 318h313l-328 -318h-211z" />
    <glyph glyph-name="uni00B5" unicode="&#xb5;" horiz-adv-x="1179" 
d="M135 -406v1496h295v-678q0 -187 145 -187q76 0 123 51q35 38 44.5 67t9.5 87v660h292v-1094h-258v174q-54 -80 -135 -128t-180 -48h-63v-400h-273z" />
    <glyph glyph-name="paragraph" unicode="&#xb6;" 
d="M-4 938q0 229 132 368.5t361 139.5h662v-186h-125v-1547h-219v1547h-180v-1547h-217v748q-102 1 -182.5 39.5t-130.5 104.5t-75.5 150.5t-25.5 182.5z" />
    <glyph glyph-name="periodcentered" unicode="&#xb7;" horiz-adv-x="573" 
d="M113 664q0 71 47.5 117t126.5 46q78 0 125 -45.5t47 -117.5t-47 -118t-125 -46t-126 46t-48 118z" />
    <glyph glyph-name="cedilla" unicode="&#xb8;" 
d="M387 -410q77 69 109 122t32 106q0 54 -32 108h229q23 -37 23 -78q0 -146 -156 -258h-205z" />
    <glyph glyph-name="uni00B9" unicode="&#xb9;" horiz-adv-x="716" 
d="M10 1296q73 28 176.5 74t153.5 76h178v-868h-225v651q-101 -53 -205 -86z" />
    <glyph glyph-name="ordmasculine" unicode="&#xba;" horiz-adv-x="819" 
d="M57 1118q0 96 38 173t120.5 126t198.5 49q88 0 156 -28t109 -76.5t62 -110t21 -133.5q0 -149 -92.5 -249.5t-263.5 -100.5q-88 0 -156 28t-109.5 77.5t-62.5 111t-21 133.5zM276 1118q0 -192 130 -192q38 0 66 17t43.5 46t22.5 61.5t7 67.5q0 36 -6 67.5t-20 61t-41.5 47
t-65.5 17.5q-72 0 -104 -57t-32 -136z" />
    <glyph glyph-name="guillemotright" unicode="&#xbb;" 
d="M70 133l231 418l-231 418h241l291 -418l-291 -418h-241zM541 133l231 418l-231 418h241l291 -418l-291 -418h-241z" />
    <glyph glyph-name="onequarter" unicode="&#xbc;" horiz-adv-x="1740" 
d="M12 1294q71 27 175 74t155 78h178v-883h-225v662q-87 -49 -205 -86zM285 0l876 1446h205l-877 -1446h-204zM850 178v176l379 529h252v-543h116v-162h-116v-178h-213v178h-418zM1057 340h211v299q-43 -68 -211 -299z" />
    <glyph glyph-name="onehalf" unicode="&#xbd;" horiz-adv-x="1740" 
d="M12 1294q71 27 175 74t155 78h178v-883h-225v662q-87 -49 -205 -86zM285 0l876 1446h205l-877 -1446h-204zM995 799q71 48 141 73t179 25q159 0 246.5 -75t87.5 -195q0 -30 -5.5 -58t-12.5 -49t-23 -45t-26 -38t-34.5 -37t-35.5 -32.5t-41.5 -33.5t-40.5 -33
q-5 -4 -23 -18.5t-26 -21t-24 -21t-25.5 -24t-20.5 -22.5t-17 -24h371v-170h-635v127q23 60 69 118t85.5 92.5t107.5 86.5q39 31 61 51.5t43 56.5t21 72q0 51 -39 85t-106 34q-52 0 -89.5 -18t-78.5 -52z" />
    <glyph glyph-name="threequarters" unicode="&#xbe;" horiz-adv-x="1740" 
d="M53 618l88 160q83 -59 185 -59q74 0 118.5 32.5t44.5 79.5q0 55 -47.5 83t-119.5 28h-111v172h115q59 0 98 25.5t39 64.5q0 34 -33.5 60t-95.5 26q-100 0 -178 -65l-80 149q147 86 301 86q142 0 227.5 -66.5t85.5 -162.5q0 -127 -121 -187q69 -26 110.5 -82t41.5 -135
q0 -122 -107 -201t-272 -79q-88 0 -152.5 17t-136.5 54zM406 0l876 1446h205l-877 -1446h-204zM971 178v176l379 529h252v-543h116v-162h-116v-178h-207v178h-424zM1169 340h226v319q-40 -64 -226 -319z" />
    <glyph glyph-name="questiondown" unicode="&#xbf;" horiz-adv-x="1024" 
d="M80 -35q0 125 61 223t172 193q55 47 105 84q16 200 16 219h211l25 -301q-16 -14 -56 -45t-68 -55t-52 -50q-99 -103 -99 -217q0 -87 55 -146.5t148 -59.5q137 0 240 108l108 -213q-194 -129 -418 -129q-83 0 -161 26t-141.5 73.5t-103 123t-40.5 166.5h-2zM375 944
q-1 74 46 120t120 46t120.5 -44.5t47.5 -113.5t-47 -113t-119 -44t-119.5 41.5t-48.5 107.5z" />
    <glyph glyph-name="Agrave" unicode="&#xc0;" horiz-adv-x="1396" 
d="M12 0l512 1448h346l514 -1448h-342l-90 274h-534l-90 -274h-316zM301 1843h313l226 -317h-211zM498 514h376l-149 461q-37 113 -37 182h-4q0 -65 -37 -182z" />
    <glyph glyph-name="Aacute" unicode="&#xc1;" horiz-adv-x="1396" 
d="M12 0l512 1448h346l514 -1448h-342l-90 274h-534l-90 -274h-316zM498 514h376l-149 461q-37 113 -37 182h-4q0 -65 -37 -182zM549 1526l225 317h313l-327 -317h-211z" />
    <glyph glyph-name="Acircumflex" unicode="&#xc2;" horiz-adv-x="1396" 
d="M12 0l512 1448h346l514 -1448h-342l-90 274h-534l-90 -274h-316zM311 1526l226 317h299l225 -317h-211l-164 194l-164 -194h-211zM498 514h376l-149 461q-37 113 -37 182h-4q0 -65 -37 -182z" />
    <glyph glyph-name="Atilde" unicode="&#xc3;" horiz-adv-x="1396" 
d="M12 0l512 1448h346l514 -1448h-342l-90 274h-534l-90 -274h-316zM340 1575q5 52 22.5 97.5t46.5 83t74.5 59.5t102.5 22q34 0 69 -8t82 -24t66 -21q30 -10 53 -10q74 0 88 69h150q-13 -117 -75 -190.5t-175 -73.5q-34 0 -69 8t-82 24t-66 21q-33 10 -52 10
q-40 0 -58.5 -15t-27.5 -52h-149zM498 514h376l-149 461q-37 113 -37 182h-4q0 -65 -37 -182z" />
    <glyph glyph-name="Adieresis" unicode="&#xc4;" horiz-adv-x="1396" 
d="M12 0l512 1448h346l514 -1448h-342l-90 274h-534l-90 -274h-316zM348 1706q0 62 44 104.5t106 42.5q63 0 106 -42t43 -105q0 -62 -42.5 -103.5t-104.5 -41.5q-64 0 -108 41.5t-44 103.5zM498 514h376l-149 461q-37 113 -37 182h-4q0 -65 -37 -182zM758 1706
q0 62 43.5 104.5t105.5 42.5q63 0 106.5 -42t43.5 -105q0 -62 -43 -103.5t-105 -41.5q-64 0 -107.5 41.5t-43.5 103.5z" />
    <glyph glyph-name="Aring" unicode="&#xc5;" horiz-adv-x="1396" 
d="M12 0l512 1448h346l514 -1448h-342l-90 274h-534l-90 -274h-316zM463 1714q0 91 60.5 152t174.5 61q115 0 174.5 -59t59.5 -150q0 -90 -62 -150.5t-176 -60.5q-115 0 -173 58t-58 149zM498 514h376l-149 461q-37 113 -37 182h-4q0 -65 -37 -182zM600 1718q0 -39 21 -67.5
t73 -28.5q53 0 76 29t23 67t-21 66t-74 28t-75.5 -28t-22.5 -66z" />
    <glyph glyph-name="AE" unicode="&#xc6;" horiz-adv-x="1861" 
d="M8 0l535 1446h1165v-260h-573v-297h553v-250h-553v-379h604v-260h-926v279h-393l-96 -279h-316zM494 518h319v711h-76z" />
    <glyph glyph-name="Ccedilla" unicode="&#xc7;" horiz-adv-x="1290" 
d="M92 707q0 123 27.5 235t85.5 210t141.5 170t202 113.5t260.5 41.5q228 0 414 -84l-105 -265q-144 78 -291 78q-87 0 -157 -29.5t-115 -77.5t-75.5 -112.5t-43 -132t-12.5 -139.5q0 -110 34.5 -201t93.5 -151t135.5 -92.5t162.5 -32.5q162 0 291 77l82 -247
q-83 -42 -198 -71.5t-216 -29.5q-162 0 -297 56t-227 154t-142.5 234.5t-50.5 295.5zM561 -410q77 69 109 122t32 106q0 54 -32 108h229q23 -37 23 -78q0 -146 -156 -258h-205z" />
    <glyph glyph-name="Egrave" unicode="&#xc8;" horiz-adv-x="1196" 
d="M147 0v1446h895v-260h-573v-297h553v-250h-553v-379h604v-260h-926zM233 1843h314l225 -317h-211z" />
    <glyph glyph-name="Eacute" unicode="&#xc9;" horiz-adv-x="1196" 
d="M147 0v1446h895v-260h-573v-297h553v-250h-553v-379h604v-260h-926zM457 1526l225 317h313l-327 -317h-211z" />
    <glyph glyph-name="Ecircumflex" unicode="&#xca;" horiz-adv-x="1196" 
d="M147 0v1446h895v-260h-573v-297h553v-250h-553v-379h604v-260h-926zM219 1526l225 317h299l226 -317h-211l-164 194l-164 -194h-211z" />
    <glyph glyph-name="Edieresis" unicode="&#xcb;" horiz-adv-x="1196" 
d="M147 0v1446h895v-260h-573v-297h553v-250h-553v-379h604v-260h-926zM240 1706q0 62 43.5 104.5t105.5 42.5q63 0 106.5 -42t43.5 -105q0 -62 -43 -103.5t-105 -41.5q-64 0 -107.5 41.5t-43.5 103.5zM649 1706q0 62 44 104.5t106 42.5q63 0 106 -42t43 -105
q0 -62 -42.5 -103.5t-104.5 -41.5q-64 0 -108 41.5t-44 103.5z" />
    <glyph glyph-name="Igrave" unicode="&#xcc;" horiz-adv-x="630" 
d="M-53 1843h313l225 -317h-211zM156 0v1446h319v-1446h-319z" />
    <glyph glyph-name="Iacute" unicode="&#xcd;" horiz-adv-x="630" 
d="M150 1526l225 317h313l-328 -317h-210zM156 0v1446h319v-1446h-319z" />
    <glyph glyph-name="Icircumflex" unicode="&#xce;" horiz-adv-x="630" 
d="M-61 1526l225 317h299l225 -317h-211l-164 194l-163 -194h-211zM156 0v1446h319v-1446h-319z" />
    <glyph glyph-name="Idieresis" unicode="&#xcf;" horiz-adv-x="630" 
d="M-35 1706q0 62 44 104.5t106 42.5q63 0 106 -42t43 -105q0 -62 -42.5 -103.5t-104.5 -41.5q-64 0 -108 41.5t-44 103.5zM156 0v1446h319v-1446h-319zM375 1706q0 62 43.5 104.5t105.5 42.5q63 0 106.5 -42t43.5 -105q0 -62 -43 -103.5t-105 -41.5q-64 0 -107.5 41.5
t-43.5 103.5z" />
    <glyph glyph-name="Eth" unicode="&#xd0;" horiz-adv-x="1531" 
d="M2 651v246h145v549h605q335 0 511.5 -176t176.5 -512q0 -168 -43 -305.5t-126.5 -239t-217 -157.5t-305.5 -56h-601v651h-145zM469 250h227q110 0 192 37t129.5 104.5t70 153.5t22.5 192q0 457 -420 457h-221v-297h317l-2 -246h-315v-401z" />
    <glyph glyph-name="Ntilde" unicode="&#xd1;" horiz-adv-x="1531" 
d="M147 0v1446h289l516 -746q119 -169 133 -231h5v977h294v-1446h-294l-547 762q-74 104 -94 180h-5v-942h-297zM412 1575q5 52 22 97.5t46 83t74.5 59.5t102.5 22q34 0 69 -8t82 -24t66 -21q30 -10 54 -10q74 0 88 69h149q-13 -117 -75 -190.5t-175 -73.5q-34 0 -69 8
t-82 24t-66 21q-33 10 -51 10q-40 0 -58.5 -15t-27.5 -52h-149z" />
    <glyph glyph-name="Ograve" unicode="&#xd2;" horiz-adv-x="1531" 
d="M92 725q0 163 41 295t107.5 217.5t156 144t182 83t189.5 24.5q112 0 208.5 -24.5t183 -81t148 -143t97 -218t35.5 -297.5q0 -163 -41 -295t-107.5 -217.5t-156 -144t-182 -83t-189.5 -24.5q-112 0 -208.5 24.5t-183 81t-148 143t-97 218t-35.5 297.5zM397 1843h314
l225 -317h-211zM422 725q0 -84 10.5 -156.5t36 -137.5t64 -110.5t98 -72.5t135.5 -27q77 0 137 27t98.5 72.5t63.5 111t35 137t10 156.5q0 84 -10.5 156.5t-36 137.5t-64 110.5t-98 72.5t-135.5 27q-77 0 -137 -27t-98.5 -72.5t-63.5 -111t-35 -137t-10 -156.5z" />
    <glyph glyph-name="Oacute" unicode="&#xd3;" horiz-adv-x="1531" 
d="M92 725q0 163 41 295t107.5 217.5t156 144t182 83t189.5 24.5q112 0 208.5 -24.5t183 -81t148 -143t97 -218t35.5 -297.5q0 -163 -41 -295t-107.5 -217.5t-156 -144t-182 -83t-189.5 -24.5q-112 0 -208.5 24.5t-183 81t-148 143t-97 218t-35.5 297.5zM422 725
q0 -84 10.5 -156.5t36 -137.5t64 -110.5t98 -72.5t135.5 -27q77 0 137 27t98.5 72.5t63.5 111t35 137t10 156.5q0 84 -10.5 156.5t-36 137.5t-64 110.5t-98 72.5t-135.5 27q-77 0 -137 -27t-98.5 -72.5t-63.5 -111t-35 -137t-10 -156.5zM618 1526l226 317h313l-328 -317
h-211z" />
    <glyph glyph-name="Ocircumflex" unicode="&#xd4;" horiz-adv-x="1531" 
d="M92 725q0 163 41 295t107.5 217.5t156 144t182 83t189.5 24.5q112 0 208.5 -24.5t183 -81t148 -143t97 -218t35.5 -297.5q0 -163 -41 -295t-107.5 -217.5t-156 -144t-182 -83t-189.5 -24.5q-112 0 -208.5 24.5t-183 81t-148 143t-97 218t-35.5 297.5zM391 1530l225 317
h299l226 -317h-211l-164 194l-164 -194h-211zM422 725q0 -84 10.5 -156.5t36 -137.5t64 -110.5t98 -72.5t135.5 -27q77 0 137 27t98.5 72.5t63.5 111t35 137t10 156.5q0 84 -10.5 156.5t-36 137.5t-64 110.5t-98 72.5t-135.5 27q-77 0 -137 -27t-98.5 -72.5t-63.5 -111
t-35 -137t-10 -156.5z" />
    <glyph glyph-name="Otilde" unicode="&#xd5;" horiz-adv-x="1531" 
d="M92 725q0 163 41 295t107.5 217.5t156 144t182 83t189.5 24.5q112 0 208.5 -24.5t183 -81t148 -143t97 -218t35.5 -297.5q0 -163 -41 -295t-107.5 -217.5t-156 -144t-182 -83t-189.5 -24.5q-112 0 -208.5 24.5t-183 81t-148 143t-97 218t-35.5 297.5zM401 1575
q5 52 22.5 97.5t46.5 83t74.5 59.5t102.5 22q34 0 69 -8t82 -24t66 -21q30 -10 54 -10q74 0 88 69h149q-13 -117 -75 -190.5t-175 -73.5q-34 0 -69 8t-82 24t-66 21q-33 10 -51 10q-40 0 -58.5 -15t-27.5 -52h-150zM422 725q0 -84 10.5 -156.5t36 -137.5t64 -110.5t98 -72.5
t135.5 -27q77 0 137 27t98.5 72.5t63.5 111t35 137t10 156.5q0 84 -10.5 156.5t-36 137.5t-64 110.5t-98 72.5t-135.5 27q-77 0 -137 -27t-98.5 -72.5t-63.5 -111t-35 -137t-10 -156.5z" />
    <glyph glyph-name="Odieresis" unicode="&#xd6;" horiz-adv-x="1531" 
d="M92 725q0 163 41 295t107.5 217.5t156 144t182 83t189.5 24.5q112 0 208.5 -24.5t183 -81t148 -143t97 -218t35.5 -297.5q0 -163 -41 -295t-107.5 -217.5t-156 -144t-182 -83t-189.5 -24.5q-112 0 -208.5 24.5t-183 81t-148 143t-97 218t-35.5 297.5zM418 1706
q0 62 43.5 104.5t105.5 42.5q63 0 106.5 -42t43.5 -105q0 -62 -43 -103.5t-105 -41.5q-64 0 -107.5 41.5t-43.5 103.5zM422 725q0 -84 10.5 -156.5t36 -137.5t64 -110.5t98 -72.5t135.5 -27q77 0 137 27t98.5 72.5t63.5 111t35 137t10 156.5q0 84 -10.5 156.5t-36 137.5
t-64 110.5t-98 72.5t-135.5 27q-77 0 -137 -27t-98.5 -72.5t-63.5 -111t-35 -137t-10 -156.5zM827 1706q0 62 44 104.5t106 42.5q63 0 106 -42t43 -105q0 -62 -42.5 -103.5t-104.5 -41.5q-64 0 -108 41.5t-44 103.5z" />
    <glyph glyph-name="multiply" unicode="&#xd7;" 
d="M35 203l346 340l-346 340l192 190l344 -340l347 340l194 -190l-348 -340l348 -340l-192 -195l-347 342l-344 -342z" />
    <glyph glyph-name="Oslash" unicode="&#xd8;" horiz-adv-x="1531" 
d="M8 12l213 230q-129 194 -129 483q0 163 41 295t107.5 217.5t156 144t182 83t189.5 24.5q293 0 463 -156l166 180l98 -90l-178 -192q123 -188 123 -506q0 -163 -38 -294.5t-102 -217.5t-151.5 -144t-182 -83t-198.5 -25q-125 0 -246 44t-215 134l-201 -217zM424 725
q0 -128 27 -236l569 617q-86 123 -252 123q-77 0 -137 -27t-98.5 -72.5t-63.5 -111t-35 -137t-10 -156.5zM508 356q87 -135 260 -135q76 0 135.5 27t98 72.5t64 110.5t36 137.5t10.5 156.5q0 150 -31 250z" />
    <glyph glyph-name="Ugrave" unicode="&#xd9;" horiz-adv-x="1523" 
d="M139 547v899h322v-889q0 -74 17 -133t53 -105t97 -71t144 -25q301 0 301 334v889h311v-899q0 -293 -152.5 -438.5t-467.5 -145.5t-470 145.5t-155 438.5zM356 1843h314l225 -317h-211z" />
    <glyph glyph-name="Uacute" unicode="&#xda;" horiz-adv-x="1523" 
d="M139 547v899h322v-889q0 -74 17 -133t53 -105t97 -71t144 -25q301 0 301 334v889h311v-899q0 -293 -152.5 -438.5t-467.5 -145.5t-470 145.5t-155 438.5zM641 1526l225 317h314l-328 -317h-211z" />
    <glyph glyph-name="Ucircumflex" unicode="&#xdb;" horiz-adv-x="1523" 
d="M139 547v899h322v-889q0 -74 17 -133t53 -105t97 -71t144 -25q301 0 301 334v889h311v-899q0 -293 -152.5 -438.5t-467.5 -145.5t-470 145.5t-155 438.5zM397 1526l226 317h299l225 -317h-211l-164 194l-164 -194h-211z" />
    <glyph glyph-name="Udieresis" unicode="&#xdc;" horiz-adv-x="1523" 
d="M139 547v899h322v-889q0 -74 17 -133t53 -105t97 -71t144 -25q301 0 301 334v889h311v-899q0 -293 -152.5 -438.5t-467.5 -145.5t-470 145.5t-155 438.5zM422 1706q0 62 43.5 104.5t105.5 42.5q63 0 106.5 -42t43.5 -105q0 -62 -43 -103.5t-105 -41.5q-64 0 -107.5 41.5
t-43.5 103.5zM831 1706q0 62 44 104.5t106 42.5q63 0 106 -42t43 -105q0 -62 -42.5 -103.5t-104.5 -41.5q-64 0 -108 41.5t-44 103.5z" />
    <glyph glyph-name="Yacute" unicode="&#xdd;" horiz-adv-x="1239" 
d="M2 1446h377l260 -625l250 625h354l-452 -903v-543h-320v543zM502 1526l223 317h315l-329 -317h-209z" />
    <glyph glyph-name="Thorn" unicode="&#xde;" horiz-adv-x="1245" 
d="M147 0v1446h320v-141h233q224 0 354 -115t130 -338q0 -126 -36.5 -220t-105 -151.5t-160 -85.5t-206.5 -28h-209v-367h-320zM467 623h184q104 0 160.5 58t56.5 159q0 107 -56 163t-161 56h-184v-436z" />
    <glyph glyph-name="germandbls" unicode="&#xdf;" horiz-adv-x="1298" 
d="M145 0v1075q0 137 68 243.5t181.5 163t250.5 56.5q92 0 173.5 -20.5t149.5 -61.5t108 -112.5t40 -165.5q0 -97 -56.5 -160.5t-148.5 -95.5q-79 -26 -115 -54t-36 -63q0 -36 29.5 -60t84.5 -49l113 -49q120 -52 182 -122t62 -185q0 -161 -116 -262t-322 -101
q-174 0 -301 84l88 215q44 -34 108.5 -57.5t126.5 -23.5q19 0 40.5 4t47.5 14.5t43 35t17 58.5q0 10 -3 19t-10 17t-12.5 14.5t-18 14.5t-18.5 12t-21.5 11t-19.5 9t-20 9t-17 7l-108 47q-219 94 -219 295q0 55 20 103t52 80t63 52.5t61 32.5q137 50 137 158q0 69 -57 110
t-129 41q-100 0 -154.5 -69t-54.5 -170v-1100h-289z" />
    <glyph glyph-name="agrave" unicode="&#xe0;" horiz-adv-x="1132" 
d="M72 295q0 72 23.5 129t66.5 95t95 64.5t117.5 40t125 19.5t125.5 6q39 0 55 6.5t16 32.5v76q0 65 -50 102t-150 37q-85 0 -155.5 -30.5t-115.5 -69.5l-94 198q96 61 199.5 88t236.5 27q52 0 101.5 -8t106 -32.5t98 -63.5t69 -108t27.5 -159v-491q0 -35 7.5 -53.5
t31.5 -18.5q14 0 47 11l16 -187q-112 -26 -182 -26q-73 0 -115 40t-55 109q-72 -85 -144.5 -124.5t-179.5 -39.5q-143 0 -233 94.5t-90 235.5zM193 1516h313l225 -318h-211zM356 317q0 -60 39 -98.5t99 -38.5q96 0 153 60q47 50 47 129v104h-86q-43 0 -82.5 -6.5t-80 -22
t-65 -48.5t-24.5 -79z" />
    <glyph glyph-name="aacute" unicode="&#xe1;" horiz-adv-x="1132" 
d="M72 295q0 72 23.5 129t66.5 95t95 64.5t117.5 40t125 19.5t125.5 6q39 0 55 6.5t16 32.5v76q0 65 -50 102t-150 37q-85 0 -155.5 -30.5t-115.5 -69.5l-94 198q96 61 199.5 88t236.5 27q52 0 101.5 -8t106 -32.5t98 -63.5t69 -108t27.5 -159v-491q0 -35 7.5 -53.5
t31.5 -18.5q14 0 47 11l16 -187q-112 -26 -182 -26q-73 0 -115 40t-55 109q-72 -85 -144.5 -124.5t-179.5 -39.5q-143 0 -233 94.5t-90 235.5zM356 317q0 -60 39 -98.5t99 -38.5q96 0 153 60q47 50 47 129v104h-86q-43 0 -82.5 -6.5t-80 -22t-65 -48.5t-24.5 -79zM416 1198
l225 318h313l-327 -318h-211z" />
    <glyph glyph-name="acircumflex" unicode="&#xe2;" horiz-adv-x="1132" 
d="M72 295q0 72 23.5 129t66.5 95t95 64.5t117.5 40t125 19.5t125.5 6q39 0 55 6.5t16 32.5v76q0 65 -50 102t-150 37q-85 0 -155.5 -30.5t-115.5 -69.5l-94 198q96 61 199.5 88t236.5 27q52 0 101.5 -8t106 -32.5t98 -63.5t69 -108t27.5 -159v-491q0 -35 7.5 -53.5
t31.5 -18.5q14 0 47 11l16 -187q-112 -26 -182 -26q-73 0 -115 40t-55 109q-72 -85 -144.5 -124.5t-179.5 -39.5q-143 0 -233 94.5t-90 235.5zM178 1198l225 318h299l226 -318h-211l-164 195l-164 -195h-211zM356 317q0 -60 39 -98.5t99 -38.5q96 0 153 60q47 50 47 129v104
h-86q-43 0 -82.5 -6.5t-80 -22t-65 -48.5t-24.5 -79z" />
    <glyph glyph-name="atilde" unicode="&#xe3;" horiz-adv-x="1132" 
d="M72 295q0 72 23.5 129t66.5 95t95 64.5t117.5 40t125 19.5t125.5 6q39 0 55 6.5t16 32.5v76q0 65 -50 102t-150 37q-85 0 -155.5 -30.5t-115.5 -69.5l-94 198q96 61 199.5 88t236.5 27q52 0 101.5 -8t106 -32.5t98 -63.5t69 -108t27.5 -159v-491q0 -35 7.5 -53.5
t31.5 -18.5q14 0 47 11l16 -187q-112 -26 -182 -26q-73 0 -115 40t-55 109q-72 -85 -144.5 -124.5t-179.5 -39.5q-143 0 -233 94.5t-90 235.5zM190 1247q5 52 22.5 97.5t46.5 83t74.5 59.5t102.5 22q34 0 69 -8t82 -24t66 -21q30 -10 54 -10q74 0 88 70h149
q-13 -117 -75 -191t-175 -74q-34 0 -69 8t-81.5 24t-66.5 22q-33 10 -51 10q-40 0 -58.5 -15.5t-27.5 -52.5h-150zM356 317q0 -60 39 -98.5t99 -38.5q96 0 153 60q47 50 47 129v104h-86q-43 0 -82.5 -6.5t-80 -22t-65 -48.5t-24.5 -79z" />
    <glyph glyph-name="adieresis" unicode="&#xe4;" horiz-adv-x="1132" 
d="M72 295q0 72 23.5 129t66.5 95t95 64.5t117.5 40t125 19.5t125.5 6q39 0 55 6.5t16 32.5v76q0 65 -50 102t-150 37q-85 0 -155.5 -30.5t-115.5 -69.5l-94 198q96 61 199.5 88t236.5 27q52 0 101.5 -8t106 -32.5t98 -63.5t69 -108t27.5 -159v-491q0 -35 7.5 -53.5
t31.5 -18.5q14 0 47 11l16 -187q-112 -26 -182 -26q-73 0 -115 40t-55 109q-72 -85 -144.5 -124.5t-179.5 -39.5q-143 0 -233 94.5t-90 235.5zM178 1378q0 62 44 105t106 43q63 0 106 -42.5t43 -105.5q0 -62 -42.5 -103.5t-104.5 -41.5q-64 0 -108 41.5t-44 103.5zM356 317
q0 -60 39 -98.5t99 -38.5q96 0 153 60q47 50 47 129v104h-86q-43 0 -82.5 -6.5t-80 -22t-65 -48.5t-24.5 -79zM588 1378q0 63 43.5 105.5t105.5 42.5q63 0 106.5 -42.5t43.5 -105.5q0 -62 -43 -103.5t-105 -41.5q-64 0 -107.5 41.5t-43.5 103.5z" />
    <glyph glyph-name="aring" unicode="&#xe5;" horiz-adv-x="1132" 
d="M72 295q0 72 23.5 129t66.5 95t95 64.5t117.5 40t125 19.5t125.5 6q39 0 55 6.5t16 32.5v76q0 65 -50 102t-150 37q-85 0 -155.5 -30.5t-115.5 -69.5l-94 198q96 61 199.5 88t236.5 27q52 0 101.5 -8t106 -32.5t98 -63.5t69 -108t27.5 -159v-491q0 -35 7.5 -53.5
t31.5 -18.5q14 0 47 11l16 -187q-112 -26 -182 -26q-73 0 -115 40t-55 109q-72 -85 -144.5 -124.5t-179.5 -39.5q-143 0 -233 94.5t-90 235.5zM336 1411q0 90 61 149.5t176 59.5t174.5 -59t59.5 -150q0 -90 -62 -150.5t-176 -60.5q-115 0 -174 60t-59 151zM356 317
q0 -60 39 -98.5t99 -38.5q96 0 153 60q47 50 47 129v104h-86q-43 0 -82.5 -6.5t-80 -22t-65 -48.5t-24.5 -79zM475 1411q0 -39 21 -67.5t73 -28.5q53 0 76 29t23 67t-21 66t-74 28t-75.5 -28t-22.5 -66z" />
    <glyph glyph-name="ae" unicode="&#xe6;" horiz-adv-x="1730" 
d="M72 295q0 72 23.5 129t66.5 95t95 64.5t117.5 40t125 19.5t125.5 6q39 0 55 6.5t16 32.5v76q0 65 -50 102t-150 37q-85 0 -155.5 -30.5t-115.5 -69.5l-94 198q96 61 199.5 88t236.5 27q84 0 168 -27.5t135 -89.5q51 55 134.5 88t181.5 33t177.5 -29t132 -77t87.5 -114.5
t50.5 -138t15.5 -149.5q0 -70 -7 -118h-677q2 -126 84.5 -208.5t230.5 -82.5q69 0 142 21.5t126 49.5l78 -219q-185 -86 -389 -86q-154 0 -269 60t-182 170q-30 -51 -58.5 -86.5t-74.5 -72.5t-110.5 -56t-147.5 -19q-143 0 -233 94.5t-90 235.5zM356 317q0 -60 39 -98.5
t99 -38.5q96 0 153 60q47 50 47 129v104h-86q-43 0 -82.5 -6.5t-80 -22t-65 -48.5t-24.5 -79zM961 684h415q8 93 -45.5 164.5t-156.5 71.5q-58 0 -102 -23t-66.5 -59.5t-33.5 -75.5t-11 -78z" />
    <glyph glyph-name="ccedilla" unicode="&#xe7;" horiz-adv-x="999" 
d="M86 530q0 116 31 218.5t93 186t166 132.5t238 49q172 0 328 -78l-100 -243q-105 71 -209 71q-120 0 -185 -91.5t-65 -237.5t81 -233t185 -87q110 0 211 64l80 -222q-52 -34 -146 -62t-180 -28q-164 0 -285 74t-182 200t-61 287zM338 -410q77 69 109 122t32 106
q0 52 -33 108h230q22 -35 22 -78q0 -147 -155 -258h-205z" />
    <glyph glyph-name="egrave" unicode="&#xe8;" horiz-adv-x="1136" 
d="M86 537q0 112 30.5 213.5t90.5 185.5t159.5 134t225.5 50q98 0 177.5 -29t132 -77t87.5 -114.5t50.5 -138t15.5 -149.5q0 -77 -6 -118h-676q2 -126 83.5 -208.5t229.5 -82.5q69 0 143.5 21.5t124.5 49.5l78 -219q-185 -86 -389 -86q-255 0 -406 155.5t-151 412.5z
M233 1516h314l225 -318h-211zM367 684h415q8 93 -45.5 164.5t-156.5 71.5q-58 0 -102 -23t-66.5 -59.5t-33.5 -75.5t-11 -78z" />
    <glyph glyph-name="eacute" unicode="&#xe9;" horiz-adv-x="1136" 
d="M86 537q0 112 30.5 213.5t90.5 185.5t159.5 134t225.5 50q98 0 177.5 -29t132 -77t87.5 -114.5t50.5 -138t15.5 -149.5q0 -77 -6 -118h-676q2 -126 83.5 -208.5t229.5 -82.5q69 0 143.5 21.5t124.5 49.5l78 -219q-185 -86 -389 -86q-255 0 -406 155.5t-151 412.5z
M367 684h415q8 93 -45.5 164.5t-156.5 71.5q-58 0 -102 -23t-66.5 -59.5t-33.5 -75.5t-11 -78zM457 1198l225 318h313l-327 -318h-211z" />
    <glyph glyph-name="ecircumflex" unicode="&#xea;" horiz-adv-x="1136" 
d="M86 537q0 112 30.5 213.5t90.5 185.5t159.5 134t225.5 50q98 0 177.5 -29t132 -77t87.5 -114.5t50.5 -138t15.5 -149.5q0 -77 -6 -118h-676q2 -126 83.5 -208.5t229.5 -82.5q69 0 143.5 21.5t124.5 49.5l78 -219q-185 -86 -389 -86q-255 0 -406 155.5t-151 412.5z
M213 1198l225 318h299l226 -318h-211l-164 195l-164 -195h-211zM367 684h415q8 93 -45.5 164.5t-156.5 71.5q-58 0 -102 -23t-66.5 -59.5t-33.5 -75.5t-11 -78z" />
    <glyph glyph-name="edieresis" unicode="&#xeb;" horiz-adv-x="1136" 
d="M86 537q0 112 30.5 213.5t90.5 185.5t159.5 134t225.5 50q98 0 177.5 -29t132 -77t87.5 -114.5t50.5 -138t15.5 -149.5q0 -77 -6 -118h-676q2 -126 83.5 -208.5t229.5 -82.5q69 0 143.5 21.5t124.5 49.5l78 -219q-185 -86 -389 -86q-255 0 -406 155.5t-151 412.5z
M240 1378q0 63 43.5 105.5t105.5 42.5q63 0 106.5 -42.5t43.5 -105.5q0 -62 -43 -103.5t-105 -41.5q-64 0 -107.5 41.5t-43.5 103.5zM367 684h415q8 93 -45.5 164.5t-156.5 71.5q-58 0 -102 -23t-66.5 -59.5t-33.5 -75.5t-11 -78zM649 1378q0 62 44 105t106 43
q63 0 106 -42.5t43 -105.5q0 -62 -42.5 -103.5t-104.5 -41.5q-64 0 -108 41.5t-44 103.5z" />
    <glyph glyph-name="igrave" unicode="&#xec;" horiz-adv-x="620" 
d="M-88 1516h315l224 -318h-209zM166 0v1094h289v-1094h-289z" />
    <glyph glyph-name="iacute" unicode="&#xed;" horiz-adv-x="620" 
d="M160 1198l225 318h313l-327 -318h-211zM172 0v1094h289v-1094h-289z" />
    <glyph glyph-name="icircumflex" unicode="&#xee;" horiz-adv-x="620" 
d="M-63 1198l223 318h301l223 -318h-209l-164 195l-166 -195h-208zM166 0v1094h289v-1094h-289z" />
    <glyph glyph-name="idieresis" unicode="&#xef;" horiz-adv-x="620" 
d="M-45 1378q0 63 43.5 105.5t105.5 42.5q63 0 106.5 -42.5t43.5 -105.5q0 -62 -43 -103.5t-105 -41.5q-64 0 -107.5 41.5t-43.5 103.5zM164 0v1094h289v-1094h-289zM365 1378q0 63 43.5 105.5t105.5 42.5q63 0 106.5 -42.5t43.5 -105.5q0 -62 -43 -103.5t-105 -41.5
q-64 0 -107.5 41.5t-43.5 103.5z" />
    <glyph glyph-name="eth" unicode="&#xf0;" horiz-adv-x="1218" 
d="M86 539q0 142 60 259t173.5 187t260.5 70q40 0 71 -8q-7 7 -39 43t-45 50t-37.5 39t-46.5 44l-247 -115l-66 135l199 86q-77 63 -127 96l247 109q30 -19 125 -90l209 90l66 -135l-156 -60q79 -68 146.5 -149t126.5 -181t93 -221t34 -247q0 -84 -20.5 -165.5t-64 -157
t-105 -132.5t-149 -91t-190.5 -34q-104 0 -191 33.5t-146.5 90t-101 131.5t-60.5 156.5t-19 166.5zM385 539q0 -45 5 -88.5t20 -92t38 -84.5t63.5 -60t92.5 -24q65 0 112.5 34.5t72 90.5t36 112.5t11.5 113.5q0 43 -5.5 83.5t-21 83t-39.5 73.5t-65 51t-93 20t-93 -20
t-65.5 -51t-40.5 -73.5t-22 -83.5t-6 -85z" />
    <glyph glyph-name="ntilde" unicode="&#xf1;" horiz-adv-x="1220" 
d="M145 0v1094h267v-164q127 190 329 190q89 0 155.5 -28.5t106.5 -80.5t59 -119t19 -149v-743h-286v684q0 89 -37.5 137.5t-126.5 48.5q-82 0 -139 -53q-40 -38 -50 -66t-10 -87v-664h-287zM299 1247q5 52 22.5 97.5t46.5 83t74.5 59.5t102.5 22q34 0 69 -8t82 -24t66 -21
q30 -10 53 -10q74 0 88 70h150q-13 -117 -75 -191t-175 -74q-34 0 -69 8t-81.5 24t-66.5 22q-33 10 -51 10q-40 0 -58.5 -15.5t-27.5 -52.5h-150z" />
    <glyph glyph-name="ograve" unicode="&#xf2;" horiz-adv-x="1218" 
d="M86 543q0 118 33.5 221.5t97 184.5t166 128t231.5 47q130 0 231.5 -46.5t163 -127t93 -183.5t31.5 -222q0 -118 -33.5 -222t-97.5 -185.5t-166.5 -129t-231.5 -47.5q-130 0 -231 46.5t-162.5 128t-93 185t-31.5 222.5zM254 1516h313l226 -318h-211zM385 543q0 -65 9 -122
t31.5 -113t68 -89t110.5 -33t112.5 33.5t72.5 89t36 114.5t11 122q0 50 -5.5 96t-21 94.5t-39.5 83.5t-65 57.5t-93 22.5t-93 -22.5t-65.5 -58t-40.5 -84t-22 -95t-6 -96.5z" />
    <glyph glyph-name="oacute" unicode="&#xf3;" horiz-adv-x="1218" 
d="M86 543q0 118 33.5 221.5t97 184.5t166 128t231.5 47q130 0 231.5 -46.5t163 -127t93 -183.5t31.5 -222q0 -118 -33.5 -222t-97.5 -185.5t-166.5 -129t-231.5 -47.5q-130 0 -231 46.5t-162.5 128t-93 185t-31.5 222.5zM385 543q0 -65 9 -122t31.5 -113t68 -89t110.5 -33
t112.5 33.5t72.5 89t36 114.5t11 122q0 50 -5.5 96t-21 94.5t-39.5 83.5t-65 57.5t-93 22.5t-93 -22.5t-65.5 -58t-40.5 -84t-22 -95t-6 -96.5zM498 1198l225 318h313l-327 -318h-211z" />
    <glyph glyph-name="ocircumflex" unicode="&#xf4;" horiz-adv-x="1218" 
d="M86 543q0 118 33.5 221.5t97 184.5t166 128t231.5 47q130 0 231.5 -46.5t163 -127t93 -183.5t31.5 -222q0 -118 -33.5 -222t-97.5 -185.5t-166.5 -129t-231.5 -47.5q-130 0 -231 46.5t-162.5 128t-93 185t-31.5 222.5zM233 1198l226 318h299l225 -318h-211l-164 195
l-164 -195h-211zM385 543q0 -65 9 -122t31.5 -113t68 -89t110.5 -33t112.5 33.5t72.5 89t36 114.5t11 122q0 50 -5.5 96t-21 94.5t-39.5 83.5t-65 57.5t-93 22.5t-93 -22.5t-65.5 -58t-40.5 -84t-22 -95t-6 -96.5z" />
    <glyph glyph-name="otilde" unicode="&#xf5;" horiz-adv-x="1218" 
d="M86 543q0 118 33.5 221.5t97 184.5t166 128t231.5 47q130 0 231.5 -46.5t163 -127t93 -183.5t31.5 -222q0 -118 -33.5 -222t-97.5 -185.5t-166.5 -129t-231.5 -47.5q-130 0 -231 46.5t-162.5 128t-93 185t-31.5 222.5zM238 1247q5 52 22 97.5t46 83t74.5 59.5t102.5 22
q34 0 69 -8t82 -24t66 -21q30 -10 54 -10q74 0 88 70h149q-13 -117 -75 -191t-175 -74q-34 0 -69 8t-81.5 24t-66.5 22q-33 10 -51 10q-40 0 -58.5 -15.5t-27.5 -52.5h-149zM385 543q0 -65 9 -122t31.5 -113t68 -89t110.5 -33t112.5 33.5t72.5 89t36 114.5t11 122
q0 50 -5.5 96t-21 94.5t-39.5 83.5t-65 57.5t-93 22.5t-93 -22.5t-65.5 -58t-40.5 -84t-22 -95t-6 -96.5z" />
    <glyph glyph-name="odieresis" unicode="&#xf6;" horiz-adv-x="1218" 
d="M86 543q0 118 33.5 221.5t97 184.5t166 128t231.5 47q130 0 231.5 -46.5t163 -127t93 -183.5t31.5 -222q0 -118 -33.5 -222t-97.5 -185.5t-166.5 -129t-231.5 -47.5q-130 0 -231 46.5t-162.5 128t-93 185t-31.5 222.5zM260 1378q0 62 44 105t106 43q63 0 106 -42.5
t43 -105.5q0 -62 -42.5 -103.5t-104.5 -41.5q-64 0 -108 41.5t-44 103.5zM385 543q0 -65 9 -122t31.5 -113t68 -89t110.5 -33t112.5 33.5t72.5 89t36 114.5t11 122q0 50 -5.5 96t-21 94.5t-39.5 83.5t-65 57.5t-93 22.5t-93 -22.5t-65.5 -58t-40.5 -84t-22 -95t-6 -96.5z
M670 1378q0 63 43.5 105.5t105.5 42.5q63 0 106.5 -42.5t43.5 -105.5q0 -62 -43 -103.5t-105 -41.5q-64 0 -107.5 41.5t-43.5 103.5z" />
    <glyph glyph-name="divide" unicode="&#xf7;" horiz-adv-x="1124" 
d="M12 408v270h1100v-270h-1100zM395 156q0 68 46 111.5t118 43.5t121 -44t49 -111t-47.5 -111.5t-118.5 -44.5q-73 0 -120.5 44t-47.5 112zM395 934q0 68 46 112t118 44t121 -44.5t49 -111.5t-47.5 -111.5t-118.5 -44.5q-73 0 -120.5 44t-47.5 112z" />
    <glyph glyph-name="oslash" unicode="&#xf8;" horiz-adv-x="1218" 
d="M33 -4l155 168q-102 149 -102 379q0 118 33.5 221.5t97 184.5t166 128t231.5 47q220 0 353 -127l149 160l80 -70l-162 -174q99 -153 99 -368q0 -118 -33.5 -222t-97.5 -185.5t-166.5 -129t-231.5 -47.5q-210 0 -346 123l-149 -160zM383 543q0 -83 14 -154l387 408
q-61 102 -172 102q-65 0 -112 -33t-71 -88t-35 -113t-11 -122zM438 281q57 -95 166 -95q52 0 94 23t67.5 59t42.5 84.5t23.5 96t6.5 96.5q0 73 -15 143z" />
    <glyph glyph-name="ugrave" unicode="&#xf9;" horiz-adv-x="1189" 
d="M139 346v748h291v-697q0 -188 148 -188q77 0 124 51q35 38 44.5 67.5t9.5 88.5v678h288v-1094h-253v160q-126 -191 -318 -191q-169 0 -251.5 103.5t-82.5 273.5zM207 1516h313l225 -318h-210z" />
    <glyph glyph-name="uacute" unicode="&#xfa;" horiz-adv-x="1189" 
d="M139 346v748h291v-697q0 -188 148 -188q77 0 124 51q35 38 44.5 67.5t9.5 88.5v678h288v-1094h-253v160q-126 -191 -318 -191q-169 0 -251.5 103.5t-82.5 273.5zM457 1198l225 318h313l-327 -318h-211z" />
    <glyph glyph-name="ucircumflex" unicode="&#xfb;" horiz-adv-x="1189" 
d="M139 346v748h291v-697q0 -188 148 -188q77 0 124 51q35 38 44.5 67.5t9.5 88.5v678h288v-1094h-253v160q-126 -191 -318 -191q-169 0 -251.5 103.5t-82.5 273.5zM215 1198l225 318h299l226 -318h-211l-164 195l-164 -195h-211z" />
    <glyph glyph-name="udieresis" unicode="&#xfc;" horiz-adv-x="1189" 
d="M139 346v748h291v-697q0 -188 148 -188q77 0 124 51q35 38 44.5 67.5t9.5 88.5v678h288v-1094h-253v160q-126 -191 -318 -191q-169 0 -251.5 103.5t-82.5 273.5zM240 1378q0 63 43.5 105.5t105.5 42.5q63 0 106.5 -42.5t43.5 -105.5q0 -62 -43 -103.5t-105 -41.5
q-64 0 -107.5 41.5t-43.5 103.5zM649 1378q0 62 44 105t106 43q63 0 106 -42.5t43 -105.5q0 -62 -42.5 -103.5t-104.5 -41.5q-64 0 -108 41.5t-44 103.5z" />
    <glyph glyph-name="yacute" unicode="&#xfd;" horiz-adv-x="1050" 
d="M20 1094h314l158 -609q39 -155 49 -237h4q37 175 53 237l156 609h268l-369 -1172q-26 -81 -63 -141t-93.5 -108.5t-138.5 -77.5t-190 -37l-27 221q213 -5 250 141zM395 1198l226 318h313l-328 -318h-211z" />
    <glyph glyph-name="thorn" unicode="&#xfe;" horiz-adv-x="1222" 
d="M145 -406v1922h289v-570q113 176 297 176q103 0 183.5 -50t127.5 -133t71 -180t24 -200q0 -79 -16 -158t-53.5 -158t-93 -139t-142.5 -97.5t-193 -37.5q-58 0 -113 21.5t-92 58.5v-455h-289zM434 324q0 -63 42 -103.5t134 -40.5q53 0 94 21t65.5 54.5t40 79.5t21 90
t5.5 93t-4.5 93.5t-19 93.5t-37 84t-62.5 58t-92 23q-73 0 -132 -55q-35 -34 -45 -61.5t-10 -77.5v-352z" />
    <glyph glyph-name="ydieresis" unicode="&#xff;" horiz-adv-x="1050" 
d="M20 1094h314l158 -609q39 -155 49 -237h4q37 175 53 237l156 609h268l-369 -1172q-26 -81 -63 -141t-93.5 -108.5t-138.5 -77.5t-190 -37l-27 221q213 -5 250 141zM188 1378q0 62 44 105t106 43q63 0 106 -42.5t43 -105.5q0 -62 -42.5 -103.5t-104.5 -41.5
q-64 0 -108 41.5t-44 103.5zM598 1378q0 62 44 105t106 43q63 0 106 -42.5t43 -105.5q0 -62 -42.5 -103.5t-104.5 -41.5q-64 0 -108 41.5t-44 103.5z" />
    <glyph glyph-name="OE" unicode="&#x152;" horiz-adv-x="2111" 
d="M92 758q0 151 40.5 276t119.5 217.5t203.5 143.5t283.5 51h1219v-260h-574v-297h553v-250h-553v-379h605v-260h-1250q-129 0 -237 41.5t-183 112.5t-127 168t-76 207t-24 229zM422 737q0 -101 21.5 -186.5t65.5 -154t117.5 -107.5t170.5 -39h266v944h-256
q-100 0 -175 -34t-120.5 -96.5t-67.5 -144t-22 -182.5z" />
    <glyph glyph-name="oe" unicode="&#x153;" horiz-adv-x="1882" 
d="M86 543q0 118 33.5 221.5t97 184.5t166 128t231.5 47q230 0 369 -159q55 70 147 112.5t207 42.5q98 0 177.5 -29t132 -77.5t87.5 -115t50.5 -137.5t15.5 -149q0 -75 -6 -118h-678q2 -126 85 -208.5t231 -82.5q70 0 144 21t124 50l78 -219q-185 -86 -389 -86
q-128 0 -232 42.5t-174 121.5q-141 -172 -379 -172q-130 0 -231 46.5t-162.5 128t-93 185t-31.5 222.5zM385 543q0 -65 9 -122t31.5 -113t68 -89t110.5 -33t112.5 33.5t72.5 89t36 114.5t11 122q0 50 -5.5 96t-21 94.5t-39.5 83.5t-65 57.5t-93 22.5t-93 -22.5t-65.5 -58
t-40.5 -84t-22 -95t-6 -96.5zM1110 684h416q8 93 -46 164.5t-157 71.5q-58 0 -102 -23t-66.5 -59.5t-33.5 -75.5t-11 -78z" />
    <glyph glyph-name="Ydieresis" unicode="&#x178;" horiz-adv-x="1239" 
d="M0 1446h377l260 -625l250 625h352l-453 -903v-543h-319v543zM295 1706q0 62 43.5 104.5t105.5 42.5q63 0 106.5 -42t43.5 -105q0 -62 -43 -103.5t-105 -41.5q-64 0 -107.5 41.5t-43.5 103.5zM705 1706q0 62 43.5 104.5t105.5 42.5q63 0 106.5 -42t43.5 -105
q0 -62 -43 -103.5t-105 -41.5q-64 0 -107.5 41.5t-43.5 103.5z" />
    <glyph glyph-name="circumflex" unicode="&#x2c6;" 
d="M199 1198l225 318h299l225 -318h-211l-164 195l-163 -195h-211z" />
    <glyph glyph-name="tilde" unicode="&#x2dc;" 
d="M197 1247q5 52 22 97.5t46 83t74.5 59.5t102.5 22q34 0 69 -8t82 -24t66 -21q30 -10 54 -10q74 0 88 70h149q-13 -117 -75 -191t-175 -74q-34 0 -69 8t-81.5 24t-66.5 22q-33 10 -51 10q-40 0 -58.5 -15.5t-27.5 -52.5h-149z" />
    <glyph glyph-name="uni2000" unicode="&#x2000;" horiz-adv-x="963" 
 />
    <glyph glyph-name="uni2001" unicode="&#x2001;" horiz-adv-x="1927" 
 />
    <glyph glyph-name="uni2002" unicode="&#x2002;" horiz-adv-x="963" 
 />
    <glyph glyph-name="uni2003" unicode="&#x2003;" horiz-adv-x="1927" 
 />
    <glyph glyph-name="uni2004" unicode="&#x2004;" horiz-adv-x="642" 
 />
    <glyph glyph-name="uni2005" unicode="&#x2005;" horiz-adv-x="481" 
 />
    <glyph glyph-name="uni2006" unicode="&#x2006;" horiz-adv-x="321" 
 />
    <glyph glyph-name="uni2007" unicode="&#x2007;" horiz-adv-x="321" 
 />
    <glyph glyph-name="uni2008" unicode="&#x2008;" horiz-adv-x="240" 
 />
    <glyph glyph-name="uni2009" unicode="&#x2009;" horiz-adv-x="385" 
 />
    <glyph glyph-name="uni200A" unicode="&#x200a;" horiz-adv-x="107" 
 />
    <glyph glyph-name="uni2010" unicode="&#x2010;" horiz-adv-x="573" 
d="M18 436v271h537v-271h-537z" />
    <glyph glyph-name="uni2011" unicode="&#x2011;" horiz-adv-x="573" 
d="M18 436v271h537v-271h-537z" />
    <glyph glyph-name="figuredash" unicode="&#x2012;" horiz-adv-x="573" 
d="M18 436v271h537v-271h-537z" />
    <glyph glyph-name="endash" unicode="&#x2013;" horiz-adv-x="1720" 
d="M387 436v271h946v-271h-946z" />
    <glyph glyph-name="emdash" unicode="&#x2014;" horiz-adv-x="2293" 
d="M-8 465v217h2310v-217h-2310z" />
    <glyph glyph-name="quoteleft" unicode="&#x2018;" horiz-adv-x="573" 
d="M88 1065q0 263 221 451h244q-105 -119 -151 -214t-46 -186q0 -89 43 -186h-280q-31 64 -31 135z" />
    <glyph glyph-name="quoteright" unicode="&#x2019;" horiz-adv-x="573" 
d="M20 930q105 119 151 214.5t46 186.5q0 88 -43 185h281q30 -62 30 -136q0 -262 -221 -450h-244z" />
    <glyph glyph-name="quotesinglbase" unicode="&#x201a;" horiz-adv-x="573" 
d="M20 -287q105 119 151 214.5t46 187.5q0 87 -43 184h281q30 -62 30 -135q0 -263 -221 -451h-244z" />
    <glyph glyph-name="quotedblleft" unicode="&#x201c;" 
d="M168 1065q0 263 221 451h244q-105 -119 -151 -215t-46 -187q0 -87 43 -184h-280q-31 64 -31 135zM618 1065q0 263 222 451h243q-105 -119 -150.5 -214.5t-45.5 -187.5q0 -87 43 -184h-281q-31 64 -31 135z" />
    <glyph glyph-name="quotedblright" unicode="&#x201d;" 
d="M63 930q105 119 151 214.5t46 186.5q0 88 -43 185h281q30 -62 30 -136q0 -262 -221 -450h-244zM514 930q105 119 151 213.5t46 185.5q0 90 -43 187h280q31 -68 31 -136q0 -262 -221 -450h-244z" />
    <glyph glyph-name="quotedblbase" unicode="&#x201e;" 
d="M63 -287q105 119 151 214.5t46 187.5q0 87 -43 184h281q30 -62 30 -135q0 -263 -221 -451h-244zM514 -287q105 119 151 214.5t46 187.5q0 87 -43 184h280q31 -64 31 -135q0 -263 -221 -451h-244z" />
    <glyph glyph-name="bullet" unicode="&#x2022;" horiz-adv-x="819" 
d="M37 727q0 151 109.5 258t263.5 107t263 -107t109 -258t-109 -258t-263 -107t-263.5 107t-109.5 258z" />
    <glyph glyph-name="ellipsis" unicode="&#x2026;" horiz-adv-x="2048" 
d="M236 152q0 71 47.5 117t126.5 46q78 0 125 -45.5t47 -117.5t-47 -118t-125 -46t-126 46t-48 118zM850 152q0 71 47.5 117t126.5 46q78 0 125 -45.5t47 -117.5t-47 -118t-125 -46t-126 46t-48 118zM1464 152q0 71 47.5 117t126.5 46q78 0 125 -45.5t47 -117.5t-47 -118
t-125 -46t-126 46t-48 118z" />
    <glyph glyph-name="uni202F" unicode="&#x202f;" horiz-adv-x="385" 
 />
    <glyph glyph-name="guilsinglleft" unicode="&#x2039;" horiz-adv-x="573" 
d="M23 551l290 418h242l-231 -418l231 -418h-242z" />
    <glyph glyph-name="guilsinglright" unicode="&#x203a;" horiz-adv-x="573" 
d="M18 133l232 418l-232 418h242l291 -418l-291 -418h-242z" />
    <glyph glyph-name="uni205F" unicode="&#x205f;" horiz-adv-x="481" 
 />
    <glyph glyph-name="trademark" unicode="&#x2122;" horiz-adv-x="2048" 
d="M12 1266v180h811v-180h-288v-688h-234v688h-289zM850 578l37 868h254l219 -498q5 -10 14 -51q0 -3 8 -25q8 28 27 76l190 498h254l43 -868h-229q-8 325 -14 485q-1 -3 -3 -9.5t-3 -9.5l-197 -466h-172l-201 475l-2 4q-4 -149 -16 -479h-209z" />
    <glyph glyph-name="uniE000" unicode="&#xe000;" horiz-adv-x="1095" 
d="M0 0v1096h1096v-1096h-1096z" />
    <glyph glyph-name="uniFB01" unicode="&#xfb01;" horiz-adv-x="1345" 
d="M20 870v203h181v76q0 167 122.5 274t294.5 107q96 0 191 -29l-61 -231q-66 24 -103 24q-75 0 -116.5 -38.5t-41.5 -116.5v-66h242v-203h-237v-870h-289v870h-183zM866 1384q0 67 44.5 109.5t117.5 42.5t116.5 -42.5t43.5 -109.5t-43.5 -109t-116.5 -42t-117.5 42
t-44.5 109zM883 0v1094h288v-1094h-288z" />
    <glyph glyph-name="uniFB02" unicode="&#xfb02;" horiz-adv-x="1316" 
d="M20 870v203h181v74q0 111 58 200t152.5 136t206.5 47q96 0 191 -29l-61 -231q-66 24 -103 24q-75 0 -116.5 -38.5t-41.5 -116.5v-66h242v-203h-237v-870h-289v870h-183zM883 0v1516h288v-1516h-288z" />
  </font>
</defs>
</svg>
