<svg id="Calque_1" data-name="Calque 1" xmlns="http://www.w3.org/2000/svg" viewBox="0 0 283.46 283.46"><defs><style>.cls-1{fill:#1c2b39;}.cls-2{fill:#c5a3cd;}</style></defs><title>navette-fluviale_F1_fc</title><path class="cls-1" d="M82.2,107.33v24.6h42.69v19.49H82.2v45.31H58.07V87.54h68.36v19.79Zm106.73,89.4V110.89c-6.65,5.26-17.17,10.36-24.44,13.61l-7.43-16.7c11.45-4.79,25.22-12.06,36-20.26h19V196.73Z" transform="translate(0 0)"/><path class="cls-2" d="M269.29,42.52H14.17A14.18,14.18,0,0,1,0,28.35V14.17A14.18,14.18,0,0,1,14.17,0H269.29a14.17,14.17,0,0,1,14.17,14.17V28.35A14.17,14.17,0,0,1,269.29,42.52Zm14.17,226.77V255.12a14.17,14.17,0,0,0-14.17-14.18H14.17A14.18,14.18,0,0,0,0,255.12v14.17a14.17,14.17,0,0,0,14.17,14.17H269.29A14.16,14.16,0,0,0,283.46,269.29Z" transform="translate(0 0)"/></svg>