<svg id="Calque_1" data-name="Calque 1" xmlns="http://www.w3.org/2000/svg" viewBox="0 0 283.46 283.47"><defs><style>.cls-1{fill:#662d91;}.cls-2{fill:#fff;}</style></defs><title>metro_14_fc</title><path class="cls-1" d="M0,141.73A141.73,141.73,0,1,1,141.73,283.46,141.73,141.73,0,0,1,0,141.73" transform="translate(0 0)"/><path class="cls-2" d="M78.26,216.84V98.73c-9.15,7.23-23.61,13.83-33.61,18.73l-10.23-23C50.18,87.89,69.11,77.89,84,66.6h26.19V216.84Zm146.18-31.28v31.27H194.65V185.56H127V157.68l58.29-91.07h39.16v95.53H242.1v23.42ZM194.65,93h-.42c-.63,2.54-4.89,11.71-10.86,21.08l-30.63,48.07h41.91Z" transform="translate(0 0)"/></svg>